SplineFontDB: 3.0
FontName: ClintonST-Regular
FullName: Clinton ST
FamilyName: Clinton ST
Weight: 400
Copyright: Copyright (c) 2012 by . All rights reserved.
Version: 001.001
ItalicAngle: 0
UnderlinePosition: -99
UnderlineWidth: 49
Ascent: 755
Descent: 245
InvalidEm: 0
sfntRevision: 0x00010000
LayerCount: 2
Layer: 0 0 "Back" 1
Layer: 1 0 "Fore" 0
PreferredKerning: 4
XUID: [1021 197 757643960 12852125]
FSType: 4
OS2Version: 3
OS2_WeightWidthSlopeOnly: 0
OS2_UseTypoMetrics: 1
CreationTime: 1340860800
ModificationTime: 1434987831
PfmFamily: 17
TTFWeight: 400
TTFWidth: 5
LineGap: 0
VLineGap: 0
Panose: 2 0 5 3 0 0 0 2 0 3
OS2TypoAscent: 750
OS2TypoAOffset: 0
OS2TypoDescent: -250
OS2TypoDOffset: 0
OS2TypoLinegap: 0
OS2WinAscent: 1000
OS2WinAOffset: 0
OS2WinDescent: 0
OS2WinDOffset: 0
HheadAscent: 750
HheadAOffset: 0
HheadDescent: -250
HheadDOffset: 0
OS2SubXSize: 650
OS2SubYSize: 600
OS2SubXOff: 0
OS2SubYOff: 75
OS2SupXSize: 650
OS2SupYSize: 600
OS2SupXOff: 0
OS2SupYOff: 350
OS2StrikeYSize: 50
OS2StrikeYPos: 314
OS2CapHeight: 753
OS2XHeight: 524
OS2Vendor: 'pyrs'
OS2CodePages: 20000001.00000000
OS2UnicodeRanges: 00000003.00000000.00000000.00000000
Lookup: 258 0 0 "'kern' Horizontal Kerning lookup 0" { "'kern' Horizontal Kerning lookup 0 subtable"  } ['kern' ('DFLT' <'dflt' > ) ]
MarkAttachClasses: 1
DEI: 91125
LangName: 1033 "" "" "Regular" "" "" "1.000" "" "Clinton is a trademark of ." "" "" "Copyright (c) 2012 by . All rights reserved." "" "" "" "" "" "Clinton" "Regular"
Encoding: UnicodeFull
UnicodeInterp: none
NameList: AGL For New Fonts
DisplaySize: -72
AntiAlias: 1
FitToEm: 1
WinInfo: 0 26 10
BeginPrivate: 2
BlueValues 13 [0 0 524 539]
OtherBlues 11 [-261 -261]
EndPrivate
Grid
-1000 -9.6005859375 m 0
 2000 -9.6005859375 l 1024
-1000 534.400390625 m 0
 2000 534.400390625 l 1024
-1000 523.401367188 m 0
 2000 523.401367188 l 1024
  Named: "Altura de x"
EndSplineSet
AnchorClass2: "u" "" 
BeginChars: 1114118 239

StartChar: m
Encoding: 109 109 4
GlifName: m
Width: 910
Flags: HMW
HStem: 0 55<37 37 37 41> 0 81<36 231 81 274> 6 75<81 231 81 231> 15 66<386 535 685 835> 46 9<30 37> 435 105<335 354 635 653> 452 15<81 231 81 231> 452 72<219 223 37 81> 475 49<30 41>
VStem: 81 150<6 468 81 81 452 452 468 468> 274 6 386 150<15 345 81 81 345 366 15 373> 578 6 685 150<15 345 81 81 345 366 15 373> 877 6
LayerCount: 2
Back
Fore
SplineSet
231 468 m 1x2240
 231 6 l 1
 81 6 l 1
 81 468 l 1
 231 468 l 1x2240
206 369 m 1x4040
 164 406 l 1x4020
 164 406 276 539 395 539 c 0
 507 539 535 472 535 366 c 0x0840
 535 265 535 15 535 15 c 1
 386 15 l 1x8040
 386 345 l 2
 386 402 388 435 323 435 c 0
 256 435 206 369 206 369 c 1x4040
505 369 m 1
 463 406 l 1
 463 406 575 539 694 539 c 0x0140
 806 539 835 472 835 366 c 0x4040
 835 265 835 15 835 15 c 1x1060
 685 15 l 1
 685 345 l 2x0820
 685 402 686 435 621 435 c 0
 554 435 505 369 505 369 c 1
231 81 m 1
 231 81 230 74 239 70 c 2
 239 70 260 60 274 55 c 1
 274 55 280 52 280 46 c 2
 280 46 280 17 280 9 c 0
 280 3 277 0 268 0 c 2
 268 0 208 3 155 3 c 0x1450
 102 3 41 0 41 0 c 2
 32 0 30 3 30 9 c 0x0140
 30 17 30 46 30 46 c 2
 30 52 37 55 37 55 c 1x00c0
 51 60 74 70 74 70 c 2
 83 74 81 81 81 81 c 1
 89 81 216 81 231 81 c 1
535 81 m 1
 535 81 536 74 545 70 c 2
 545 70 564 60 578 55 c 1x0808
 578 55 585 52 585 46 c 2
 585 46 585 17 585 9 c 0
 585 3 583 0 574 0 c 2x4008
 574 0 512 3 459 3 c 0
 406 3 346 0 346 0 c 2x0810
 337 0 335 3 335 9 c 0
 335 17 335 46 335 46 c 2x8010
 335 52 342 55 342 55 c 1
 356 60 378 70 378 70 c 2
 387 74 386 81 386 81 c 1x4010
 394 81 520 81 535 81 c 1
835 81 m 1x4010
 835 81 834 74 843 70 c 2x8004
 843 70 863 60 877 55 c 1
 877 55 884 52 884 46 c 2
 884 46 884 17 884 9 c 0x4004
 884 3 883 0 874 0 c 2
 874 0 812 3 759 3 c 0
 706 3 645 0 645 0 c 2
 636 0 634 3 634 9 c 0
 634 17 634 46 634 46 c 2
 634 52 641 55 641 55 c 1
 655 60 677 70 677 70 c 2
 686 74 685 81 685 81 c 1x1414
 693 81 820 81 835 81 c 1x4010
231 515 m 2x0804
 231 452 l 1x4004
 81 452 l 1x1006
 81 452 51 461 37 466 c 1
 37 466 30 469 30 475 c 2x0802
 30 475 30 507 30 515 c 0
 30 524 35 524 41 524 c 2
 41 524 80 521 126 521 c 0x4002
 156 521 219 524 219 524 c 2
 225 524 231 524 231 515 c 2x0804
EndSplineSet
EndChar

StartChar: l
Encoding: 108 108 5
GlifName: l
Width: 327
Flags: HMW
HStem: 0 81<45 240 90 283> 6 75<90 240 90 240> 46 9<39 46> 684 43<90 240 90 243>
VStem: 90 150<6 726 81 81 684 684 726 726> 283 6
LayerCount: 2
Back
Fore
SplineSet
243 726 m 1x9c
 240 726 l 1x9c
 240 6 l 1
 90 6 l 1x5c
 90 726 l 1
 243 726 l 1x9c
240 747 m 2
 240 684 l 1
 90 684 l 1
 90 684 60 693 46 698 c 1
 46 698 39 701 39 707 c 2
 39 707 39 739 39 747 c 0
 39 756 44 756 50 756 c 2
 50 756 89 754 135 754 c 0
 165 754 228 756 228 756 c 2
 234 756 240 756 240 747 c 2
240 81 m 1
 240 81 239 74 248 70 c 2x5c
 248 70 269 60 283 55 c 1
 283 55 289 52 289 46 c 2x3c
 289 46 289 17 289 9 c 0
 289 3 286 0 277 0 c 2
 277 0 217 3 164 3 c 0x9c
 111 3 50 0 50 0 c 2
 41 0 39 3 39 9 c 0x3c
 39 17 39 46 39 46 c 2
 39 52 46 55 46 55 c 1x5c
 60 60 83 70 83 70 c 2
 92 74 90 81 90 81 c 1
 98 81 225 81 240 81 c 1
EndSplineSet
EndChar

StartChar: H
Encoding: 72 72 6
GlifName: H_
Width: 794
Flags: HMW
HStem: 0 41 0 81<48 261 95 311> 46 9<41 48> 70 12<86 261 95 268> 357 67 745 6<155 208 155 263 592 645>
VStem: 41 54<41 46 46 50 706 745 741 745 41 747> 261 55<41 46 702 706 706 745> 474 54<41 46 46 50 706 745 741 745 41 747> 694 55<41 46 702 706 706 745>
LayerCount: 2
Back
Fore
SplineSet
95 81 m 1x8fc0
 110 81 253 81 261 81 c 1
 261 81 259 74 268 70 c 2x83
 268 70 296 60 310 55 c 1
 310 55 317 52 317 46 c 2x22
 317 46 317 17 317 9 c 0
 317 3 315 0 306 0 c 2x12
 306 0 234 3 181 3 c 0
 128 3 52 0 52 0 c 2x42
 43 0 41 3 41 9 c 0
 41 17 41 46 41 46 c 2
 41 52 48 55 48 55 c 1
 62 60 86 70 86 70 c 2
 95 74 95 81 95 81 c 1x8fc0
528 81 m 1x21
 543 81 686 81 694 81 c 1
 694 81 693 74 702 70 c 2
 702 70 729 60 743 55 c 1
 743 55 750 52 750 46 c 2
 750 46 750 17 750 9 c 0
 750 3 748 0 739 0 c 2
 739 0 672 3 619 3 c 0
 566 3 485 0 485 0 c 2x87c0
 476 0 474 3 474 9 c 0x42
 474 17 474 46 474 46 c 2
 474 52 481 55 481 55 c 1x11
 495 60 520 70 520 70 c 2
 529 74 528 81 528 81 c 1x21
95 672 m 1
 95 672 95 679 86 683 c 2x1080
 86 683 62 692 48 697 c 1
 48 697 41 700 41 706 c 2x4080
 41 706 41 737 41 745 c 0
 41 751 43 754 52 754 c 2
 52 754 128 751 181 751 c 0
 234 751 306 754 306 754 c 2
 315 754 317 751 317 745 c 0
 317 737 317 706 317 706 c 2
 317 700 310 697 310 697 c 1
 296 692 268 683 268 683 c 2
 259 679 261 672 261 672 c 1
 253 672 110 672 95 672 c 1
528 672 m 1x2080
 528 672 529 679 520 683 c 2
 520 683 495 692 481 697 c 1
 481 697 474 700 474 706 c 2x0cc0
 474 706 474 737 474 745 c 0x4080
 474 751 476 754 485 754 c 2
 485 754 566 751 619 751 c 0x1040
 672 751 739 754 739 754 c 2
 748 754 750 751 750 745 c 0x2040
 750 737 750 706 750 706 c 2
 750 700 743 697 743 697 c 1
 729 692 702 683 702 683 c 2x80c0
 693 679 694 672 694 672 c 1
 686 672 543 672 528 672 c 1x2080
261 745 m 1
 261 41 l 1
 95 41 l 1
 95 745 l 1
 263 745 l 1
 261 745 l 1
694 745 m 1
 694 41 l 1
 528 41 l 1
 528 745 l 1
 695 745 l 1
 694 745 l 1
245 348 m 0
 235 347 235 351 235 357 c 2
 235 422 l 2
 236 428 238 432 246 431 c 0
 362 422 442 422 547 431 c 0
 557 432 557 428 557 422 c 2
 556 357 l 2
 555 351 553 347 545 348 c 0
 466 357 333 361 245 348 c 0
EndSplineSet
EndChar

StartChar: o
Encoding: 111 111 7
GlifName: o
Width: 558
Flags: HMW
HStem: -10 68 466 68
VStem: 27.3756 164 371.376 160
LayerCount: 2
Back
Fore
SplineSet
27.3759765625 270 m 5
 27.3759765625 268 l 5
 33.3759765625 454 123.375976562 540 288.375976562 534 c 4
 453.375976562 528 537.375976562 438 531.375976562 252 c 4
 525.375976562 67 434.375976562 -16 269.375976562 -10 c 4
 104.375976562 -4 21.3759765625 84 27.3759765625 270 c 5
371.375976562 263 m 6
 371.375976562 265 l 6
 368.375976562 413 354.375976562 466 279.375976562 466 c 4
 211.375976562 466 190.375976562 410 191.375976562 262 c 4
 194.375976562 112 223.375976562 58 282.375976562 58 c 4
 350.375976562 58 374.375976562 115 371.375976562 263 c 6
EndSplineSet
EndChar

StartChar: u
Encoding: 117 117 8
GlifName: u
Width: 633
Flags: HMW
HStem: -10 99<257 276> 0 70<413 415 405 597> 6 65<405 555 405 555> 46 9<599 606> 454 43<405 555 405 555> 454 61<75 225 75 225> 454 70<214 217 32 75 545 547> 515 9<214 217>
VStem: 75 150<164 185 185 515 454 454> 405 150<6 495 9 70 70 70 139 139 454 454 495 495> 599 6
LayerCount: 2
Back
Fore
SplineSet
555 495 m 1x28e0
 555 6 l 1
 405 6 l 1
 405 495 l 1
 555 495 l 1x28e0
405 139 m 1x42e0
 446 110 l 1x42e0
 446 110 334 -10 215 -10 c 0
 103 -10 75 58 75 164 c 0x48e0
 75 265 75 515 75 515 c 1
 225 515 l 1
 225 185 l 2
 225 128 224 89 289 89 c 0
 356 89 405 139 405 139 c 1x42e0
555 515 m 2
 555 454 l 1x42e0
 405 454 l 1
 405 454 375 463 361 468 c 1x12e0
 361 468 354 471 354 477 c 2
 354 477 354 507 354 515 c 0
 354 524 359 524 365 524 c 2
 365 524 404 521 450 521 c 0
 480 521 545 524 545 524 c 2
 551 524 555 524 555 515 c 2
225 515 m 2
 225 454 l 1
 75 454 l 1
 75 454 45 463 31 468 c 1x81e0
 31 468 25 471 25 477 c 2
 25 477 25 507 25 515 c 0
 25 524 29 524 35 524 c 2
 35 524 74 521 120 521 c 0
 150 521 214 524 214 524 c 2x84e0
 220 524 225 524 225 515 c 2
405 9 m 2x42e0
 405 70 l 1
 555 70 l 1
 555 70 585 60 599 55 c 1
 599 55 606 52 606 46 c 2
 606 46 606 17 606 9 c 0
 606 0 601 0 595 0 c 2
 595 0 556 3 510 3 c 0
 480 3 415 0 415 0 c 2
 409 0 405 0 405 9 c 2x42e0
EndSplineSet
EndChar

StartChar: k
Encoding: 107 107 10
GlifName: k
Width: 667
Flags: HMW
HStem: 0 81<37 232 83 275> 46 9<31 37> 70 12<74 232 83 240> 444 81<378 428 378 526> 477 46<372 383> 686 40<83 232 83 234>
VStem: 83 199<6 13 13 46 6 726 6 81> 219 12<271 271> 585 6<468 477> 644 6
LayerCount: 2
Back
Fore
SplineSet
234 726 m 1x95c0
 232 726 l 1x95c0
 232 671 l 1
 232 6 l 1
 83 6 l 1x25
 83 726 l 1
 234 726 l 1x95c0
526 445 m 1
 221 179 l 1
 219 271 l 1
 425 446 l 1
 526 445 l 1
405 418 m 1
 609 66 l 1x21
 452 46 l 1
 294 323 l 1
 405 418 l 1
232 81 m 1
 232 81 231 74 240 70 c 2
 240 70 260 60 274 55 c 1
 274 55 281 52 281 46 c 2
 281 46 281 17 281 9 c 0x95c0
 281 3 279 0 270 0 c 2x21
 270 0 209 3 156 3 c 0
 103 3 43 0 43 0 c 2x42
 34 0 31 3 31 9 c 0
 31 17 31 46 31 46 c 2
 31 52 37 55 37 55 c 1x82
 51 60 74 70 74 70 c 2
 83 74 83 81 83 81 c 1x41
 91 81 217 81 232 81 c 1
600 81 m 1
 600 81 603 74 612 70 c 2x21
 612 70 630 60 644 55 c 1
 644 55 652 52 652 46 c 2
 652 46 652 17 652 9 c 0x81
 652 3 649 0 640 0 c 2
 640 0 564 3 511 3 c 0x2080
 458 3 397 0 397 0 c 2
 388 0 386 3 386 9 c 0
 386 17 386 46 386 46 c 2
 386 52 394 55 394 55 c 1
 408 60 425 70 425 70 c 2
 434 74 431 81 431 81 c 1
 439 81 585 81 600 81 c 1
232 747 m 2x4080
 232 686 l 1x8080
 83 686 l 1x2040
 83 686 51 694 37 699 c 1
 37 699 31 702 31 708 c 2x4040
 31 708 31 739 31 747 c 0
 31 756 37 756 43 756 c 2
 43 756 80 754 126 754 c 0x8040
 156 754 221 756 221 756 c 2
 227 756 232 756 232 747 c 2x4080
421 444 m 1x1080
 421 444 427 449 413 455 c 2x1080
 413 455 393 463 379 468 c 1
 379 468 372 471 372 477 c 2x0880
 372 477 372 508 372 516 c 0
 372 522 374 525 383 525 c 2
 383 525 442 523 495 523 c 0x1080
 548 523 581 525 581 525 c 2
 590 525 592 522 592 516 c 0x0880
 592 508 592 477 592 477 c 2
 592 471 585 468 585 468 c 1
 560 464 526 444 526 444 c 1
 505 444 436 444 421 444 c 1x1080
EndSplineSet
EndChar

StartChar: c
Encoding: 99 99 11
GlifName: c
Width: 525
Flags: HMW
HStem: -10 89<276 341> 465 70
VStem: 25 165
LayerCount: 2
Back
Fore
SplineSet
317 79 m 0
 363 79 399 104 417 150 c 0
 420 158 422 166 425 172 c 0
 430 190 441 194 466 188 c 0
 487 183 492 177 492 165 c 0
 492 162 491 161 490 155 c 0
 477 63 410 -10 268 -10 c 0
 96 -10 24 89 25 276 c 0
 26 423 82 534 292 534 c 0
 415 534 491 465 492 375 c 0
 492 345 469 331 417 328 c 0
 365 325 344 340 341 366 c 0
 337 428 319 464 274 465 c 0
 222 466 188 435 188 307 c 0
 188 126 234 79 317 79 c 0
EndSplineSet
EndChar

StartChar: r
Encoding: 114 114 12
GlifName: r
Width: 447
Flags: HMW
HStem: 0 55<32 32 32 34 32 36 32 34 32 37> 0 81<31 226 34 226 76 268 76 284> 22 59<76 226 76 226> 46 9<25 32 27 32> 383 151 452 15<76 226 76 226> 452 72<215 218 34 76> 475 49<25 36>
VStem: 76 150<22 468 81 81 81 81 452 452 468 468> 268 6 284 6
LayerCount: 2
Back
Fore
SplineSet
226 468 m 1x24c0
 226 22 l 1
 76 22 l 1
 76 468 l 1
 226 468 l 1x24c0
415 523 m 0x42c0
 429 515 435 510 440 498 c 0
 445 486 443 474 437 446 c 0
 433 427 428 403 414 390 c 0x42c0
 405 381 397 380 375 390 c 0
 356 400 341 406 320 406 c 0x12c0
 268 406 232 395 187 284 c 1
 172 280 l 2x82c0
 167 279 185 278 188 328 c 0
 194 429 255 534 372 534 c 0
 393 534 405 529 415 523 c 0x42c0
226 81 m 1
 226 81 225 74 234 70 c 2
 234 70 254 60 268 55 c 1
 268 55 275 52 275 46 c 2x42c0
 275 46 275 17 275 9 c 0
 275 3 274 0 265 0 c 2x41c0
 265 0 203 3 150 3 c 0
 97 3 36 0 36 0 c 2
 27 0 25 3 25 9 c 0
 25 17 25 46 25 46 c 2
 25 52 32 55 32 55 c 1
 46 60 68 70 68 70 c 2x42c0
 77 74 76 81 76 81 c 1x22c0
 84 81 211 81 226 81 c 1
226 515 m 2x82c0
 226 452 l 1
 76 452 l 1x12e0
 76 452 46 461 32 466 c 1
 32 466 25 469 25 475 c 2
 25 475 25 507 25 515 c 0x42e0
 25 524 30 524 36 524 c 2
 36 524 75 521 121 521 c 0x12c0
 151 521 215 524 215 524 c 2
 221 524 226 524 226 515 c 2x82c0
76 81 m 1x28e0
 226 81 l 1
 226 81 226 73 234 70 c 2
 234 70 270 60 284 55 c 1
 284 55 292 52 292 46 c 2
 292 46 292 17 292 9 c 0
 292 3 289 0 280 0 c 2
 280 0 209 3 156 3 c 0
 103 3 37 0 37 0 c 2
 28 0 27 3 27 9 c 0
 27 17 27 46 27 46 c 2
 27 52 34 55 34 55 c 1
 48 60 68 70 68 70 c 2
 76 73 76 81 76 81 c 1x28e0
EndSplineSet
EndChar

StartChar: d
Encoding: 100 100 13
GlifName: d
Width: 586
Flags: HMW
HStem: -9 77<253.577 315.577> 0 70<371.577 373.577 361.577 555.577> 25 45<361.577 512.577 361.577 512.577> 46 9<556.577 563.577> 465 68<248.577 306.577> 684 55<361.577 512.577 361.577 512.577> 707 46
VStem: 12.5772 165<217 350> 361.577 150<25 25 25 70 25 741 70 70 684 684 741 741> 556.577 6
LayerCount: 2
Back
Fore
SplineSet
512.577148438 25 m 1x2dc0
 361.577148438 25 l 1
 361.577148438 741 l 1
 512.577148438 741 l 1
 512.577148438 25 l 1x2dc0
512.577148438 747 m 2x4dc0
 512.577148438 684 l 1
 361.577148438 684 l 1x4dc0
 361.577148438 684 332.577148438 693 318.577148438 698 c 1
 318.577148438 698 311.577148438 701 311.577148438 707 c 2x1dc0
 311.577148438 707 311.577148438 739 311.577148438 747 c 0
 311.577148438 756 315.577148438 756 321.577148438 756 c 2
 321.577148438 756 361.577148438 754 407.577148438 754 c 0
 437.577148438 754 501.577148438 756 501.577148438 756 c 2
 507.577148438 756 512.577148438 756 512.577148438 747 c 2x4dc0
361.577148438 9 m 2x8dc0
 361.577148438 70 l 1
 512.577148438 70 l 1
 512.577148438 70 542.577148438 60 556.577148438 55 c 1
 556.577148438 55 563.577148438 52 563.577148438 46 c 2x4dc0
 563.577148438 46 563.577148438 17 563.577148438 9 c 0
 563.577148438 0 558.577148438 0 552.577148438 0 c 2
 552.577148438 0 513.577148438 3 467.577148438 3 c 0
 437.577148438 3 373.577148438 0 373.577148438 0 c 2
 367.577148438 0 361.577148438 0 361.577148438 9 c 2x8dc0
244.577148438 -9 m 0
 56.5771484375 -9 12.5771484375 113 12.5771484375 276 c 0x4dc0
 12.5771484375 423 77.5771484375 534 272.577148438 534 c 0
 395.577148438 534 502.577148438 432 502.577148438 377 c 0x4bc0
 502.577148438 347 490.577148438 332 438.577148438 329 c 0
 386.577148438 326 367.577148438 340 367.577148438 366 c 0
 367.577148438 434 338.577148438 465 275.577148438 465 c 0
 221.577148438 465 177.577148438 435 177.577148438 307 c 0
 177.577148438 126 209.577148438 68 297.577148438 68 c 0x4dc0
 402.577148438 68 384.577148438 182 405.577148438 234 c 0x8dc0
 408.577148438 242 409.577148438 249 412.577148438 255 c 0
 418.577148438 285 479.577148438 275 479.577148438 249 c 0
 479.577148438 246 492.577148438 229 491.577148438 223 c 0
 478.577148438 131 386.577148438 -9 244.577148438 -9 c 0
EndSplineSet
EndChar

StartChar: q
Encoding: 113 113 14
GlifName: q
Width: 600
Flags: HMW
HStem: -9 90<268 297> 453 81<262 308 185 335>
VStem: 43 163<213 345 213 346> 375 8<-190 -190>
LayerCount: 2
Back
Fore
SplineSet
523 532 m 0
 532 532 534 529 534 523 c 0
 534 515 534 452 534 452 c 1
 534 -243 l 1
 385 -243 l 1
 385 490 l 1
 385 490 489 531 523 532 c 0
385 -179 m 1
 534 -179 l 1
 534 -179 533 -186 542 -190 c 2
 542 -190 564 -199 578 -204 c 1
 578 -204 585 -207 585 -213 c 2
 585 -213 585 -244 585 -252 c 0
 585 -258 583 -261 574 -261 c 2
 574 -261 512 -258 459 -258 c 0
 406 -258 346 -261 346 -261 c 2
 337 -261 335 -258 335 -252 c 0
 335 -244 335 -213 335 -213 c 2
 335 -207 342 -204 342 -204 c 1
 356 -199 375 -190 375 -190 c 2
 384 -186 385 -179 385 -179 c 1
415 388 m 5
 403 409 368 453 302 453 c 4
 222 453 206 403 206 286 c 4
 206 141 241 81 295 81 c 4
 390 81 456 167 495 195 c 5
 495 139 l 5
 495 139 372 -9 222 -9 c 4
 71 -9 43 107 43 268 c 4
 43 424 102 534 268 534 c 4
 348 534 415 499 415 388 c 5
EndSplineSet
EndChar

StartChar: I
Encoding: 73 73 15
GlifName: I_
Width: 363
Flags: HMW
HStem: 0 41 0 81<53 266 101 316> 46 9<46 53> 70 12<92 266 101 274> 745 6<160 213 160 268>
VStem: 46 54<41 46 46 50 706 745 741 745 41 747> 266 55<41 46 702 706 706 745>
LayerCount: 2
Back
Fore
SplineSet
101 81 m 1x4e
 116 81 258 81 266 81 c 1
 266 81 265 74 274 70 c 2x9e
 274 70 301 60 315 55 c 1
 315 55 323 52 323 46 c 2x2e
 323 46 323 17 323 9 c 0
 323 3 320 0 311 0 c 2
 311 0 239 3 186 3 c 0x8e
 133 3 57 0 57 0 c 2
 48 0 46 3 46 9 c 0x2e
 46 17 46 46 46 46 c 2
 46 52 53 55 53 55 c 1x9e
 67 60 92 70 92 70 c 2
 101 74 101 81 101 81 c 1x4e
101 672 m 1x8e
 101 672 101 679 92 683 c 2
 92 683 67 692 53 697 c 1
 53 697 46 700 46 706 c 2
 46 706 46 737 46 745 c 0
 46 751 48 754 57 754 c 2
 57 754 133 751 186 751 c 0
 239 751 311 754 311 754 c 2
 320 754 323 751 323 745 c 0
 323 737 323 706 323 706 c 2
 323 700 315 697 315 697 c 1
 301 692 274 683 274 683 c 2
 265 679 266 672 266 672 c 1
 258 672 116 672 101 672 c 1x8e
266 745 m 5
 266 41 l 5
 101 41 l 5
 101 745 l 5
 268 745 l 5
 266 745 l 5
EndSplineSet
EndChar

StartChar: h
Encoding: 104 104 16
GlifName: h
Width: 630
Flags: HMW
HStem: 0 55<37 37 37 44 37 268> 0 81<36 228 79 228 79 268 406 556> 6 75<79 228 79 228> 15 66<406 556> 46 9<30 37> 435 105<356 374> 684 43<79 228 79 231>
VStem: 79 150<6 726 81 81 684 684 726 726> 274 6 406 150<15 345 81 81 345 366 15 373> 600 6
LayerCount: 2
Back
Fore
SplineSet
231 726 m 1x47e0
 228 726 l 1x47e0
 228 6 l 1
 79 6 l 1x27e0
 79 726 l 1
 231 726 l 1x47e0
226 383 m 1
 185 421 l 1
 185 421 296 539 415 539 c 0x47e0
 527 539 556 472 556 366 c 0
 556 265 556 15 556 15 c 1x0fe0
 406 15 l 1
 406 345 l 2x87e0
 406 402 407 435 342 435 c 0
 275 435 226 383 226 383 c 1
79 81 m 1x0fe0
 94 81 220 81 228 81 c 1
 228 81 228 74 237 70 c 2
 237 70 260 60 274 55 c 1
 274 55 280 52 280 46 c 2
 280 46 280 17 280 9 c 0
 280 3 277 0 268 0 c 0
 260 0 47 0 41 0 c 0
 32 0 30 3 30 9 c 0x47e0
 30 17 30 46 30 46 c 2
 30 52 37 55 37 55 c 1x17e0
 51 60 71 70 71 70 c 2
 80 74 79 81 79 81 c 1x0fe0
406 81 m 1
 421 81 548 81 556 81 c 1x87e0
 556 81 555 74 564 70 c 2
 564 70 586 60 600 55 c 1x47e0
 600 55 606 52 606 46 c 2
 606 46 606 17 606 9 c 0
 606 3 605 0 596 0 c 0
 590 0 374 0 368 0 c 0
 359 0 357 3 357 9 c 0x17e0
 357 17 357 46 357 46 c 2
 357 52 364 55 364 55 c 1
 378 60 397 70 397 70 c 2
 406 74 406 81 406 81 c 1
228 747 m 2x0fe0
 228 684 l 1x47e0
 79 684 l 1
 79 684 49 693 35 698 c 1x17e0
 35 698 28 701 28 707 c 2
 28 707 28 739 28 747 c 0x0fe0
 28 756 33 756 39 756 c 2
 39 756 78 754 124 754 c 0x47e0
 154 754 218 756 218 756 c 2
 224 756 228 756 228 747 c 2x0fe0
EndSplineSet
EndChar

StartChar: f
Encoding: 102 102 17
GlifName: f
Width: 420
Flags: HMW
HStem: 1 54 1 80<110 121 108 271> 35 46<108 259 108 259> 434 74 688 76<280 305>
VStem: 108 150<35 507 80 81 507 591> 326 125<596 650>
LayerCount: 2
Back
Fore
SplineSet
108 81 m 2x5c
 259 81 l 2
 259 80 260 78 261 77 c 0
 262 74 263 71 267 70 c 0
 273 69 280 68 286 65 c 0x5e
 298 62 311 58 317 55 c 2
 320 54 l 2
 323 53 324 49 324 46 c 2x9c
 324 9 l 2
 324 3 320 0 314 0 c 0
 300 0 285 0 271 1 c 0
 246 1 215 3 188 3 c 0
 161 3 133 1 110 1 c 0
 97 0 84 0 71 0 c 0
 65 0 59 3 59 9 c 2x5c
 59 46 l 2
 59 49 60 53 63 54 c 2
 67 55 l 1
 89 65 l 2x9c
 93 68 97 69 101 70 c 0
 105 71 107 74 108 77 c 0
 109 78 108 80 108 81 c 2x5c
258 764 m 0
 382 764 452 714 452 615 c 0
 452 572 431 559 395 559 c 0
 345 559 326 568 326 623 c 0
 326 677 318 688 293 688 c 0
 268 688 259 671 259 603 c 2
 259 35 l 1
 108 35 l 1x3e
 108 507 l 2
 108 676 129 764 258 764 c 0
40 430 m 0x5c
 30 429 30 433 30 439 c 2
 30 503 l 2
 31 509 33 513 41 512 c 0
 107 507 313 507 372 512 c 0
 382 513 382 509 382 503 c 2
 381 439 l 2
 380 433 378 429 370 430 c 0
 331 434 86 436 40 430 c 0x5c
EndSplineSet
EndChar

StartChar: b
Encoding: 98 98 18
GlifName: b
Width: 606
Flags: HMW
HStem: -10 68<280 338 280 410> 445 88<293 333> 684 61<76 226 76 226> 707 46
VStem: 76 150<43 61 61 745 684 684 745 745> 409 160<190 307>
LayerCount: 2
Back
Fore
SplineSet
86 -12 m 0xec
 77 -12 76 -9 76 -3 c 0
 76 5 76 61 76 61 c 1
 76 745 l 1
 226 745 l 1
 226 43 l 1
 226 43 120 -11 86 -12 c 0xec
226 747 m 2
 226 684 l 1
 76 684 l 1xec
 76 684 46 693 32 698 c 1
 32 698 25 701 25 707 c 2xdc
 25 707 25 739 25 747 c 0
 25 756 30 756 36 756 c 2
 36 756 75 754 121 754 c 0
 151 754 215 756 215 756 c 2
 221 756 226 756 226 747 c 2
356 533 m 0
 533 533 569 430 569 258 c 0
 569 123 509 -10 314 -10 c 0
 191 -10 146 117 146 172 c 0
 146 202 96 192 148 195 c 0
 200 198 219 183 219 157 c 0
 219 89 248 59 311 59 c 0
 365 59 409 101 409 217 c 0
 409 398 377 445 289 445 c 0
 184 445 202 342 181 290 c 0
 178 282 177 274 174 268 c 0
 168 238 107 249 107 275 c 0
 107 278 94 295 95 301 c 0
 108 393 230 533 356 533 c 0
EndSplineSet
EndChar

StartChar: _0141
Encoding: 1114114 -1 19
GlifName: _0141
Width: 3
Flags: HMW
HStem: 459 74<268 268> 512 21G<192 275>
VStem: 25 163<262 357>
LayerCount: 2
Back
Fore
SplineSet
25 265 m 1x60
 25 451 110 532 275 532 c 1
 275 517 268 459 268 459 c 1xa0
 193 456 182 410 188 262 c 1
 25 265 l 1x60
EndSplineSet
EndChar

StartChar: _0142
Encoding: 1114115 -1 20
GlifName: _0142
Width: 3
Flags: HMW
HStem: 474 62<235 298>
VStem: 181 6<361 403> 335 152<36 348 348 385 9 390>
LayerCount: 2
Back
Fore
SplineSet
262 474 m 0
 207 474 187 436 187 370 c 0
 187 364 187 361 181 361 c 2
 181 361 154 366 108 369 c 0
 73 372 48 369 48 369 c 2
 42 369 41 372 41 378 c 0
 41 511 120 535 292 535 c 0
 461 535 486 468 486 385 c 2
 486 9 l 1
 350 9 l 2
 350 10 344 15 335 36 c 1
 335 348 l 2
 335 431 336 474 262 474 c 0
EndSplineSet
EndChar

StartChar: _0143
Encoding: 1114116 -1 21
GlifName: _0143
Width: 3
Flags: HMW
HStem: 382 71<81 86>
VStem: 134 139<204 243 204 293>
LayerCount: 2
Back
Fore
SplineSet
134 236 m 1
 134 236 134 233 134 243 c 0
 134 342 113 382 59 382 c 1
 59 382 74 453 89 453 c 0
 201 453 266 388 271 293 c 0
 272 268 274 242 274 219 c 0
 274 189 272 166 272 166 c 1
 134 236 l 1
EndSplineSet
EndChar

StartChar: _0144
Encoding: 1114117 -1 22
GlifName: _0144
Width: 3
Flags: HMW
HStem: -4 59<302 332 295 394>
VStem: 392 163<179 234>
LayerCount: 2
Back
Fore
SplineSet
555 263 m 1
 555 97 484 -4 302 -4 c 1
 295 55 l 1
 365 55 392 102 392 225 c 0
 392 243 555 263 555 263 c 1
EndSplineSet
EndChar

StartChar: t
Encoding: 116 116 23
GlifName: t
Width: 442
Flags: HMW
HStem: -15 105<181.069 330.069> 446 70
VStem: 99.0689 150<157 179 179 644 644 644>
LayerCount: 2
Back
Fore
SplineSet
238.068359375 674 m 0
 247.068359375 674 250.068359375 671 250.068359375 665 c 2
 250.068359375 179 l 2
 250.068359375 103 261.068359375 89 309.068359375 89 c 0
 349.068359375 89 378.068359375 104 397.068359375 110 c 0
 412.068359375 116 428.068359375 117 438.068359375 95 c 0
 450.068359375 70 439.068359375 57 425.068359375 48 c 0
 371.068359375 13 319.068359375 -15 231.068359375 -15 c 0
 130.068359375 -15 99.068359375 51 99.068359375 157 c 2
 99.068359375 644 l 1
 99.068359375 644 204.068359375 673 238.068359375 674 c 0
19.068359375 443 m 0
 9.068359375 442 10.068359375 446 10.068359375 452 c 2
 10.068359375 516 l 2
 11.068359375 522 12.068359375 526 20.068359375 525 c 0
 140.068359375 513 290.068359375 516 391.068359375 525 c 0
 401.068359375 526 400.068359375 522 400.068359375 516 c 2
 400.068359375 452 l 2
 399.068359375 446 397.068359375 443 389.068359375 443 c 0
 284.068359375 446 133.068359375 452 19.068359375 443 c 0
EndSplineSet
EndChar

StartChar: j
Encoding: 106 106 24
GlifName: j
Width: 305
Flags: HMW
HStem: -261 105<9 147> 453 36<89 239 89 239> 453 72<228 231 46 89> 476 49<37 49> 604 159<124 164>
VStem: 62 170<661 707> 89 150<-66 489 453 453 489 489>
LayerCount: 2
Back
Fore
SplineSet
239 516 m 2xaa
 239 453 l 1
 89 453 l 1xaa
 89 453 59 462 45 467 c 1
 45 467 37 470 37 476 c 2x9a
 37 476 37 508 37 516 c 0
 37 525 43 525 49 525 c 2
 49 525 88 523 134 523 c 0
 164 523 228 525 228 525 c 2
 234 525 239 525 239 516 c 2xaa
89 -66 m 2
 89 489 l 1
 239 489 l 1xca
 239 -86 l 2
 239 -198 195 -261 98 -261 c 0
 15 -261 -34 -231 -86 -187 c 0
 -107 -170 -110 -154 -98 -137 c 0
 -85 -119 -74 -117 -59 -125 c 0
 -40 -135 -12 -156 28 -156 c 0
 76 -156 89 -142 89 -66 c 2
232 684 m 0xac
 232 638 187 604 141 604 c 0
 107 604 62 638 62 684 c 0
 62 729 107 763 141 763 c 0
 187 763 232 729 232 684 c 0xac
EndSplineSet
EndChar

StartChar: s
Encoding: 115 115 25
GlifName: s
Width: 521
Flags: HMW
HStem: -10 80<241 288 237 351> 0 21G<37 43 39 95> 175 12 459 80<236 266 170 289> 532 9
VStem: 34 81<46 46 46 99> 45 141<392 423 392 440> 101 6<182 187> 350 146<98 142> 391 74<382 382>
LayerCount: 2
Back
Fore
SplineSet
114 46 m 1xb280
 114 46 107 14 103 5 c 1
 103 5 100 0 95 0 c 2
 95 0 45 0 39 0 c 0
 35 0 33 0 34 6 c 2
 34 6 34 63 34 99 c 0x6c40
 34 136 34 175 34 175 c 2
 34 181 35 185 39 186 c 0x6940
 45 186 101 187 101 187 c 2
 107 187 108 182 108 182 c 1
 112 161 114 148 114 148 c 2
 124 89 212 70 265 70 c 0
 313 70 350 86 350 114 c 0xac80
 350 172 238 197 173 223 c 0
 68 266 45 339 45 400 c 0
 45 481 102 539 239 539 c 0
 293 539 333 531 388 497 c 1x7240
 388 497 394 523 397 535 c 1
 397 535 401 539 406 539 c 2
 406 539 453 539 459 539 c 0
 462 539 466 538 465 532 c 2
 465 532 465 468 465 431 c 0x6c40
 465 394 465 356 465 356 c 2
 465 350 462 347 457 347 c 0
 452 347 403 348 403 348 c 2
 397 348 396 354 396 354 c 1
 393 364 391 382 391 382 c 2x7440
 382 444 317 459 265 459 c 0
 210 459 186 434 186 413 c 0
 186 372 225 356 306 317 c 0
 429 262 495 244 495 143 c 0
 495 53 433 -10 268 -10 c 0
 214 -10 168 12 114 46 c 1xb280
EndSplineSet
EndChar

StartChar: g
Encoding: 103 103 26
GlifName: g
Width: 760
Flags: HMW
HStem: -261 98<310 405 310 470> -30 90 163 45<272 356 261 440> 465 70<317 382> 483 52
VStem: 92 86 98 157<321 387 321 404> 265 19 445 160<315 348 292 392> 488 139<-117 -37> 643 116<403 444>
LayerCount: 2
Back
Fore
SplineSet
605 347 m 2xab80
 605 348 l 2
 605 234 519 163 363 163 c 0
 184 163 98 234 98 348 c 0
 98 462 188 534 363 534 c 0
 520 534 605 458 605 347 c 2xab80
255 348 m 0
 255 295 278 235 348 235 c 0
 424 235 445 282 445 348 c 0
 445 437 408 465 355 465 c 0xb380
 280 465 255 425 255 348 c 0
329 208 m 0
 384 208 254 215 254 138 c 0xab40
 254 83 375 118 498 83 c 0
 572 62 628 17 628 -68 c 0
 628 -175 578 -261 363 -261 c 0
 228 -261 143 -224 108 -157 c 0
 73 -90 91 1 163 28 c 0
 229 53 265 61 265 61 c 1
 302 25 279 34 243 13 c 0
 215 -4 190 -18 181 -49 c 0xed40
 160 -117 249 -163 372 -163 c 0
 440 -163 488 -137 488 -97 c 0xeb40
 488 20 98 -94 98 103 c 0
 98 178 192 208 329 208 c 0
591 483 m 0xad60
 557 483 539 455 539 455 c 1
 539 455 496 480 501 483 c 0
 586 542 662 544 702 523 c 0
 742 502 757 466 757 427 c 0
 757 375 727 365 699 365 c 0
 671 365 643 380 643 426 c 0
 643 463 619 483 591 483 c 0xad60
EndSplineSet
EndChar

StartChar: v
Encoding: 118 118 27
GlifName: v
Width: 552
Flags: HMW
HStem: 0 21G<219 261> 443 6<3 6 3 5 3 172 404 476> 443 81<-40 6 -40 5 -40 172> 468 55<-40 -40 205 205 351 351 529 529> 477 46<-46 -36>
VStem: 205 6<468 477> 529 6<468 477>
LayerCount: 2
Back
Fore
SplineSet
6 443 m 2xa6
 5 443 l 1
 5 443 5 450 -4 454 c 2xa6
 -4 454 -26 463 -40 468 c 1
 -40 468 -46 471 -46 477 c 2x8e
 -46 477 -46 507 -46 515 c 0
 -46 521 -45 524 -36 524 c 2
 -36 524 30 523 83 523 c 0xa6
 136 523 201 524 201 524 c 2
 210 524 212 521 212 515 c 0x8e
 212 507 212 477 212 477 c 2
 212 472 205 468 205 468 c 1x96
 178 454 l 2
 169 449 172 443 172 443 c 1
 164 443 21 443 6 443 c 2xa6
403 443 m 2
 401 443 l 1
 401 443 405 451 392 455 c 2xa6
 392 455 365 463 351 468 c 1
 351 468 345 471 345 477 c 2x8e
 345 477 345 507 345 515 c 0
 345 521 346 524 355 524 c 2
 355 524 381 523 434 523 c 0xa6
 446 523 525 524 525 524 c 2
 534 524 535 521 535 515 c 0x8e
 535 507 535 477 535 477 c 2
 535 472 529 468 529 468 c 1x96
 489 455 l 2
 479 451 476 443 476 443 c 1
 468 443 418 443 403 443 c 2
194 6 m 2
 3 450 l 1
 161 468 l 1
 303 130 l 1
 268 130 l 1
 404 450 l 1
 480 450 l 1xc6
 288 6 l 2
 285 1 282 0 239 0 c 0
 200 0 197 1 194 6 c 2
EndSplineSet
EndChar

StartChar: w
Encoding: 119 119 28
GlifName: w
Width: 812
Flags: HMW
HStem: 0 21G<217 258 533 573> 443 34<693 757> 443 81<4 46 4 45 4 212> 468 55<4 4 244 244 652 652 797 797> 477 46<-3 8>
VStem: 244 6<468 477> 797 6<468 477>
LayerCount: 2
Back
Fore
SplineSet
46 443 m 2xa6
 45 443 l 1
 45 443 44 450 35 454 c 2xa6
 35 454 18 463 4 468 c 1
 4 468 -3 471 -3 477 c 2x8e
 -3 477 -3 507 -3 515 c 0
 -3 521 -1 524 8 524 c 2
 8 524 70 523 123 523 c 0xa6
 176 523 240 524 240 524 c 2
 249 524 252 521 252 515 c 0x8e
 252 507 252 477 252 477 c 2
 252 472 244 468 244 468 c 1x96
 217 454 l 2
 208 449 212 443 212 443 c 1
 204 443 61 443 46 443 c 2xa6
757 443 m 1
 740 443 692 443 684 443 c 1
 684 443 686 449 677 454 c 2xa6
 652 468 l 1
 652 468 644 472 644 477 c 2x8e
 644 477 644 507 644 515 c 0
 644 521 646 524 655 524 c 2
 655 524 664 523 717 523 c 0xa6
 770 523 794 524 794 524 c 2
 803 524 805 521 805 515 c 0x8e
 805 507 805 477 805 477 c 2
 805 471 797 468 797 468 c 1xc6
 783 463 766 454 766 454 c 2
 757 450 757 443 757 443 c 1
502 517 m 2
 612 175 l 1
 594 175 l 1
 693 477 l 1
 766 477 l 1xc6
 621 6 l 2
 618 0 595 0 552 0 c 0
 513 0 510 1 507 6 c 2
 401 328 l 1
 295 6 l 2
 292 0 279 0 236 0 c 0
 197 0 186 1 183 6 c 2
 43 450 l 1
 204 468 l 1
 302 159 l 1
 270 175 l 1
 385 517 l 2
 388 522 398 524 437 524 c 0
 480 524 499 523 502 517 c 2
EndSplineSet
EndChar

StartChar: x
Encoding: 120 120 29
GlifName: x
Width: 593
Flags: HMW
HStem: -1 83 0 81<19 204 101 241> 46 9<13 21> 50 9<307 314> 70 12<101 212> 439 85<23 77> 443 83 450 74<23 66 23 68> 465 59<25 25 292 292 368 368 557 557> 474 52<17 28>
VStem: 13 46 241 6 292 6<465 474> 405 9 557 6<465 474> 575 6
LayerCount: 2
Back
Fore
SplineSet
477 27 m 0x0410
 472 23 384 37 379 43 c 2
 68 450 l 1x0088
 236 468 l 1
 528 83 l 2x0208
 529 80 504 42 477 27 c 0x0410
77 439 m 2
 77 439 71 446 66 450 c 2
 66 450 39 460 25 465 c 1x0102
 25 465 17 468 17 474 c 2
 17 474 17 507 17 515 c 0
 17 521 19 524 28 524 c 2x0406
 28 524 82 523 135 523 c 0x0404
 188 523 288 524 288 524 c 2x0420
 297 524 299 521 299 515 c 0
 299 507 299 474 299 474 c 2x0060
 299 468 292 465 292 465 c 1
 278 460 263 453 263 453 c 2
 251 448 257 443 257 443 c 1x0208
 249 443 80 439 77 439 c 2
68 6 m 0
 43 21 75 49 75 52 c 2x0206
 414 450 l 1
 519 450 l 1
 139 6 l 2x0044
 134 0 73 2 68 6 c 0
405 439 m 2x0104
 405 439 414 447 406 450 c 2
 406 450 382 460 368 465 c 1
 368 465 361 468 361 474 c 2x0820
 361 474 361 507 361 515 c 0
 361 521 363 524 372 524 c 2
 372 524 395 523 448 523 c 0
 501 523 554 524 554 524 c 2
 563 524 565 521 565 515 c 0
 565 507 565 474 565 474 c 2
 565 468 557 465 557 465 c 1
 543 460 523 450 523 450 c 2x8124
 517 446 510 439 510 439 c 1x0406
 502 439 408 439 405 439 c 2x0104
526 84 m 1
 526 84 529 80 539 74 c 2
 539 74 561 64 575 59 c 1
 575 59 583 56 583 50 c 2
 583 50 583 16 583 8 c 0
 583 2 581 -1 572 -1 c 2
 572 -1 474 1 421 1 c 0x8124
 368 1 317 -1 317 -1 c 2x0810
 308 -1 307 2 307 8 c 0
 307 16 307 50 307 50 c 2x2010
 307 56 314 59 314 59 c 1
 328 64 342 70 342 70 c 2
 354 75 348 81 348 81 c 1x4030
 356 81 492 79 526 84 c 1
204 81 m 1
 204 81 200 76 212 70 c 2x8001
 212 70 227 60 241 55 c 1
 241 55 248 52 248 46 c 2x1001
 248 46 248 17 248 9 c 0
 248 3 246 0 237 0 c 2
 237 0 181 3 128 3 c 0x8001
 75 3 25 0 25 0 c 2
 16 0 13 3 13 9 c 0x1004
 13 17 13 46 13 46 c 2
 13 52 21 55 21 55 c 1x0808
 35 60 86 70 86 70 c 2
 95 74 101 81 101 81 c 1
 109 81 189 81 204 81 c 1
EndSplineSet
EndChar

StartChar: y
Encoding: 121 121 30
GlifName: y
Width: 687
Flags: HMW
HStem: -250 161 443 6<46 52 46 49 46 215 448 520> 443 81<4 52 4 49 4 215> 468 55<4 4 249 249 395 395 573 573> 477 46<-3 8>
VStem: 249 6<468 477> 573 6<468 477>
LayerCount: 2
Back
Fore
SplineSet
142 -132 m 0xa6
 188 -132 218 -95 243 -10 c 1
 46 450 l 1
 205 468 l 1
 347 130 l 1
 314 130 l 1
 448 450 l 1
 524 450 l 1xc6
 332 -1 l 1
 267 -147 l 2
 230 -230 133 -291 -15 -217 c 0
 -41 -204 -34 -170 -3 -130 c 0
 29 -90 58 -80 77 -97 c 0
 95 -112 123 -129 142 -132 c 0xa6
52 443 m 2
 49 443 l 1
 49 443 49 450 40 454 c 2xa6
 40 454 18 463 4 468 c 1
 4 468 -3 471 -3 477 c 2x8e
 -3 477 -3 507 -3 515 c 0
 -3 521 -1 524 8 524 c 2
 8 524 73 523 126 523 c 0xa6
 179 523 245 524 245 524 c 2
 254 524 255 521 255 515 c 0x8e
 255 507 255 477 255 477 c 2
 255 472 249 468 249 468 c 1x96
 222 454 l 2
 213 449 215 443 215 443 c 1
 207 443 67 443 52 443 c 2
446 443 m 2
 445 443 l 1
 445 443 449 451 436 455 c 2xa6
 436 455 409 463 395 468 c 1
 395 468 388 471 388 477 c 2x8e
 388 477 388 507 388 515 c 0
 388 521 390 524 399 524 c 2
 399 524 424 523 477 523 c 0xa6
 489 523 569 524 569 524 c 2
 578 524 581 521 581 515 c 0x8e
 581 507 581 477 581 477 c 2
 581 472 573 468 573 468 c 1x96
 533 455 l 2
 523 451 520 443 520 443 c 1
 512 443 461 443 446 443 c 2
EndSplineSet
EndChar

StartChar: z
Encoding: 122 122 31
GlifName: z
Width: 547
Flags: HMW
HStem: 1 74 449 74
VStem: 92 9<343 348> 481 12<501 524> 498 12
LayerCount: 2
Back
Fore
SplineSet
492 458 m 2
 252 93 l 2
 246 83 247 75 259 75 c 2
 406 75 l 1
 406 75 415 74 419 80 c 2
 419 80 449 162 455 175 c 1
 455 175 459 184 465 181 c 2
 465 181 502 175 514 172 c 0
 520 171 520 169 520 159 c 0
 520 156 511 26 508 9 c 0
 505 0 503 1 498 1 c 2xe8
 498 1 327 3 274 3 c 0
 221 3 55 0 55 0 c 2
 46 0 44 3 44 9 c 2
 44 52 l 2
 44 55 43 62 46 65 c 2
 295 431 l 2
 301 441 296 449 286 449 c 2
 154 449 l 1
 154 449 144 450 141 444 c 2
 141 444 109 361 101 348 c 1
 101 348 98 340 92 343 c 2
 92 343 55 349 43 352 c 0
 37 353 35 356 36 365 c 0
 37 368 50 498 53 515 c 0
 56 524 60 523 65 523 c 2
 65 523 172 521 225 521 c 0
 278 521 481 524 481 524 c 2
 490 524 493 521 493 515 c 0
 493 485 495 461 492 458 c 2
EndSplineSet
EndChar

StartChar: J
Encoding: 74 74 32
GlifName: J_
Width: 547
Flags: HMW
HStem: -10 74<234 271 234 351> 672 46<306 314 306 475> 717 34<369 422 369 475>
VStem: 25 166<126 188 121 201> 306 169<150 172 172 717 672 672> 524 6<697 706>
LayerCount: 2
Back
Fore
SplineSet
306 672 m 1xdc
 306 672 307 679 298 683 c 2xdc
 298 683 273 692 259 697 c 1
 259 697 252 700 252 706 c 2xbc
 252 706 252 737 252 745 c 0
 252 751 254 754 263 754 c 2
 263 754 343 751 396 751 c 0xdc
 449 751 520 754 520 754 c 2
 529 754 532 751 532 745 c 0xbc
 532 737 532 706 532 706 c 2
 532 700 524 697 524 697 c 1
 510 692 483 683 483 683 c 2
 474 679 475 672 475 672 c 1
 467 672 321 672 306 672 c 1xdc
306 150 m 2xbc
 306 717 l 1
 475 717 l 1xdc
 475 172 l 2
 475 69 431 -10 272 -10 c 0
 93 -10 25 75 25 181 c 0
 25 224 60 249 114 249 c 0
 171 249 191 215 191 163 c 0
 191 79 216 65 253 65 c 0
 289 65 306 83 306 150 c 2xbc
EndSplineSet
EndChar

StartChar: a
Encoding: 97 97 33
GlifName: a
Width: 601
Flags: HMW
HStem: -10 86<134 267> 80 6 234 71 465 68<236 301>
VStem: 35 154<130 182 130 246> 53 145<400 400> 466 14<80 80> 508 55<157 157>
LayerCount: 2
Back
Fore
SplineSet
466 80 m 1x72
 500 80 505 122 508 157 c 0
 509 172 520 178 539 178 c 0
 554 178 565 170 565 157 c 0x73
 565 23 516 -12 423 -12 c 0
 371 -12 326 12 326 58 c 0
 326 104 466 80 466 80 c 1x72
252 76 m 0xba
 280 76 305 88 330 105 c 1
 330 231 l 1
 280 234 l 2
 205 238 188 204 188 159 c 0
 188 102 203 76 252 76 c 0xba
53 400 m 0x76
 52 499 128 534 285 534 c 0
 444 534 480 466 480 383 c 2
 480 71 l 1x72
 446 63 415 56 330 35 c 1
 284 10 237 -10 179 -10 c 0
 89 -10 35 47 35 164 c 0xba
 35 330 246 310 330 298 c 1
 330 347 l 2
 330 430 338 465 263 465 c 0
 209 465 198 449 197 400 c 0
 196 360 178 341 119 341 c 0
 76 341 53 357 53 400 c 0x76
EndSplineSet
EndChar

StartChar: period
Encoding: 46 46 34
GlifName: period
Width: 243
Flags: HMW
HStem: -10 185<98 148>
VStem: 31 185<57 107>
LayerCount: 2
Back
Fore
SplineSet
31 83 m 0
 31 133 73 174 123 174 c 0
 173 174 215 133 215 83 c 0
 215 33 173 -10 123 -10 c 0
 73 -10 31 33 31 83 c 0
EndSplineSet
EndChar

StartChar: N
Encoding: 78 78 35
GlifName: N_
Width: 772
Flags: HMW
HStem: 0 81<15 163 84 217> 21 59<84 163 84 163 83 163 83 163> 46 9<9 15> 672 57<615 695 615 695> 683 68<592 676 623 705> 697 55<12 15 551 551 750 750>
VStem: 83 79<21 603 21 653 21 659> 215 6 615 79 750 6<697 706>
LayerCount: 2
Back
Fore
SplineSet
84 81 m 1x93c0
 163 81 l 1
 163 81 161 74 170 70 c 2x53c0
 170 70 201 60 215 55 c 1
 215 55 223 52 223 46 c 2x33c0
 223 46 223 17 223 9 c 0
 223 3 221 0 212 0 c 2
 212 0 169 3 116 3 c 0x93c0
 63 3 21 0 21 0 c 2
 12 0 9 3 9 9 c 0x33c0
 9 17 9 46 9 46 c 2
 9 52 15 55 15 55 c 1x53c0
 29 60 76 70 76 70 c 2
 85 74 84 81 84 81 c 1x93c0
695 672 m 1
 615 672 l 1x93c0
 615 672 601 679 592 683 c 2
 592 683 565 692 551 697 c 1
 551 697 545 700 545 706 c 2x8bc0
 545 706 545 737 545 745 c 0
 545 751 546 754 555 754 c 2
 555 754 597 751 650 751 c 0x93c0
 703 751 746 754 746 754 c 2
 755 754 757 751 757 745 c 0
 757 737 757 706 757 706 c 2
 757 700 750 697 750 697 c 1x8bc0
 736 692 705 683 705 683 c 2
 696 679 695 672 695 672 c 1
255 750 m 2x47c0
 661 210 l 1
 617 134 l 1
 615 729 l 1
 695 729 l 1
 695 4 l 1
 685 1 668 0 654 0 c 0
 645 0 632 0 615 4 c 1x93c0
 163 603 l 1
 163 21 l 1
 83 21 l 1
 83 21 l 1
 83 653 l 2
 83 665 76 675 68 679 c 2
 12 697 l 1
 12 697 4 700 4 706 c 2
 4 745 l 2
 4 754 9 754 15 754 c 2
 15 754 86 750 132 750 c 0
 217 749 250 756 255 750 c 2x47c0
EndSplineSet
EndChar

StartChar: O
Encoding: 79 79 36
GlifName: O_
Width: 776
Flags: HMW
HStem: -12 83<329 445 329 502> 681 83<329 445>
VStem: 52 170<275 483 275 507> 552 170<275 483>
LayerCount: 2
Back
Fore
SplineSet
387 681 m 0
 270 681 222 587 222 379 c 0
 222 171 270 71 387 71 c 0
 504 71 552 171 552 379 c 0
 552 587 504 681 387 681 c 0
387 -12 m 0
 159 -12 52 121 52 378 c 0
 52 636 159 764 387 764 c 0
 615 764 723 636 723 378 c 0
 723 121 615 -12 387 -12 c 0
EndSplineSet
EndChar

StartChar: E
Encoding: 69 69 37
GlifName: E_
Width: 655
Flags: HMW
HStem: 0 68<46 50> 0 83<46 138> 45 37<95 138 138 265 95 138> 59 9<39 46> 348 83<219 459 225 457> 490 6 671 79<255 477>
VStem: 214 52<357 422 422 422> 404 83<369 422>
LayerCount: 2
Back
Fore
SplineSet
265 745 m 1x4f80
 265 45 l 1
 95 45 l 1x2f80
 95 745 l 1
 265 745 l 1x4f80
225 348 m 0
 215 348 214 351 214 357 c 2
 214 422 l 2
 215 428 217 431 225 431 c 0
 345 428 366 428 459 431 c 0
 469 431 468 428 468 422 c 2
 468 357 l 2
 467 351 465 348 457 348 c 0
 356 351 339 351 225 348 c 0
95 83 m 1x4f80
 138 83 l 2
 267 84 357 84 486 83 c 1
 486 83 495 80 499 86 c 2
 499 86 537 175 545 188 c 1
 545 188 549 197 555 194 c 2
 555 194 591 188 603 185 c 0
 609 184 611 181 608 172 c 0
 607 169 587 25 583 8 c 0
 580 -1 577 0 572 0 c 0
 515 0 488 3 338 3 c 0x4f80
 173 3 50 0 50 0 c 2
 44 0 39 0 39 9 c 0x1f80
 39 17 39 59 39 59 c 2
 39 65 46 68 46 68 c 1x8f80
 60 73 95 83 95 83 c 1x4f80
138 671 m 2
 95 671 l 1
 95 671 60 680 46 685 c 1
 46 685 39 688 39 694 c 2
 39 694 39 737 39 745 c 0
 39 754 44 754 50 754 c 2
 50 754 173 750 338 750 c 0
 488 750 506 754 563 754 c 0
 568 754 570 754 573 745 c 0
 577 728 596 584 597 581 c 0
 600 572 598 569 592 568 c 0
 580 565 545 559 545 559 c 2
 539 556 535 564 535 564 c 1
 527 577 489 666 489 666 c 2
 485 672 477 671 477 671 c 1
 445 671 420 671 399 670 c 0
 378 669 354 668 326 668 c 0
 271 669 203 671 138 671 c 2
404 350 m 1
 404 428 l 1
 404 428 411 428 415 437 c 2
 415 437 423 476 428 490 c 1
 428 490 431 497 437 497 c 2
 437 497 472 497 480 497 c 0
 486 497 489 495 489 486 c 2
 489 486 486 448 486 395 c 0
 486 342 489 294 489 294 c 2
 489 285 486 283 480 283 c 0
 472 283 437 283 437 283 c 2
 431 283 428 290 428 290 c 1
 423 304 415 342 415 342 c 2
 411 351 404 350 404 350 c 1
EndSplineSet
EndChar

StartChar: A
Encoding: 65 65 38
GlifName: A_
Width: 808
Flags: HMW
HStem: 0 81<37 134 94 134 134 179 94 227> 21 59<94 134 134 161 92 134> 41 40<541 707 541 541> 46 9<476 483> 723 37<372 424>
VStem: 30 208<9 13 13 48 6 50> 754 6
LayerCount: 2
Back
Fore
SplineSet
530 81 m 1x4a
 545 81 699 81 707 81 c 1
 707 81 705 74 714 70 c 2
 714 70 740 60 754 55 c 1
 754 55 762 52 762 46 c 2
 762 46 762 17 762 9 c 0
 762 3 759 0 750 0 c 2
 750 0 689 3 636 3 c 0
 583 3 487 0 487 0 c 2x2a
 478 0 476 3 476 9 c 0
 476 17 476 46 476 46 c 2
 476 52 483 55 483 55 c 1
 497 60 522 70 522 70 c 2
 531 74 530 81 530 81 c 1x4a
205 218 m 0x12
 195 217 194 221 194 227 c 2
 194 292 l 2x82
 195 298 198 300 206 299 c 0
 322 290 402 290 507 299 c 0
 517 300 517 298 517 292 c 2x12
 516 227 l 2
 515 221 513 217 505 218 c 0x22
 426 227 293 231 205 218 c 0x12
78 31 m 1x2a
 308 754 l 2
 311 759 363 760 402 760 c 0
 445 760 486 760 489 754 c 2
 718 41 l 1
 541 41 l 1
 322 733 l 1
 372 723 l 1
 161 21 l 1
 92 21 l 1
 78 31 l 1x2a
41 0 m 2x86
 32 0 30 3 30 9 c 0x86
 30 17 30 48 30 48 c 2
 30 52 31 52 37 55 c 0x26
 51 59 83 70 83 70 c 2
 87 71 90 75 94 81 c 1
 134 81 l 1x86
 179 81 l 1
 176 73 181 71 185 70 c 2
 185 70 216 59 230 55 c 0
 236 52 238 52 238 48 c 2x26
 238 48 238 17 238 9 c 0
 238 3 236 0 227 0 c 0
 218 0 41 0 41 0 c 2x86
EndSplineSet
EndChar

StartChar: M
Encoding: 77 77 39
GlifName: M_
Width: 992
Flags: HMW
HStem: 0 81<37 172 89 227> 21 59<89 172 89 172 88 172 89 172> 41 40<728 897 728 728> 46 9<31 37> 672 72<729 737 729 898> 697 55<17 21 948 948> 706 45
VStem: 89 83<21 613 81 81 613 619 21 639> 226 6 728 170<41 745 41 745> 946 6
LayerCount: 2
Back
Fore
SplineSet
89 81 m 1x89e0
 172 81 l 1
 172 81 172 74 181 70 c 2
 181 70 212 60 226 55 c 1
 226 55 234 52 234 46 c 2
 234 46 234 17 234 9 c 0x45e0
 234 3 231 0 222 0 c 2
 222 0 156 3 103 3 c 0
 50 3 43 0 43 0 c 2
 34 0 31 3 31 9 c 0
 31 17 31 46 31 46 c 2
 31 52 37 55 37 55 c 1
 51 60 81 70 81 70 c 2x29e0
 90 74 89 81 89 81 c 1x89e0
726 81 m 1
 741 81 889 81 897 81 c 1x29e0
 897 81 896 74 905 70 c 2
 905 70 932 60 946 55 c 1x89e0
 946 55 954 52 954 46 c 2
 954 46 954 17 954 9 c 0
 954 3 951 0 942 0 c 2
 942 0 870 3 817 3 c 0
 764 3 684 0 684 0 c 2
 675 0 674 3 674 9 c 0
 674 17 674 46 674 46 c 2
 674 52 680 55 680 55 c 1
 694 60 719 70 719 70 c 2
 728 74 726 81 726 81 c 1
729 672 m 1x19e0
 729 672 730 679 721 683 c 2
 721 683 712 692 698 697 c 1
 698 697 692 700 692 706 c 2
 692 706 689 737 692 745 c 0
 695 751 696 754 702 754 c 2
 702 754 766 751 819 751 c 0x29e0
 872 751 945 754 945 754 c 2
 954 754 955 751 955 745 c 0x19e0
 955 737 955 706 955 706 c 2
 955 700 948 697 948 697 c 1
 934 692 907 683 907 683 c 2x89e0
 898 679 899 672 899 672 c 1
 891 672 744 672 729 672 c 1x19e0
728 745 m 1
 898 745 l 1
 898 41 l 1
 728 41 l 1x89e0
 728 745 l 1
760 708 m 1x19e0
 523 15 l 2
 520 10 485 8 468 8 c 0
 445 8 398 10 395 15 c 2
 172 619 l 1
 172 21 l 1
 88 21 l 1
 89 21 l 1x89e0
 89 613 l 2
 89 665 82 675 74 679 c 2x83e0
 17 697 l 1
 17 697 10 700 10 706 c 2
 10 745 l 2
 10 754 15 754 21 754 c 2
 21 754 135 750 181 750 c 0x89e0
 266 749 314 758 317 750 c 2
 526 133 l 1
 475 133 l 1x29e0
 692 745 l 1
 760 708 l 1x19e0
EndSplineSet
EndChar

StartChar: P
Encoding: 80 80 40
GlifName: P_
Width: 643
Flags: HMW
HStem: 0 41 0 81<46 244 94 293> 46 9<40 46> 70 12<86 244 94 252> 284 65<299 360 298 408> 685 65 745 9
VStem: 37 55<705 745 741 745 41 748> 244 55<41 46 6 745> 439 161<523 523 523 591>
LayerCount: 2
Back
Fore
SplineSet
94 81 m 1x4bc0
 244 81 l 1
 244 81 243 74 252 70 c 2x9bc0
 252 70 279 60 293 55 c 1
 293 55 299 52 299 46 c 2x2bc0
 299 46 299 17 299 9 c 0
 299 3 298 0 289 0 c 2
 289 0 223 3 170 3 c 0x8bc0
 117 3 52 0 52 0 c 2
 43 0 40 3 40 9 c 0x2bc0
 40 17 40 46 40 46 c 2
 40 52 46 55 46 55 c 1x9bc0
 60 60 86 70 86 70 c 2
 95 74 94 81 94 81 c 1x4bc0
244 745 m 5
 244 41 l 5x8bc0
 94 41 l 5
 94 745 l 5
 246 745 l 5x9bc0
 244 745 l 5
94 681 m 1x8dc0
 94 681 59 690 45 695 c 1
 45 695 37 699 37 705 c 2x8dc0
 37 705 37 737 37 745 c 0
 37 754 43 754 49 754 c 2x8bc0
 49 754 93 750 139 750 c 0x8dc0
 231 750 261 754 316 754 c 0x8bc0
 515 754 600 695 600 516 c 0
 600 393 501 284 316 284 c 0
 284 284 253 290 228 302 c 1
 244 365 l 1
 257 353 285 348 310 348 c 0
 411 348 439 415 439 523 c 2
 439 523 l 2
 439 660 409 685 310 685 c 0
 252 685 188 685 94 681 c 1x8dc0
EndSplineSet
EndChar

StartChar: F
Encoding: 70 70 41
GlifName: F_
Width: 625
Flags: HMW
HStem: 0 45<59 277 107 321> 0 81<59 277 107 321> 46 9<53 59> 70 12<99 277 107 285> 361 83<231 466 237 465> 505 6 671 79<252 489>
VStem: 52 55<694 745 741 745 45 748> 277 52<45 46 6 745> 412 83<382 436 382 443 382 443>
LayerCount: 2
Back
Fore
SplineSet
277 745 m 5x8fc0
 277 45 l 5
 107 45 l 5
 107 745 l 5
 107 745 273 745 267 745 c 6
 277 745 l 5x8fc0
236 361 m 0
 226 361 226 364 226 370 c 2
 226 435 l 2
 227 441 229 444 237 444 c 0
 357 441 373 441 466 444 c 0
 476 444 476 441 476 435 c 2
 475 370 l 2
 474 364 473 361 465 361 c 0
 364 364 350 364 236 361 c 0
150 671 m 2
 107 671 l 1
 107 671 72 680 58 685 c 1
 58 685 52 688 52 694 c 2x8fc0
 52 694 52 737 52 745 c 0
 52 754 56 754 62 754 c 2x2fc0
 62 754 169 750 334 750 c 0
 484 750 517 754 574 754 c 0x9fc0
 579 754 582 754 585 745 c 0
 589 728 609 584 610 581 c 0x4fc0
 613 572 610 569 604 568 c 0
 592 565 557 559 557 559 c 2
 551 556 547 564 547 564 c 1
 539 577 501 666 501 666 c 2
 497 672 489 671 489 671 c 1
 424 671 376 668 330 668 c 0
 285 669 221 671 150 671 c 2
412 363 m 1x2fc0
 412 443 l 1
 412 443 418 443 422 452 c 2
 422 452 431 491 436 505 c 1
 436 505 439 511 445 511 c 2
 445 511 478 511 486 511 c 0
 492 511 495 510 495 501 c 2
 495 501 494 462 494 409 c 0
 494 356 495 307 495 307 c 2
 495 298 492 295 486 295 c 0
 478 295 445 295 445 295 c 2
 439 295 436 303 436 303 c 1x9fc0
 431 317 422 355 422 355 c 2
 418 364 412 363 412 363 c 1x2fc0
107 81 m 1
 277 81 l 1
 277 81 276 74 285 70 c 2
 285 70 307 60 321 55 c 1
 321 55 328 52 328 46 c 2
 328 46 328 17 328 9 c 0
 328 3 326 0 317 0 c 2
 317 0 241 3 188 3 c 0
 135 3 65 0 65 0 c 2
 56 0 53 3 53 9 c 0
 53 17 53 46 53 46 c 2
 53 52 59 55 59 55 c 1
 73 60 99 70 99 70 c 2
 108 74 107 81 107 81 c 1
EndSplineSet
EndChar

StartChar: B
Encoding: 66 66 42
GlifName: B_
Width: 704
Flags: HMW
HStem: 0 83<297 383 289 452> 9 74<95 383 254 383> 63 9<40 46> 372 61<237 320 320 326 237 254> 672 36<95 361> 692 59
VStem: 237 28<372 432 432 432> 459 163<515 597> 488 163<206 206 206 253>
LayerCount: 2
Back
Fore
SplineSet
266 9 m 1x5a80
 254 9 l 1
 95 9 l 1
 95 708 l 1
 266 708 l 1
 266 9 l 1x5a80
95 86 m 1x9a80
 189 82 259 83 317 83 c 0
 449 83 488 138 488 206 c 2
 488 206 l 2
 488 298 450 352 317 352 c 0
 292 352 254 352 236 352 c 1
 236 419 l 1
 261 431 292 432 324 432 c 0
 536 432 652 367 652 219 c 0
 652 78 579 0 324 0 c 0
 269 0 233 3 141 3 c 0x9a80
 95 3 52 0 52 0 c 2
 46 0 40 0 40 9 c 0
 40 17 40 63 40 63 c 2
 40 69 46 72 46 72 c 1x3a80
 60 77 95 86 95 86 c 1x9a80
98 668 m 1x9b
 98 668 63 678 49 683 c 1
 49 683 43 686 43 692 c 2x9680
 43 692 43 737 43 745 c 0
 43 754 47 754 53 754 c 2
 53 754 97 751 143 751 c 0
 235 751 271 754 326 754 c 0
 541 754 622 661 622 575 c 0
 622 419 535 372 326 372 c 0
 294 372 271 372 237 372 c 1
 237 432 l 1
 269 432 295 432 320 432 c 0
 414 432 459 482 459 547 c 0
 459 648 403 672 320 672 c 0
 262 672 192 672 98 668 c 1x9b
EndSplineSet
EndChar

StartChar: L
Encoding: 76 76 43
GlifName: L_
Width: 627
Flags: HMW
HStem: 0 52<49 267> 0 84 59 9<41 48> 743 8<150 203 150 268>
VStem: 43 54<706 743 52 745 741 743 52 747> 267 46<702 706 706 743 743 743>
LayerCount: 2
Back
Fore
SplineSet
267 743 m 5x5c
 267 52 l 5x9c
 97 52 l 5
 97 743 l 5
 268 743 l 5x5c
 267 743 l 5x5c
97 83 m 1
 139 84 l 2
 196 84 348 82 483 81 c 1
 483 81 491 80 495 86 c 2
 495 86 512 163 524 203 c 1
 524 203 525 209 534 208 c 2
 534 208 570 202 582 199 c 0
 588 198 589 195 588 186 c 0
 585 145 576 26 573 8 c 0
 572 0 568 0 563 0 c 0
 506 0 462 3 338 3 c 0x5c
 173 3 52 0 52 0 c 2
 46 0 41 0 41 9 c 0
 41 17 41 59 41 59 c 2
 41 65 48 68 48 68 c 1x3c
 62 73 97 83 97 83 c 1
97 672 m 1
 97 672 98 679 89 683 c 2
 89 683 64 692 50 697 c 1
 50 697 43 700 43 706 c 2
 43 706 43 737 43 745 c 0
 43 751 45 754 54 754 c 2
 54 754 122 751 175 751 c 0
 228 751 308 754 308 754 c 2
 317 754 314 751 314 745 c 0
 314 737 314 706 314 706 c 2
 314 700 312 697 312 697 c 1
 298 692 271 683 271 683 c 2
 262 679 263 672 263 672 c 1
 255 672 112 672 97 672 c 1
EndSplineSet
EndChar

StartChar: K
Encoding: 75 75 44
GlifName: K_
Width: 760
Flags: HMW
HStem: -8 134<653 655> 677 74
VStem: 83 8<70 70 683 683> 255 168<507 508 507 745 507 672> 699 55<168 194 116 195> 705 6<699 708>
LayerCount: 2
Back
Fore
SplineSet
516 674 m 5xf4
 531 674 620 664 634 674 c 5
 634 674 680 695 705 699 c 5
 705 699 711 702 711 708 c 6
 711 708 711 738 711 746 c 4
 711 752 708 755 699 755 c 6
 699 755 619 754 566 754 c 4
 513 754 474 755 474 755 c 6
 465 755 462 752 462 746 c 4x98
 462 738 462 708 462 708 c 6
 462 702 468 699 468 699 c 5
 482 694 508 685 508 685 c 6
 522 679 516 674 516 674 c 5xf4
295 423 m 0
 298 420 433 178 461 125 c 0
 519 19 564 -8 612 -8 c 0xf4
 702 -8 756 44 756 187 c 0
 756 200 748 208 726 208 c 0
 705 208 699 202 699 187 c 0
 699 148 686 126 655 126 c 0
 649 126 641 127 636 132 c 0
 631 137 621 150 608 175 c 2
 425 508 l 2
 425 505 292 426 295 423 c 0
90 81 m 1
 90 81 92 74 83 70 c 2
 83 70 57 60 43 55 c 1
 43 55 36 52 36 46 c 2
 36 46 36 17 36 9 c 0
 36 3 37 0 46 0 c 2
 46 0 122 3 175 3 c 0
 228 3 301 0 301 0 c 2
 310 0 312 3 312 9 c 0
 312 17 312 46 312 46 c 2
 312 52 305 55 305 55 c 1
 291 60 265 70 265 70 c 2
 256 74 255 81 255 81 c 1
 247 81 105 81 90 81 c 1
90 672 m 1
 105 672 247 672 255 672 c 1
 255 672 256 679 265 683 c 2
 265 683 291 692 305 697 c 1
 305 697 312 700 312 706 c 2
 312 706 312 737 312 745 c 0
 312 751 310 754 301 754 c 2
 301 754 228 751 175 751 c 0
 122 751 46 754 46 754 c 2
 37 754 36 751 36 745 c 0
 36 737 36 706 36 706 c 2
 36 700 43 697 43 697 c 1
 57 692 83 683 83 683 c 2
 92 679 90 672 90 672 c 1
255 745 m 1
 258 745 l 1
 90 745 l 1
 90 41 l 1
 255 41 l 1
 255 745 l 1
222 261 m 1
 641 680 l 1
 519 677 l 1
 222 372 l 1
 222 261 l 1
EndSplineSet
EndChar

StartChar: R
Encoding: 82 82 45
GlifName: R_
Width: 685
Flags: HMW
HStem: -8 134<590.517 593.517> 0 41<20.5172 213.517 63.5172 213.517 63.5172 253.517> 0 81<20.5172 213.517 63.5172 213.517 63.5172 253.517> 46 9<14.5172 20.5172> 70 12<55.5172 213.517 63.5172 220.517> 324 28<370.517 384.517 370.517 406.517> 674 77 745 9
VStem: 8.51724 55<692 745 741 745 41 748> 213.517 52<41 46 6 745> 433.517 150<484 579> 637.517 55<168 194 116 195>
LayerCount: 2
Back
Fore
SplineSet
63.5166015625 81 m 1x45f0
 213.516601562 81 l 1
 213.516601562 81 211.516601562 74 220.516601562 70 c 2
 220.516601562 70 243.516601562 60 257.516601562 55 c 1
 257.516601562 55 264.516601562 52 264.516601562 46 c 2
 264.516601562 46 264.516601562 17 264.516601562 9 c 0
 264.516601562 3 262.516601562 0 253.516601562 0 c 0
 247.516601562 0 30.5166015625 4 24.5166015625 0 c 1x46f0
 15.5166015625 0 14.5166015625 3 14.5166015625 9 c 0
 14.5166015625 17 14.5166015625 46 14.5166015625 46 c 2
 14.5166015625 52 20.5166015625 55 20.5166015625 55 c 1
 34.5166015625 60 55.5166015625 70 55.5166015625 70 c 2
 64.5166015625 74 63.5166015625 81 63.5166015625 81 c 1x45f0
213.516601562 745 m 5
 213.516601562 41 l 5x45f0
 63.5166015625 41 l 5x46f0
 63.5166015625 745 l 5x45f0
 215.516601562 745 l 5
 213.516601562 745 l 5
482.516601562 286 m 2x46f0
 546.516601562 175 l 2
 559.516601562 150 567.516601562 137 573.516601562 132 c 0x46f0
 579.516601562 128 587.516601562 126 593.516601562 126 c 0
 624.516601562 126 637.516601562 148 637.516601562 187 c 0x16f0
 637.516601562 202 643.516601562 208 664.516601562 208 c 0
 686.516601562 208 693.516601562 200 693.516601562 187 c 0x4ef0
 693.516601562 44 638.516601562 -8 548.516601562 -8 c 0
 500.516601562 -8 457.516601562 19 399.516601562 125 c 2x26f0
 277.516601562 342 l 1
 303.516601562 354 357.516601562 352 384.516601562 352 c 0
 432.516601562 349 457.516601562 330 482.516601562 286 c 2x46f0
64.5166015625 668 m 1x16f0
 64.5166015625 668 29.5166015625 678 15.5166015625 683 c 1
 15.5166015625 683 8.5166015625 686 8.5166015625 692 c 2
 8.5166015625 692 8.5166015625 737 8.5166015625 745 c 0
 8.5166015625 754 13.5166015625 754 19.5166015625 754 c 2
 19.5166015625 754 64.5166015625 750 110.516601562 750 c 0
 202.516601562 750 264.516601562 754 319.516601562 754 c 0x86f0
 518.516601562 754 583.516601562 687 583.516601562 535 c 0
 583.516601562 403 494.516601562 324 319.516601562 324 c 0
 276.516601562 324 225.516601562 329 202.516601562 332 c 1
 202.516601562 401 l 1
 245.516601562 398 280.516601562 401 319.516601562 406 c 0
 390.516601562 416 433.516601562 438 433.516601562 530 c 0x4ef0
 433.516601562 629 395.516601562 674 300.516601562 674 c 0
 242.516601562 674 158.516601562 672 64.5166015625 668 c 1x16f0
EndSplineSet
EndChar

StartChar: T
Encoding: 84 84 46
GlifName: T_
Width: 701
Flags: HMW
HStem: 0 41 0 81<196 413 243 461> 46 9<188 196> 70 12<235 413 243 421> 737 15<265 403 265 415 265 415>
VStem: 235 8<70 70> 412 55 603 58
LayerCount: 2
Back
Fore
SplineSet
243 81 m 1x4e
 413 81 l 1
 413 81 412 74 421 70 c 2x9e
 421 70 445 60 459 55 c 1
 459 55 467 52 467 46 c 2x2e
 467 46 467 17 467 9 c 0
 467 3 464 0 455 0 c 2
 455 0 385 3 332 3 c 0x8e
 279 3 200 0 200 0 c 2
 191 0 188 3 188 9 c 0x2e
 188 17 188 46 188 46 c 2
 188 52 196 55 196 55 c 1x9e
 210 60 235 70 235 70 c 2
 244 74 243 81 243 81 c 1x4e
410 737 m 5
 413 41 l 5x8e
 243 41 l 5
 243 737 l 5
 415 737 l 5x9e
 410 737 l 5
328 754 m 0
 478 754 577 759 634 759 c 0
 639 759 642 760 645 751 c 0
 649 734 660 563 661 560 c 0
 664 551 660 548 654 547 c 0
 642 544 603 538 603 538 c 2
 597 535 592 543 592 543 c 1
 577 598 556 674 556 674 c 2
 552 680 545 679 545 679 c 1x8f
 400 670 255 669 108 677 c 1
 108 677 99 680 95 674 c 2
 95 674 74 594 59 542 c 1
 59 542 56 534 50 537 c 2
 50 537 9 543 -3 546 c 0
 -9 547 -11 550 -8 559 c 0
 -7 562 2 733 6 750 c 0
 9 759 13 757 18 757 c 0
 75 757 200 754 328 754 c 0
EndSplineSet
EndChar

StartChar: Q
Encoding: 81 81 47
GlifName: Q_
Width: 781
Flags: HMW
HStem: -228 116<476 552 444 578> -15 58 -12 83<320 436 320 493> 681 83<320 436>
VStem: 0 175<-84 -37> 43 170<275 483 275 507> 543 170<275 483>
LayerCount: 2
Back
Fore
SplineSet
175 -59 m 0xda
 175 -107 139 -142 86 -142 c 0
 40 -142 0 -107 0 -59 c 0
 0 -13 46 21 81 21 c 0
 129 21 175 -6 175 -59 c 0xda
828 -116 m 1
 720 -202 638 -228 517 -228 c 0
 432 -228 345 -206 212 -43 c 0
 180 -4 110 -4 61 -61 c 0
 46 -79 -1 -61 9 -30 c 1
 9 -30 30 43 175 43 c 0
 309 43 382 -114 506 -114 c 0
 599 -114 683 -58 726 -5 c 0
 763 45 802 34 834 -6 c 0
 873 -55 867 -79 828 -116 c 1
378 681 m 0xb6
 261 681 213 587 213 379 c 0
 213 171 261 71 378 71 c 0
 495 71 543 171 543 379 c 0
 543 587 495 681 378 681 c 0xb6
378 -12 m 0
 150 -12 43 121 43 378 c 0
 43 636 150 764 378 764 c 0
 606 764 714 636 714 378 c 0
 714 121 606 -12 378 -12 c 0
EndSplineSet
EndChar

StartChar: C
Encoding: 67 67 48
GlifName: C_
Width: 743
Flags: HMW
HStem: -10 81<335 466 335 480> 681 83<317 432> 717 6
VStem: 37 170<274 483 274 507> 615 68<581 674> 630 55<194 257 178 258>
LayerCount: 2
Back
Fore
SplineSet
381 -10 m 0xd4
 138 -10 37 121 37 378 c 0
 37 636 144 764 372 764 c 0
 500 764 569 718 615 674 c 1xd8
 615 674 623 703 628 717 c 1
 628 717 631 725 637 725 c 2xb4
 637 725 664 725 677 725 c 0
 682 725 686 723 685 714 c 2xb8
 685 714 684 667 684 612 c 0
 684 550 686 490 686 490 c 2
 686 481 683 478 677 477 c 0
 668 476 619 477 619 477 c 2
 611 477 610 485 610 485 c 1
 606 515 603 535 603 535 c 1xd8
 573 643 490 681 373 681 c 0
 263 681 206 587 206 379 c 0
 206 169 276 71 396 71 c 0
 535 71 630 136 630 250 c 0
 630 265 636 271 657 271 c 0
 679 271 686 263 686 250 c 0
 686 107 578 -10 381 -10 c 0xd4
EndSplineSet
EndChar

StartChar: D
Encoding: 68 68 49
GlifName: D_
Width: 776
Flags: HMW
HStem: 61 21 676 28<108 417> 695 58
VStem: 108 170<61 705 86 86 672 672 61 705> 551 173<286 511>
LayerCount: 2
Back
Fore
SplineSet
108 61 m 1xd8
 108 705 l 1
 279 705 l 1
 279 61 l 1
 108 61 l 1xd8
551 395 m 0
 551 627 498 676 335 676 c 0
 277 676 202 676 108 672 c 1xd8
 108 672 59 681 45 686 c 1
 45 686 37 689 37 695 c 2xb8
 37 695 37 739 37 747 c 0
 37 756 43 756 49 756 c 2
 49 756 108 754 154 754 c 0
 246 754 286 756 341 756 c 0
 624 756 724 643 724 397 c 0
 724 175 631 3 341 3 c 0
 286 3 246 5 154 5 c 0
 108 5 49 3 49 3 c 2
 43 3 37 3 37 12 c 0
 37 20 37 63 37 63 c 2
 37 69 45 72 45 72 c 1
 59 77 108 86 108 86 c 1
 202 82 277 83 335 83 c 0
 504 83 551 143 551 395 c 0
EndSplineSet
EndChar

StartChar: G
Encoding: 71 71 50
GlifName: G_
Width: 791
Flags: HMW
HStem: -10 80<341 414 341 446> 0 21G<627 631 631 693> 268 75<528 653 600 708> 684 80<341 443 255 453> 717 6
VStem: 45 178<276 486> 535 164<116 258 253 258> 622 68<581 672> 745 6<283 292>
LayerCount: 2
Back
Fore
SplineSet
530 105 m 0x9680
 533 108 535 110 535 116 c 0x9680
 535 190 535 246 535 258 c 1
 535 258 537 264 528 268 c 2
 528 268 500 278 486 283 c 1
 486 283 479 286 479 292 c 2
 479 337 l 2
 479 343 481 346 490 346 c 2
 490 346 573 345 626 345 c 0
 679 345 741 346 741 346 c 2
 750 346 751 343 751 337 c 2
 751 292 l 2
 751 286 745 283 745 283 c 1
 731 278 708 268 708 268 c 2
 699 264 699 258 699 258 c 1
 699 95 l 2
 699 49 702 12 702 12 c 2
 702 3 699 0 693 0 c 2
 631 0 l 2
 625 0 622 6 622 6 c 1x7680
 612 46 l 1x9680
 567 25 502 -10 390 -10 c 0
 142 -10 45 157 45 394 c 0
 45 579 120 764 390 764 c 0
 495 764 576 716 622 672 c 1x9580
 622 672 630 703 635 717 c 1
 635 717 639 724 645 724 c 2
 645 724 671 724 684 724 c 0
 689 724 693 723 692 714 c 2x4d80
 692 714 692 667 692 612 c 0
 692 550 694 489 694 489 c 2
 694 480 691 478 685 477 c 0
 676 476 626 477 626 477 c 2
 618 477 617 484 617 484 c 1
 613 514 609 534 609 534 c 1x5580
 583 645 504 684 403 684 c 0
 279 684 223 582 223 394 c 0
 223 157 291 70 388 70 c 0
 440 70 486 79 530 105 c 0x9680
EndSplineSet
EndChar

StartChar: V
Encoding: 86 86 51
GlifName: V_
Width: 776
Flags: HMW
HStem: 0 21G<401 413> 672 79<55 172 119 172 119 246 627 680> 683 55<26 46>
VStem: 1 25<739 739 739 745 739 747> 295 6<697 706> 760 6<697 706>
LayerCount: 2
Back
Fore
SplineSet
699 672 m 1xdc
 610 672 l 1
 610 672 612 679 603 683 c 2
 603 683 575 692 561 697 c 1
 561 697 554 700 554 706 c 2
 554 706 554 737 554 745 c 0
 554 751 556 754 565 754 c 2
 565 754 600 751 653 751 c 0
 706 751 756 754 756 754 c 2
 765 754 766 751 766 745 c 0
 766 737 766 706 766 706 c 2
 766 700 760 697 760 697 c 1
 746 692 708 683 708 683 c 2
 699 679 699 672 699 672 c 1xdc
370 4 m 2
 26 739 l 1
 111 738 220 743 223 735 c 2
 465 199 l 1
 434 199 l 1
 628 729 l 1
 719 729 l 1
 445 4 l 1
 439 0 418 0 406 0 c 0
 394 0 375 -1 370 4 c 2
55 672 m 1
 55 672 55 679 46 683 c 2xbc
 46 683 22 692 8 697 c 1
 8 697 1 700 1 706 c 2
 1 706 1 737 1 745 c 0
 1 751 3 754 12 754 c 2
 12 754 92 751 145 751 c 0
 198 751 292 754 292 754 c 2
 301 754 302 751 302 745 c 0
 302 737 302 706 302 706 c 2
 302 700 295 697 295 697 c 1
 281 692 254 683 254 683 c 2
 245 679 246 672 246 672 c 1
 238 672 70 672 55 672 c 1
EndSplineSet
EndChar

StartChar: W
Encoding: 87 87 52
GlifName: W_
Width: 1045
Flags: HMW
HStem: 0 21G<321 342 724 745> 672 79<74 126 74 231 55 126 901 937 937 954>
VStem: 3 28<739 739 739 745 739 747> 280 6<697 706> 686 12<697 706> 1028 6<697 706>
LayerCount: 2
Back
Fore
SplineSet
283 6 m 2
 30 739 l 1
 115 738 209 743 212 735 c 2
 406 164 l 1
 350 164 l 1
 495 729 l 1
 586 729 l 1
 388 6 l 2
 385 1 350 0 333 0 c 0
 310 0 286 1 283 6 c 2
231 672 m 1
 55 672 l 1
 55 672 57 679 48 683 c 2
 48 683 23 692 9 697 c 1
 9 697 3 700 3 706 c 2
 3 706 3 737 3 745 c 0
 3 751 4 754 13 754 c 2
 13 754 48 751 101 751 c 0
 154 751 276 754 276 754 c 2
 285 754 286 751 286 745 c 0
 286 737 286 706 286 706 c 2
 286 700 280 697 280 697 c 1
 266 692 239 683 239 683 c 2
 230 679 231 672 231 672 c 1
973 672 m 1
 937 672 l 1
 885 672 l 1
 885 672 886 679 877 683 c 2
 877 683 850 692 836 697 c 1
 836 697 828 700 828 706 c 2
 828 706 828 737 828 745 c 0
 828 751 831 754 840 754 c 2
 840 754 873 751 926 751 c 0
 979 751 1025 754 1025 754 c 2
 1034 754 1036 751 1036 745 c 0
 1036 737 1036 706 1036 706 c 2
 1036 700 1028 697 1028 697 c 1
 1014 692 983 683 983 683 c 2
 975 680 973 672 973 672 c 1
637 672 m 1
 809 164 l 1
 754 164 l 1
 899 729 l 1
 988 729 l 1
 791 6 l 2
 788 1 752 0 735 0 c 0
 712 0 688 1 685 6 c 2
 458 663 l 1
 458 663 455 682 436 688 c 2
 436 688 415 692 401 697 c 1
 401 697 394 700 394 706 c 2
 394 706 394 737 394 745 c 0
 394 751 396 754 405 754 c 2
 405 754 441 751 494 751 c 0
 547 751 686 754 686 754 c 2
 695 754 697 751 697 745 c 0
 697 737 697 706 697 706 c 2
 697 700 686 697 686 697 c 1
 672 692 645 683 645 683 c 2
 636 679 637 672 637 672 c 1
EndSplineSet
EndChar

StartChar: S
Encoding: 83 83 55
GlifName: S_
Width: 686
Flags: HMW
HStem: -15 83<319 378 293 437> 232 6<107 115> 681 83<306 360 231 386>
VStem: 43 83<30 183 183 183 183 223 183 227> 59 172<566 623> 105 10<22 30> 107 8<232 239> 466 170<135 219> 542 83<565 565>
LayerCount: 2
Back
Fore
SplineSet
128 66 m 1xf080
 128 66 119 43 114 30 c 1
 114 30 111 23 105 22 c 2xe480
 105 22 60 20 52 21 c 0
 46 20 42 21 43 30 c 2
 43 30 43 90 43 142 c 0
 43 195 43 223 43 223 c 2xf080
 43 232 46 236 52 237 c 0xe280
 60 238 107 239 107 239 c 2
 115 239 115 232 115 232 c 1
 121 204 124 183 124 183 c 1
 149 95 243 67 345 67 c 0
 413 67 466 103 466 168 c 0xf1
 466 270 311 293 227 345 c 0
 110 416 59 479 59 565 c 0
 59 681 154 764 308 764 c 0
 413 764 462 740 539 683 c 1
 539 683 549 702 554 717 c 1
 554 717 557 725 563 725 c 2
 563 725 609 728 617 728 c 0
 622 728 626 726 625 717 c 2
 625 717 625 657 625 605 c 0
 625 551 625 523 625 523 c 2
 625 514 621 511 615 511 c 0
 607 510 559 508 559 508 c 2
 551 508 550 515 550 515 c 1
 545 543 542 565 542 565 c 2xe880
 534 630 428 681 345 681 c 0
 269 681 230 655 230 597 c 0
 230 532 289 501 406 446 c 0
 578 365 636 311 636 203 c 0xe9
 636 52 523 -15 351 -15 c 0
 286 -15 195 5 128 66 c 1xf080
EndSplineSet
EndChar

StartChar: U
Encoding: 85 85 56
GlifName: U_
Width: 738
Flags: HMW
HStem: -15 80<352 471 352 489> 683 68<65 183 130 252>
VStem: 74 170<288 343 343 674 674 674> 292 6<697 706> 579 84<354 674 674 674> 712 6<697 706>
LayerCount: 2
Back
Fore
SplineSet
663 674 m 2
 663 674 l 1
 663 330 l 2
 663 124 607 -15 372 -15 c 0
 142 -15 75 93 74 288 c 2
 74 674 l 2
 73 673 74 679 65 683 c 2
 65 683 39 692 25 697 c 1
 25 697 18 700 18 706 c 2
 18 745 l 2
 18 751 19 754 28 754 c 2
 28 754 104 751 157 751 c 0
 210 751 288 754 288 754 c 2
 297 754 299 751 299 745 c 2
 299 706 l 2
 299 700 292 697 292 697 c 1
 278 692 252 683 252 683 c 2
 246 680 243 677 243 674 c 2
 243 343 l 2
 243 139 295 65 412 65 c 0
 533 65 579 123 579 354 c 2
 579 674 l 2
 579 678 577 680 572 683 c 2
 572 683 537 692 523 697 c 1
 523 697 516 700 516 706 c 2
 516 745 l 2
 516 751 517 754 526 754 c 2
 526 754 568 751 621 751 c 0
 674 751 708 754 708 754 c 2
 717 754 719 751 719 745 c 2
 719 706 l 2
 719 700 712 697 712 697 c 1
 698 692 671 683 671 683 c 2
 665 680 663 677 663 674 c 2
EndSplineSet
EndChar

StartChar: X
Encoding: 88 88 57
GlifName: X_
Width: 802
Flags: HMW
HStem: -1 83 0 55<12 12 12 15> 0 70 0 81<110 258> 46 9<4 12> 50 9<446 453> 70 12<110 208> 671 80 680 72<560 640 587 640 587 667 568 640 587 670>
VStem: 4 70 257 6 325 6<693 702> 559 9 719 6<694 703> 760 6
LayerCount: 2
Back
Fore
SplineSet
659 27 m 0x817e
 654 23 531 37 526 43 c 2
 74 679 l 1
 265 698 l 1x00c8
 708 83 l 2
 709 80 686 42 659 27 c 0x817e
83 668 m 2
 83 668 76 675 71 679 c 2x0220
 71 679 40 688 26 693 c 1
 26 693 19 696 19 702 c 2x0820
 19 702 19 737 19 745 c 0
 19 751 21 754 30 754 c 2
 30 754 86 751 139 751 c 0x1060
 192 751 321 754 321 754 c 2
 330 754 332 751 332 745 c 0x0840
 332 737 332 702 332 702 c 2
 332 696 325 693 325 693 c 1x4040
 311 688 292 683 292 683 c 2x2040
 280 678 286 671 286 671 c 1
 278 671 86 668 83 668 c 2
84 6 m 4
 59 21 86 49 86 52 c 6
 568 680 l 5
 667 680 l 5x008c
 157 6 l 6
 152 0 89 2 84 6 c 4
559 668 m 2
 559 668 568 677 560 680 c 2
 560 680 524 689 510 694 c 1x0208
 510 694 503 697 503 703 c 2
 503 703 503 737 503 745 c 0
 503 751 505 754 514 754 c 2
 514 754 561 752 614 752 c 0x817e
 667 752 715 754 715 754 c 2
 724 754 726 751 726 745 c 0
 726 737 726 703 726 703 c 2
 726 697 719 694 719 694 c 1
 705 689 670 680 670 680 c 2
 664 676 658 668 658 668 c 1
 650 668 562 668 559 668 c 2
708 84 m 1
 708 84 711 80 721 74 c 2
 721 74 746 64 760 59 c 1
 760 59 766 56 766 50 c 2
 766 50 766 16 766 8 c 0
 766 2 765 -1 756 -1 c 2
 756 -1 619 1 566 1 c 0x817e
 513 1 457 -1 457 -1 c 2x8002
 448 -1 446 2 446 8 c 0
 446 16 446 50 446 50 c 2x0402
 446 56 453 59 453 59 c 1
 467 64 489 70 489 70 c 2
 501 75 495 81 495 81 c 1x8002
 503 81 674 79 708 84 c 1
200 81 m 1
 200 81 196 76 208 70 c 2
 208 70 243 60 257 55 c 1
 257 55 265 52 265 46 c 2
 265 46 265 17 265 9 c 0
 265 3 262 0 253 0 c 2
 253 0 198 3 145 3 c 0
 92 3 15 0 15 0 c 2
 6 0 4 3 4 9 c 0
 4 17 4 46 4 46 c 2
 4 52 12 55 12 55 c 1
 26 60 95 70 95 70 c 2
 104 74 110 81 110 81 c 1
 118 81 185 81 200 81 c 1
EndSplineSet
EndChar

StartChar: Y
Encoding: 89 89 58
GlifName: Y_
Width: 713
Flags: HMW
HStem: 0 81<249 467 298 516> 41 40<298 467 298 467> 46 9<242 249> 231 106<378 399> 672 21<569 650 559 661> 672 68<44 92 44 273> 683 68
VStem: 30 15<741 741 741 745 741 747> 298 170 319 6<697 706> 516 6 711 6<697 706>
LayerCount: 2
Back
Fore
SplineSet
650 672 m 1x99b0
 559 672 l 1
 559 672 561 679 552 683 c 2
 552 683 520 692 506 697 c 1
 506 697 499 700 499 706 c 2
 499 706 499 737 499 745 c 0
 499 751 501 754 510 754 c 2x55b0
 510 754 555 751 608 751 c 0
 661 751 707 754 707 754 c 2
 716 754 719 751 719 745 c 0
 719 737 719 706 719 706 c 2
 719 700 711 697 711 697 c 1
 697 692 661 683 661 683 c 2
 655 680 650 672 650 672 c 1x99b0
339 237 m 2x99b0
 44 741 l 1
 129 740 237 743 241 737 c 2
 461 347 l 1x99b0
 393 347 l 1
 569 692 l 1x93b0
 661 692 l 1
 435 237 l 2
 432 232 407 231 390 231 c 0
 367 231 342 232 339 237 c 2x99b0
84 672 m 1x93b0
 84 672 80 679 71 683 c 2
 71 683 50 692 36 697 c 1x9970
 36 697 30 700 30 706 c 2
 30 706 30 737 30 745 c 0
 30 751 31 754 40 754 c 2
 40 754 120 751 173 751 c 0x9370
 226 751 313 754 313 754 c 2
 322 754 325 751 325 745 c 0
 325 737 325 706 325 706 c 2
 325 700 319 697 319 697 c 1
 305 692 282 683 282 683 c 2x9970
 273 679 273 672 273 672 c 1
 265 672 99 672 84 672 c 1x93b0
298 81 m 1x93b0
 313 81 459 81 467 81 c 1
 467 81 466 74 475 70 c 2
 475 70 502 60 516 55 c 1x99b0
 516 55 522 52 522 46 c 2
 522 46 522 17 522 9 c 0x39b0
 522 3 521 0 512 0 c 2
 512 0 437 3 384 3 c 0
 331 3 253 0 253 0 c 2
 244 0 242 3 242 9 c 0x59b0
 242 17 242 46 242 46 c 2x9970
 242 52 249 55 249 55 c 1
 263 60 290 70 290 70 c 2
 299 74 298 81 298 81 c 1x93b0
470 337 m 1
 467 41 l 1
 298 41 l 1
 298 337 l 1x59b0
 470 337 l 1
EndSplineSet
EndChar

StartChar: Z
Encoding: 90 90 59
GlifName: Z_
Width: 749
Flags: HMW
HStem: 1 83 674 79<382 435 382 455>
VStem: 101 9<537 542> 679 12<732 756>
LayerCount: 2
Back
Fore
SplineSet
690 690 m 2
 281 101 l 2
 275 91 277 83 289 83 c 2
 574 83 l 1
 574 83 582 82 586 88 c 2
 586 88 639 201 645 214 c 1
 645 214 648 222 654 219 c 2
 654 219 690 213 702 210 c 0
 708 209 708 207 708 197 c 0
 708 194 679 26 676 9 c 0
 673 0 670 1 665 1 c 2
 665 1 427 3 374 3 c 0
 321 3 54 0 54 0 c 2
 45 0 43 3 43 9 c 2
 43 52 l 2
 43 55 42 62 45 65 c 2
 465 655 l 2
 471 665 465 674 455 674 c 2
 163 674 l 1
 163 674 154 674 151 668 c 2
 151 668 118 555 110 542 c 1
 110 542 107 534 101 537 c 2
 101 537 65 543 53 546 c 0
 47 547 45 550 46 559 c 0
 47 562 60 730 63 747 c 0
 66 756 69 755 74 755 c 2
 74 755 355 754 408 754 c 0
 461 754 679 756 679 756 c 2
 688 756 692 753 692 747 c 0
 692 717 693 693 690 690 c 2
EndSplineSet
EndChar

StartChar: colon
Encoding: 58 58 60
GlifName: colon
Width: 236
Flags: HMW
HStem: -10 185<98 148> 359 185<98 148>
VStem: 31 185<57 107 426 476>
LayerCount: 2
Back
Fore
SplineSet
31 83 m 0
 31 133 73 174 123 174 c 0
 173 174 215 133 215 83 c 0
 215 33 173 -10 123 -10 c 0
 73 -10 31 33 31 83 c 0
31 452 m 0
 31 502 73 543 123 543 c 0
 173 543 215 502 215 452 c 0
 215 402 173 359 123 359 c 0
 73 359 31 402 31 452 c 0
EndSplineSet
EndChar

StartChar: semicolon
Encoding: 59 59 61
GlifName: semicolon
Width: 261
Flags: HMW
HStem: -152 62<49 74 49 120> -10 181<119 169> 359 185<119 169>
VStem: 52 185<426 476> 234 8
LayerCount: 2
Back
Fore
SplineSet
52 83 m 0xf0
 52 133 95 172 145 172 c 0
 195 172 237 133 237 83 c 0
 237 33 195 -10 145 -10 c 0
 95 -10 52 33 52 83 c 0xf0
52 452 m 0
 52 502 95 543 145 543 c 0
 195 543 236 502 236 452 c 0
 236 402 195 359 145 359 c 0
 95 359 52 402 52 452 c 0
35 -152 m 0
 29 -152 30 -147 31 -143 c 0
 35 -128 40 -103 43 -97 c 0
 46 -91 48 -90 52 -90 c 0
 96 -90 132 -50 132 -10 c 0
 132 38 117 45 117 59 c 1
 234 105 l 1xe8
 268 -10 204 -152 35 -152 c 0
EndSplineSet
EndChar

StartChar: comma
Encoding: 44 44 62
GlifName: comma
Width: 268
Flags: HMW
HStem: -152 62<49 74 49 120> -10 181<119 169>
VStem: 52 185<57 107> 234 8
LayerCount: 2
Back
Fore
SplineSet
52 83 m 0xe0
 52 133 95 172 145 172 c 0
 195 172 237 133 237 83 c 0
 237 33 195 -10 145 -10 c 0
 95 -10 52 33 52 83 c 0xe0
35 -152 m 0
 29 -152 30 -147 31 -143 c 0
 35 -128 40 -103 43 -97 c 0
 46 -91 48 -90 52 -90 c 0
 96 -90 132 -50 132 -10 c 0
 132 38 117 45 117 59 c 1
 234 105 l 1xd0
 268 -10 204 -152 35 -152 c 0
EndSplineSet
EndChar

StartChar: quoteright
Encoding: 8217 8217 63
GlifName: quoteright
Width: 273
Flags: HMW
HStem: 615 173<124 174>
VStem: 63 179<684 733> 239 10
LayerCount: 2
Back
Fore
SplineSet
63 708 m 0xc0
 63 756 98 788 148 788 c 0
 198 788 243 758 243 708 c 0
 243 658 198 615 148 615 c 0
 98 615 63 658 63 708 c 0xc0
68 450 m 0
 62 449 60 449 55 458 c 0
 47 473 40 489 37 495 c 0
 34 499 38 502 43 503 c 0
 128 520 135 575 135 615 c 0
 135 663 123 672 123 686 c 1
 239 732 l 1xa0
 267 624 240 484 68 450 c 0
EndSplineSet
EndChar

StartChar: backslash
Encoding: 92 92 64
GlifName: backslash
Width: 445
Flags: HMW
HStem: 1 21G<321 321>
VStem: 46 363
LayerCount: 2
Back
Fore
SplineSet
401 28 m 2
 321 1 l 2
 315 -2 311 2 308 8 c 0
 285 80 77 650 46 730 c 0
 43 738 47 740 53 743 c 2
 134 772 l 2
 140 775 144 774 147 766 c 0
 174 683 374 117 406 43 c 0
 410 35 409 31 401 28 c 2
EndSplineSet
EndChar

StartChar: hyphen
Encoding: 45 45 65
GlifName: hyphen
Width: 335
Flags: HMW
HStem: 205 111<34 299 37 299>
VStem: 27 283<214 310 307 310 307 311>
LayerCount: 2
Back
Fore
SplineSet
27 214 m 2
 27 307 l 2
 27 313 29 316 37 316 c 0
 114 313 213 313 299 316 c 0
 308 316 308 313 308 307 c 2
 308 214 l 2
 308 208 305 205 299 205 c 0
 213 208 113 208 37 205 c 0
 29 205 27 208 27 214 c 2
EndSplineSet
EndChar

StartChar: quotesinglbase
Encoding: 8218 8218 66
GlifName: quotesinglbase
Width: 268
Flags: HMW
HStem: -10 181<119 169>
VStem: 63 174<58 107 57 108> 234 8
LayerCount: 2
Back
Fore
SplineSet
63 83 m 0xc0
 63 133 95 172 145 172 c 0
 195 172 237 133 237 83 c 0
 237 33 195 -10 145 -10 c 0
 95 -10 63 33 63 83 c 0xc0
22 -183 m 0
 16 -183 17 -178 18 -174 c 0
 22 -159 29 -135 32 -129 c 0
 35 -124 36 -124 41 -123 c 0
 99 -111 132 -50 132 -10 c 0
 132 38 117 45 117 59 c 1
 234 105 l 1xa0
 270 -1 188 -183 22 -183 c 0
EndSplineSet
EndChar

StartChar: quotedblbase
Encoding: 8222 8222 67
GlifName: quotedblbase
Width: 514
Flags: HMW
HStem: -10 181<119 169 366 415>
VStem: 63 174<58 107 57 108> 234 8 310 174<58 107 57 108> 481 8
LayerCount: 2
Back
Fore
SplineSet
63 83 m 0xc8
 63 133 95 172 145 172 c 0
 195 172 237 133 237 83 c 0
 237 33 195 -10 145 -10 c 0
 95 -10 63 33 63 83 c 0xc8
22 -183 m 0
 16 -183 17 -178 18 -174 c 0
 22 -159 29 -135 32 -129 c 0
 35 -124 36 -124 41 -123 c 0
 99 -111 132 -50 132 -10 c 0
 132 38 117 45 117 59 c 1
 234 105 l 1xa8
 270 -1 188 -183 22 -183 c 0
310 83 m 0xb0
 310 133 341 172 391 172 c 0
 441 172 484 133 484 83 c 0
 484 33 441 -10 391 -10 c 0
 341 -10 310 33 310 83 c 0xb0
268 -183 m 0
 262 -183 264 -178 265 -174 c 0
 269 -159 276 -135 279 -129 c 0
 282 -124 283 -124 288 -123 c 0
 346 -111 378 -50 378 -10 c 0
 378 38 365 45 365 59 c 1
 481 105 l 1xa8
 517 -1 434 -183 268 -183 c 0
EndSplineSet
EndChar

StartChar: quotedblright
Encoding: 8221 8221 68
GlifName: quotedblright
Width: 514
Flags: HMW
HStem: 615 173<108 157 360 410>
VStem: 46 179<684 733> 223 10 299 179<684 733> 475 10
LayerCount: 2
Back
Fore
SplineSet
299 708 m 0xb0
 299 756 335 788 385 788 c 0
 435 788 477 758 477 708 c 0
 477 658 435 615 385 615 c 0
 335 615 299 658 299 708 c 0xb0
305 450 m 0
 299 449 297 449 292 458 c 0
 284 473 277 489 274 495 c 0
 271 499 274 502 279 503 c 0
 364 520 372 575 372 615 c 0
 372 663 359 672 359 686 c 1
 475 732 l 1xa8
 503 624 477 484 305 450 c 0
46 708 m 0xc8
 46 756 83 788 133 788 c 0
 183 788 226 758 226 708 c 0
 226 658 183 615 133 615 c 0
 83 615 46 658 46 708 c 0xc8
52 450 m 0
 46 449 44 449 39 458 c 0
 31 473 24 489 21 495 c 0
 18 499 22 502 27 503 c 0
 112 520 120 575 120 615 c 0
 120 663 107 672 107 686 c 1
 223 732 l 1xa8
 251 624 224 484 52 450 c 0
EndSplineSet
EndChar

StartChar: quotedblleft
Encoding: 8220 8220 69
GlifName: quotedblleft
Width: 557
Flags: HMW
HStem: 449 173<114 163 365 415>
VStem: 37 114 45 179<505 554 505 555> 290 114 297 179<505 554 505 555>
LayerCount: 2
Back
Fore
SplineSet
225 529 m 0xd0
 225 481 188 449 138 449 c 0
 88 449 45 480 45 530 c 0xb0
 45 580 88 622 138 622 c 0
 188 622 225 579 225 529 c 0xd0
219 788 m 0
 225 789 227 788 232 779 c 0
 240 764 247 748 250 742 c 0
 253 738 249 736 244 735 c 0
 159 718 151 662 151 622 c 0
 151 574 164 566 164 552 c 1
 48 507 l 1
 20 615 47 754 219 788 c 0
476 529 m 0
 476 481 440 449 390 449 c 0
 340 449 297 480 297 530 c 0xc8
 297 580 340 622 390 622 c 0
 440 622 476 579 476 529 c 0
471 788 m 0
 477 789 479 788 484 779 c 0
 492 764 499 748 502 742 c 0
 505 738 500 736 495 735 c 0
 410 718 403 662 403 622 c 0
 403 574 415 566 415 552 c 1
 299 507 l 1
 271 615 299 754 471 788 c 0
EndSplineSet
EndChar

StartChar: quoteleft
Encoding: 8216 8216 70
GlifName: quoteleft
Width: 301
Flags: HMW
HStem: 446 173<129 179>
VStem: 54 114 61 179<503 552 503 554>
LayerCount: 2
Back
Fore
SplineSet
240 526 m 0xc0
 240 478 204 446 154 446 c 0
 104 446 61 478 61 528 c 0xa0
 61 578 104 619 154 619 c 0
 204 619 240 576 240 526 c 0xc0
235 786 m 0
 241 787 243 787 248 778 c 0
 256 763 263 747 266 741 c 0
 269 737 266 734 261 733 c 0
 176 716 166 659 166 619 c 0
 166 571 181 564 181 550 c 1
 65 505 l 1
 37 613 63 752 235 786 c 0
EndSplineSet
EndChar

StartChar: ellipsis
Encoding: 8230 8230 71
GlifName: ellipsis
Width: 723
Flags: HMW
HStem: -10 185<98 148 338 388 578 628>
VStem: 31 185<57 107> 271 185<57 107> 511 185<57 107>
CounterMasks: 1 70
LayerCount: 2
Back
Fore
SplineSet
31 83 m 0
 31 133 73 174 123 174 c 0
 173 174 215 133 215 83 c 0
 215 33 173 -10 123 -10 c 0
 73 -10 31 33 31 83 c 0
271 83 m 0
 271 133 313 174 363 174 c 0
 413 174 455 133 455 83 c 0
 455 33 413 -10 363 -10 c 0
 313 -10 271 33 271 83 c 0
511 83 m 0
 511 133 553 174 603 174 c 0
 653 174 695 133 695 83 c 0
 695 33 653 -10 603 -10 c 0
 553 -10 511 33 511 83 c 0
EndSplineSet
EndChar

StartChar: bullet
Encoding: 8226 8226 72
GlifName: bullet
Width: 443
Flags: HMW
HStem: 179 241<190 255>
VStem: 102 241<267 333>
LayerCount: 2
Back
Fore
SplineSet
102 299 m 0
 102 364 157 421 223 421 c 0
 288 421 343 364 343 299 c 0
 343 233 288 179 223 179 c 0
 157 179 102 233 102 299 c 0
EndSplineSet
EndChar

StartChar: zero
Encoding: 48 48 73
GlifName: zero
Width: 587
Flags: HMW
HStem: -8 77<255 330 255 381> 692 76<255 330>
VStem: 39 145<286 483 286 484> 399 145<288 483>
LayerCount: 2
Back
Fore
SplineSet
543 388 m 0
 543 183 470 -8 292 -8 c 0
 113 -8 39 183 39 388 c 0
 39 576 113 768 292 768 c 0
 470 768 543 576 543 388 c 0
399 388 m 0
 399 575 369 692 292 692 c 0
 220 692 183 575 183 388 c 0
 183 183 220 68 292 68 c 0
 369 68 399 185 399 388 c 0
EndSplineSet
EndChar

StartChar: one
Encoding: 49 49 74
GlifName: one
Width: 434
Flags: HMW
HStem: 0 54<65 65 65 68> 0 67 45 9<58 65> 597 155<37 279>
VStem: 148 142<77 587 587 587> 366 6
LayerCount: 2
Back
Fore
SplineSet
290 742 m 2x5c
 290 77 l 1
 290 77 289 71 298 67 c 2x5c
 298 67 353 58 366 54 c 1
 366 54 374 51 374 45 c 2x3c
 374 45 374 17 374 9 c 0
 374 3 372 0 363 0 c 2
 363 0 269 3 219 3 c 0x5c
 169 3 68 0 68 0 c 2
 59 0 58 3 58 9 c 0x3c
 58 17 58 45 58 45 c 2
 58 51 65 54 65 54 c 1x9c
 78 58 139 67 139 67 c 2
 148 71 148 77 148 77 c 1
 148 587 l 1
 148 587 147 597 135 597 c 2
 37 597 l 2
 31 597 27 600 27 605 c 2
 27 605 27 624 27 639 c 0
 27 645 29 649 37 654 c 0
 40 657 182 740 197 750 c 0
 201 753 231 754 246 754 c 0
 263 754 273 754 279 754 c 0
 288 754 290 748 290 742 c 2x5c
EndSplineSet
EndChar

StartChar: two
Encoding: 50 50 75
GlifName: two
Width: 596
Flags: HMW
HStem: 0 132<197 505> 138 61<444 506> 701 67<252 306>
VStem: 44 146<599 632 599 652> 364 148<585 635> 502 12<0 187>
LayerCount: 2
Back
Fore
SplineSet
44 588 m 0xb4
 44 713 130 768 302 768 c 0
 452 768 514 702 514 612 c 0
 514 554 493 489 379 354 c 0
 322 286 197 132 197 132 c 1xb8
 434 132 l 1
 434 132 440 132 444 138 c 2
 444 138 454 182 457 188 c 0
 460 198 464 199 470 199 c 2
 470 199 496 199 506 199 c 0
 511 199 514 197 514 187 c 0x74
 514 184 517 23 514 8 c 0
 511 0 507 0 502 0 c 2xb4
 502 0 370 3 320 3 c 0
 270 3 54 0 54 0 c 2
 45 0 44 2 44 8 c 2
 44 62 l 2
 44 70 45 72 49 77 c 2
 253 345 l 1
 355 490 364 567 364 603 c 0xb8
 364 669 327 701 284 701 c 0
 219 701 190 665 190 599 c 0
 193 549 161 519 117 519 c 0
 64 519 44 549 44 588 c 0xb4
EndSplineSet
EndChar

StartChar: six
Encoding: 54 54 76
GlifName: six
Width: 584
Flags: HMW
HStem: -10 65<267 301 267 373> 406 81 702 68<249 328>
VStem: 54 156<196 227 168 455> 368 146<613 653> 379 156
LayerCount: 2
Back
Fore
SplineSet
311 702 m 0xf8
 188 702 213 542 213 436 c 1
 216 442 245 485 337 486 c 0
 453 487 532 395 535 252 c 0xf4
 538 77 451 -10 294 -10 c 0
 131 -10 54 81 54 311 c 0
 54 599 121 770 312 770 c 0
 438 770 514 701 514 626 c 0
 514 587 494 556 441 556 c 0
 389 556 368 590 368 636 c 0
 368 670 345 702 311 702 c 0xf8
301 54 m 0xf4
 344 53 378 80 379 223 c 0
 380 356 358 406 305 406 c 0
 231 407 211 347 210 227 c 0
 210 110 234 54 301 54 c 0xf4
EndSplineSet
EndChar

StartChar: four
Encoding: 52 52 77
GlifName: four
Width: 600
Flags: HMW
HStem: 0 54<232 236> 0 285<232 236 503 507> 45 9<226 232> 206 79<116 526>
VStem: 299 142<77 515 515 515> 507 6
LayerCount: 2
Back
Fore
SplineSet
348 734 m 0x9c
 352 737 383 741 397 741 c 0
 420 741 441 738 441 734 c 2
 441 77 l 1
 441 77 441 71 449 67 c 2
 449 67 494 58 507 54 c 1
 507 54 514 51 514 45 c 2x3c
 514 45 514 17 514 9 c 0
 514 3 512 0 503 0 c 2
 503 0 424 3 372 3 c 0x4c
 322 3 236 0 236 0 c 2
 228 0 226 3 226 9 c 0x3c
 226 17 226 45 226 45 c 2
 226 51 232 54 232 54 c 1
 246 58 292 67 292 67 c 2
 301 71 299 77 299 77 c 1
 299 515 l 1
 299 515 300 527 288 521 c 1
 288 521 175 369 116 285 c 1
 230 282 441 282 529 285 c 0
 538 285 538 283 538 277 c 2
 537 214 l 2
 536 208 534 206 526 206 c 0
 431 209 137 209 30 206 c 0
 29 206 21 206 21 212 c 2
 21 212 22 267 22 280 c 0
 22 284 22 287 25 293 c 0
 30 299 334 724 348 734 c 0x9c
EndSplineSet
EndChar

StartChar: seven
Encoding: 55 55 78
GlifName: seven
Width: 509
Flags: HMW
HStem: 1 21G 614 125<218 268 218 341>
VStem: 455 10<719 741>
LayerCount: 2
Back
Fore
SplineSet
98 9 m 0
 99 12 282 419 348 596 c 0
 352 606 350 614 341 614 c 2
 32 614 l 2
 27 614 23 616 23 626 c 0
 23 629 25 714 25 732 c 0
 25 738 29 741 35 741 c 2
 35 741 193 739 243 739 c 0
 295 739 455 741 455 741 c 2
 463 741 465 739 465 733 c 0
 465 705 466 647 466 639 c 0
 465 626 464 616 459 601 c 2
 261 9 l 2
 258 4 257 4 252 3 c 0
 242 2 218 0 166 0 c 0
 114 0 106 0 101 1 c 0
 97 2 95 5 98 9 c 0
EndSplineSet
EndChar

StartChar: three
Encoding: 51 51 79
GlifName: three
Width: 561
Flags: HMW
HStem: -10 65<227 286 227 360> 352 79<139 206 139 232> 705 65<236 295>
VStem: 35 146<107 147 107 154> 44 146<610 650 610 661> 348 151<559 618> 375 139<142 262 142 265>
LayerCount: 2
Back
Fore
SplineSet
514 196 m 0xf2
 514 88 442 -10 277 -10 c 0
 98 -10 35 62 35 134 c 0
 35 173 55 204 108 204 c 0
 152 204 181 170 181 124 c 0
 181 90 200 54 253 54 c 0
 321 54 375 74 375 208 c 0xf2
 375 320 321 352 143 352 c 0
 134 352 132 355 132 364 c 2
 132 421 l 2
 132 430 136 431 145 431 c 0
 271 431 348 498 348 582 c 0
 348 653 330 705 262 705 c 0
 209 705 190 668 190 634 c 0
 190 588 161 554 117 554 c 0
 64 554 44 586 44 625 c 0
 44 697 107 768 286 768 c 0
 443 768 501 677 501 594 c 0xec
 501 523 477 439 305 396 c 0
 295 393 281 415 299 415 c 1
 474 374 514 328 514 196 c 0xf2
EndSplineSet
EndChar

StartChar: five
Encoding: 53 53 80
GlifName: five
Width: 590
Flags: HMW
HStem: -10 65<227 301 227 368> 345 123 608 132<283 499>
VStem: 46 146<92 138 92 142> 385 148<168 257>
LayerCount: 2
Back
Fore
SplineSet
253 54 m 0
 348 54 385 130 385 204 c 0
 385 309 320 359 119 342 c 0
 98 339 97 351 97 359 c 2
 135 734 l 2
 135 739 137 742 146 742 c 2
 146 742 258 739 308 739 c 0
 358 739 498 741 501 742 c 0
 510 742 510 739 510 734 c 2
 506 617 l 2
 505 611 503 608 495 608 c 0
 292 608 238 606 217 606 c 0
 211 606 206 603 205 597 c 0
 204 591 185 467 185 467 c 2
 185 464 186 465 187 465 c 2
 187 465 296 474 354 459 c 0
 489 424 533 327 533 228 c 0
 533 105 458 -10 277 -10 c 0
 98 -10 46 51 46 123 c 0
 46 162 66 194 119 194 c 0
 163 194 192 166 192 114 c 0
 192 70 201 54 253 54 c 0
EndSplineSet
EndChar

StartChar: nine
Encoding: 57 57 81
GlifName: nine
Width: 560
Flags: HMW
HStem: -10 68<237 316 237 350> 274 81 706 65<244 271>
VStem: 40 156 52 146<101 141 101 147> 366 156<468 526>
LayerCount: 2
Back
Fore
SplineSet
255 58 m 0xec
 378 58 363 218 363 324 c 1
 360 318 331 275 239 274 c 0
 123 273 43 365 40 508 c 0xf4
 37 683 126 770 283 770 c 0
 446 770 523 679 523 449 c 0
 523 161 445 -10 254 -10 c 0
 128 -10 52 51 52 126 c 0
 52 165 72 197 125 197 c 0
 177 197 197 163 197 117 c 0
 197 83 221 58 255 58 c 0xec
275 354 m 0xf4
 342 354 366 409 366 526 c 0
 365 646 345 707 271 706 c 0
 218 706 195 656 196 523 c 0
 197 380 232 353 275 354 c 0xf4
EndSplineSet
EndChar

StartChar: eight
Encoding: 56 56 82
GlifName: eight
Width: 600
Flags: HMW
HStem: -15 75<277 352 277 396> 698 70<277 329>
VStem: 58 139<148 231 148 249> 99 111<520 637 520 641> 397 102<585 637> 436 115<154 281>
LayerCount: 2
Back
Fore
SplineSet
317 387 m 1xd4
 258 427 l 1
 383 485 397 557 397 612 c 0xd8
 397 664 354 698 305 698 c 0
 250 698 210 662 210 612 c 0xd4
 210 429 551 472 551 214 c 0
 551 91 486 -15 307 -15 c 0
 193 -15 58 35 58 200 c 0
 58 297 130 378 253 413 c 1
 292 375 l 1
 227 332 197 271 197 190 c 0xe4
 197 107 247 59 308 59 c 0
 397 59 436 115 436 185 c 0xd4
 436 380 99 370 99 588 c 0
 99 694 172 768 305 768 c 0
 407 768 499 706 499 612 c 0xd8
 499 507 393 440 317 387 c 1xd4
EndSplineSet
EndChar

StartChar: dieresis
Encoding: 168 168 83
GlifName: dieresis
Width: 647
Flags: HMW
HStem: 597 110<212 243 406 436>
VStem: 172 110<637 667> 366 110<637 667>
LayerCount: 2
Back
Fore
SplineSet
172 652 m 4
 172 682 197 707 227 707 c 4
 257 707 283 682 283 652 c 4
 283 622 257 597 227 597 c 4
 197 597 172 622 172 652 c 4
366 652 m 4
 366 682 391 707 421 707 c 4
 451 707 476 682 476 652 c 4
 476 622 451 597 421 597 c 4
 391 597 366 622 366 652 c 4
EndSplineSet
EndChar

StartChar: slash
Encoding: 47 47 92
GlifName: slash
Width: 363
Flags: HMW
HStem: 1 21G<105 105>
VStem: 17 363
LayerCount: 2
Back
Fore
SplineSet
105 1 m 2
 25 28 l 2
 17 31 15 35 19 43 c 0
 51 117 250 683 277 766 c 0
 280 774 286 775 292 772 c 2
 372 743 l 2
 378 740 381 738 378 730 c 0
 347 650 140 80 117 8 c 0
 114 2 111 -2 105 1 c 2
EndSplineSet
EndChar

StartChar: bar
Encoding: 124 124 93
GlifName: bar
Width: 507
Flags: HMW
HStem: -261 21G<205 209 209 294>
VStem: 203 106<737 783>
LayerCount: 2
Back
Fore
SplineSet
294 -261 m 2
 209 -261 l 2
 201 -261 200 -257 200 -249 c 0
 200 -169 203 693 203 779 c 0
 203 785 205 788 213 788 c 2
 299 788 l 2
 305 788 308 787 308 779 c 0
 308 693 302 -173 305 -249 c 0
 305 -257 300 -261 294 -261 c 2
EndSplineSet
EndChar

StartChar: equal
Encoding: 61 61 94
GlifName: equal
Width: 670
Flags: HMW
HStem: 155 111<137 546 141 546> 330 111<137 546 141 546>
VStem: 130 426<164 261 257 261 257 261 257 432 432 435 257 436>
LayerCount: 2
Back
Fore
SplineSet
130 164 m 2
 130 257 l 2
 130 263 133 266 141 266 c 0
 218 263 460 263 546 266 c 0
 555 266 556 263 556 257 c 2
 555 164 l 2
 555 158 552 155 546 155 c 0
 460 158 217 158 141 155 c 0
 133 155 130 158 130 164 c 2
130 339 m 2
 130 432 l 2
 130 438 133 441 141 441 c 0
 218 438 460 438 546 441 c 0
 555 441 556 438 556 432 c 2
 555 339 l 2
 555 333 552 330 546 330 c 0
 460 333 217 333 141 330 c 0
 133 330 130 333 130 339 c 2
EndSplineSet
EndChar

StartChar: plus
Encoding: 43 43 95
GlifName: plus
Width: 652
Flags: HMW
HStem: 225 111<112 521 116 521>
VStem: 261 111<77 483>
LayerCount: 2
Back
Fore
SplineSet
105 234 m 2
 105 326 l 2
 105 332 108 335 116 335 c 0
 193 332 435 332 521 335 c 0
 530 335 532 332 532 326 c 2
 530 234 l 2
 530 228 527 225 521 225 c 0
 435 228 192 228 116 225 c 0
 108 225 105 228 105 234 c 2
363 66 m 2
 270 66 l 2
 264 66 261 69 261 77 c 0
 264 154 264 397 261 483 c 0
 261 492 264 492 270 492 c 2
 363 492 l 2
 369 492 372 489 372 483 c 0
 369 397 369 153 372 77 c 0
 372 69 369 66 363 66 c 2
EndSplineSet
EndChar

StartChar: minus
Encoding: 8722 8722 96
GlifName: minus
Width: 685
Flags: HMW
HStem: 215 111<137 546 141 546>
VStem: 130 426<225 320 317 320 317 320>
LayerCount: 2
Back
Fore
SplineSet
130 225 m 2
 130 317 l 2
 130 323 133 326 141 326 c 0
 218 323 460 323 546 326 c 0
 555 326 556 323 556 317 c 2
 555 225 l 2
 555 219 552 215 546 215 c 0
 460 218 217 218 141 215 c 0
 133 215 130 219 130 225 c 2
EndSplineSet
EndChar

StartChar: bracketleft
Encoding: 91 91 97
GlifName: bracketleft
Width: 504
Flags: HMW
HStem: -175 68<271 294> 717 70<271 285 246 301>
VStem: 166 102 360 6
LayerCount: 2
Back
Fore
SplineSet
166 -168 m 2
 166 -163 l 2
 163 92 166 557 166 726 c 2
 166 779 l 2
 166 788 171 788 177 788 c 2
 177 788 232 787 262 787 c 0
 308 787 356 788 356 788 c 2
 362 788 366 788 366 779 c 2
 366 730 l 2
 366 724 360 721 360 721 c 1
 351 717 330 717 271 717 c 1
 265 538 268 144 271 -106 c 1
 325 -106 350 -105 360 -108 c 1
 360 -108 366 -111 366 -117 c 2
 366 -168 l 2
 366 -177 362 -177 356 -177 c 2
 356 -177 317 -175 271 -175 c 0
 241 -175 177 -177 177 -177 c 2
 171 -177 166 -177 166 -168 c 2
EndSplineSet
EndChar

StartChar: bracketright
Encoding: 93 93 98
GlifName: bracketright
Width: 504
Flags: HMW
HStem: -175 68<210 234 206 249> 717 70<219 234>
VStem: 237 102
LayerCount: 2
Back
Fore
SplineSet
339 -163 m 2
 339 -168 l 2
 339 -177 334 -177 328 -177 c 2
 328 -177 264 -175 234 -175 c 0
 188 -175 148 -177 148 -177 c 2
 142 -177 138 -177 138 -168 c 2
 138 -117 l 2
 138 -111 145 -108 145 -108 c 1
 155 -105 180 -106 234 -106 c 1
 237 144 240 538 234 717 c 1
 175 717 154 717 145 721 c 1
 145 721 138 724 138 730 c 2
 138 779 l 2
 138 788 142 788 148 788 c 2
 148 788 197 787 243 787 c 0
 273 787 328 788 328 788 c 2
 334 788 339 788 339 779 c 2
 339 726 l 2
 339 557 342 92 339 -163 c 2
EndSplineSet
EndChar

StartChar: onequarter
Encoding: 188 188 99
GlifName: onequarter
Width: 743
Flags: HMW
HStem: 0 27<526 528> 0 34<526 555> 0 145<526 528 663 665> 105 40<467 675> 281 34<120 174> 585 80<68 191>
VStem: 124 74<319 581 581 581> 201 39<284 314> 560 71<39 261 261 261> 636 32<4 34>
LayerCount: 2
Back
Fore
SplineSet
108 39 m 2x2e80
 148 5 l 2
 153 1 158 2 163 8 c 0
 209 67 595 535 650 601 c 0
 655 607 655 611 649 615 c 2
 609 650 l 2
 603 655 600 655 594 649 c 0
 542 581 163 112 110 54 c 0
 104 48 102 44 108 39 c 2x2e80
197 659 m 2
 197 319 l 1
 197 319 196 317 201 314 c 2
 201 314 230 311 236 308 c 2
 236 308 240 307 240 303 c 2
 240 303 240 289 240 285 c 0
 240 282 239 280 234 280 c 2
 234 280 187 281 161 281 c 0x1d80
 136 281 84 280 84 280 c 2
 80 280 79 282 79 285 c 0
 79 289 79 303 79 303 c 2
 79 307 83 308 83 308 c 1
 89 311 120 314 120 314 c 2
 125 317 124 319 124 319 c 1
 124 581 l 1
 124 581 123 585 117 585 c 2
 68 585 l 2
 65 585 63 585 63 588 c 2
 63 588 63 600 63 606 c 0
 63 609 64 611 68 614 c 0
 69 615 142 658 148 663 c 0
 151 666 168 665 174 665 c 0
 183 665 188 665 191 665 c 0
 196 665 197 662 197 659 c 2
585 372 m 0
 588 373 603 375 609 375 c 0
 621 375 631 375 631 372 c 2x2e80
 631 39 l 1
 631 39 631 37 636 34 c 2x4e40
 636 34 659 30 665 27 c 1
 665 27 668 26 668 23 c 2x8e40
 668 23 668 9 668 5 c 0
 668 2 667 0 663 0 c 2
 663 0 622 1 596 1 c 0
 571 1 528 0 528 0 c 2
 524 0 523 2 523 5 c 0x2e40
 523 9 523 23 523 23 c 2
 523 26 526 27 526 27 c 1x8e80
 532 30 555 34 555 34 c 2
 560 37 560 39 560 39 c 1x4e80
 560 261 l 1
 560 261 560 269 554 265 c 2
 554 265 497 188 467 145 c 1
 525 144 631 144 676 145 c 0
 681 145 681 142 681 139 c 2x2e80
 680 108 l 2
 680 105 679 105 675 105 c 0
 626 106 477 106 423 105 c 1
 423 105 419 104 419 107 c 2
 419 107 419 136 419 142 c 0
 419 145 418 145 421 148 c 0
 424 152 579 367 585 372 c 0
EndSplineSet
EndChar

StartChar: fi
Encoding: 64257 64257 100
GlifName: fi
Width: 652
Flags: HMW
HStem: 0 55<67 67 67 71 67 67 67 71> 0 81<67 259 67 259 108 302 108 317> 6 75<412 561> 35 46<108 259 108 259> 46 9<59 67 59 67> 443 27<412 550> 443 81<46 552 52 550> 685 79<274 290>
VStem: 108 150<35 507 81 81 81 81 507 585> 302 6 306 145 317 6 412 150<6 455 455 470 81 81 6 470> 605 6
LayerCount: 2
Back
Fore
SplineSet
561 470 m 1x2408
 561 455 l 1
 561 6 l 1
 412 6 l 1
 412 470 l 1
 561 470 l 1x2408
412 81 m 1x0288
 427 81 553 81 561 81 c 1
 561 81 560 74 569 70 c 2
 569 70 591 60 605 55 c 1
 605 55 612 52 612 46 c 2x11a0
 612 46 612 17 612 9 c 0
 612 3 610 0 601 0 c 2
 601 0 539 3 486 3 c 0
 433 3 381 0 381 0 c 2
 372 0 370 3 370 9 c 0
 370 17 370 46 370 46 c 2
 370 52 377 55 377 55 c 1
 391 60 403 70 403 70 c 2
 412 74 412 81 412 81 c 1x0288
108 81 m 1
 259 81 l 1
 259 81 259 73 267 70 c 2x4040
 267 70 288 60 302 55 c 1
 302 55 308 52 308 46 c 2x0880
 308 46 308 17 308 9 c 0
 308 3 307 0 298 0 c 2x8080
 298 0 241 3 188 3 c 0
 135 3 71 0 71 0 c 2x4080
 62 0 59 3 59 9 c 0
 59 17 59 46 59 46 c 2
 59 52 67 55 67 55 c 1
 81 60 101 70 101 70 c 2
 109 73 108 81 108 81 c 1
52 443 m 0
 42 443 41 446 41 452 c 2x8008
 41 515 l 2
 42 521 44 524 52 524 c 0
 172 521 459 521 552 524 c 0
 562 524 563 521 563 515 c 2x10c8
 561 452 l 2
 560 446 558 443 550 443 c 0x0840
 462 446 178 446 52 443 c 0
108 81 m 1x0808
 259 81 l 1x8080
 259 81 259 73 267 70 c 2
 267 70 303 60 317 55 c 1x4080
 317 55 324 52 324 46 c 2x10c8
 324 46 324 17 324 9 c 0
 324 3 323 0 314 0 c 2x100c
 314 0 241 3 188 3 c 0
 135 3 71 0 71 0 c 2x0804
 62 0 59 3 59 9 c 0
 59 17 59 46 59 46 c 2
 59 52 67 55 67 55 c 1x4004
 81 60 101 70 101 70 c 2
 109 73 108 81 108 81 c 1x0808
258 764 m 0
 372 764 449 730 452 615 c 0x1090
 453 572 428 547 385 547 c 0
 336 547 306 577 306 623 c 0x0810
 306 677 298 685 283 685 c 0
 268 685 259 671 259 603 c 2
 259 35 l 1x4010
 108 35 l 1
 108 507 l 2x0880
 108 661 129 764 258 764 c 0
EndSplineSet
EndChar

StartChar: fl
Encoding: 64258 64258 104
GlifName: fl
Width: 652
Flags: HMW
HStem: 0 55<74 74 74 77> 443 81<52 55 52 63> 445 77 717 55
VStem: 112 150<81 444 444 444 81 523> 308 6 410 150<77 81 81 443 443 443 523 695 695 695> 603 6
LayerCount: 2
Back
Fore
SplineSet
370 775 m 2xbf
 370 775 415 772 455 772 c 0
 485 772 548 774 548 774 c 2
 554 774 560 774 560 765 c 2
 560 81 l 2
 560 67 582 59 603 55 c 1
 603 55 609 52 609 46 c 2
 609 9 l 2
 609 3 606 0 597 0 c 2
 597 0 537 3 484 3 c 0
 431 3 385 0 385 0 c 2
 376 0 374 3 374 9 c 2
 374 46 l 2
 374 52 381 55 381 55 c 1
 391 59 410 65 410 77 c 2
 410 443 l 1
 367 444 315 445 262 445 c 1xbf
 262 81 l 1
 262 81 262 75 274 70 c 2
 274 70 294 60 308 55 c 1
 308 55 316 52 316 46 c 2
 316 9 l 2
 316 3 314 0 305 0 c 2
 305 0 249 3 196 3 c 0
 143 3 77 0 77 0 c 2
 68 0 67 3 67 9 c 2
 67 46 l 2
 67 52 74 55 74 55 c 1
 88 60 108 70 108 70 c 2
 111 71 112 71 112 74 c 2
 112 444 l 1
 91 444 72 443 54 443 c 0
 44 443 44 446 44 452 c 2
 44 515 l 2
 45 521 47 524 55 524 c 2
 112 523 l 1xdf
 115 658 153 781 299 781 c 0
 342 781 349 778 370 775 c 2xbf
262 523 m 1
 316 523 369 522 410 523 c 1
 410 695 l 1
 406 698 l 2
 397 704 323 735 286 703 c 0
 261 682 262 595 262 523 c 1
EndSplineSet
EndChar

StartChar: percent
Encoding: 37 37 105
GlifName: percent
Width: 792
Flags: HMW
HStem: 0 44<575 618 575 648> 280 44<157 200 157 228> 330 44<575 618> 610 44<157 200>
VStem: 36 83<425 514 425 516> 235 83<425 514> 455 83<145 234 145 236> 654 83<145 234>
LayerCount: 2
Back
Fore
SplineSet
157 5 m 2
 117 39 l 2
 111 44 111 48 117 54 c 0
 170 112 551 581 603 649 c 0
 609 655 611 655 617 650 c 2
 657 615 l 2
 663 611 663 607 658 601 c 0
 603 535 218 67 172 8 c 0
 167 2 162 1 157 5 c 2
735 191 m 0
 735 92 698 0 597 0 c 0
 494 0 455 92 455 191 c 0xdf
 455 283 494 374 597 374 c 0
 698 374 735 283 735 191 c 0
654 191 m 0
 654 276 640 330 597 330 c 0
 554 330 537 276 537 191 c 0
 537 99 554 44 597 44 c 0
 640 44 654 99 654 191 c 0
317 471 m 0
 317 372 279 280 178 280 c 0
 75 280 36 372 36 471 c 0
 36 563 75 654 178 654 c 0
 279 654 317 563 317 471 c 0
235 471 m 0
 235 556 221 610 178 610 c 0
 135 610 117 556 117 471 c 0
 117 379 135 324 178 324 c 0
 221 324 235 379 235 471 c 0
EndSplineSet
EndChar

StartChar: quotedbl
Encoding: 34 34 106
GlifName: quotedbl
Width: 552
Flags: HMW
HStem: 495 281<151 154 154 196 354 356 356 397>
VStem: 125 101<765 769> 326 101<765 769>
LayerCount: 2
Back
Fore
SplineSet
134 775 m 2
 217 775 l 2
 223 775 226 773 226 765 c 0
 223 688 217 619 205 505 c 0
 204 496 202 495 196 495 c 2
 154 495 l 2
 148 495 146 499 145 505 c 0
 133 620 128 689 125 765 c 0
 125 773 128 775 134 775 c 2
335 775 m 2
 419 775 l 2
 425 775 428 773 428 765 c 0
 425 688 419 620 406 505 c 0
 405 496 403 495 397 495 c 2
 356 495 l 2
 350 495 348 499 347 505 c 0
 335 620 329 689 326 765 c 0
 326 773 329 775 335 775 c 2
EndSplineSet
EndChar

StartChar: quotesingle
Encoding: 39 39 107
GlifName: quotesingle
Width: 326
Flags: HMW
HStem: 495 281<132 134 134 175>
VStem: 105 101<765 769>
LayerCount: 2
Back
Fore
SplineSet
114 775 m 2
 197 775 l 2
 203 775 206 773 206 765 c 0
 203 688 198 620 185 505 c 0
 184 496 181 495 175 495 c 2
 134 495 l 2
 128 495 126 499 125 505 c 0
 113 620 108 689 105 765 c 0
 105 773 108 775 114 775 c 2
EndSplineSet
EndChar

StartChar: acute
Encoding: 180 180 108
GlifName: acute
Width: 301
Flags: HMW
HStem: 566 201
VStem: 37 228
LayerCount: 2
Back
Fore
SplineSet
62 568 m 2
 37 597 l 2
 34 602 36 608 41 612 c 0
 108 677 140 705 203 763 c 0
 208 769 210 769 214 763 c 2
 263 701 l 2
 267 696 267 692 259 688 c 0
 187 643 151 619 74 569 c 0
 69 566 65 564 62 568 c 2
EndSplineSet
EndChar

StartChar: threesuperior
Encoding: 179 179 110
GlifName: threesuperior
Width: 296
Flags: HMW
HStem: 397 31<488 516 488 551> 570 37<446 477 446 490> 737 30<492 520>
VStem: 397 68<454 474 454 476> 401 68<693 712 693 716> 546 71<668 695> 557 66<470 526 470 529>
LayerCount: 2
Back
Fore
SplineSet
625 495 m 0xf2
 625 443 590 397 511 397 c 0
 427 397 397 432 397 467 c 0
 397 485 406 501 431 501 c 0
 452 501 466 484 466 462 c 0
 466 447 476 428 501 428 c 0
 533 428 557 437 557 502 c 0xf2
 557 555 532 570 448 570 c 0
 444 570 443 570 443 575 c 2
 443 603 l 2
 443 608 444 608 448 608 c 0
 507 608 546 639 546 679 c 0
 546 713 539 737 505 737 c 0
 480 737 470 720 470 705 c 0
 470 683 457 666 436 666 c 0
 410 666 401 681 401 699 c 0
 401 733 431 766 516 766 c 0
 591 766 617 724 617 685 c 0xec
 617 651 605 612 524 591 c 0
 520 590 514 600 523 600 c 0
 606 579 625 557 625 495 c 0xf2
EndSplineSet
EndChar

StartChar: grave
Encoding: 96 96 124
GlifName: grave
Width: 301
Flags: HMW
HStem: 566 201
VStem: 37 228
LayerCount: 2
Back
Fore
SplineSet
265 597 m 2
 240 568 l 2
 237 564 233 566 228 569 c 0
 151 619 115 643 43 688 c 0
 35 692 35 696 39 701 c 2
 88 763 l 2
 92 769 96 769 101 763 c 0
 164 705 194 677 261 612 c 0
 266 608 268 602 265 597 c 2
EndSplineSet
EndChar

StartChar: onehalf
Encoding: 189 189 134
GlifName: onehalf
Width: 763
Flags: HMW
HStem: 0 66<757 914> 70 31<883 914> 281 34<120 174> 355 34<786 813> 585 80<68 191>
VStem: 124 74<319 581 581 581> 201 39<284 314> 680 74<303 320 303 329> 843 75<295 321> 883 35<70 70>
LayerCount: 2
Back
Fore
SplineSet
108 39 m 2xb580
 148 5 l 2
 153 1 158 2 163 8 c 0
 209 67 595 535 650 601 c 0
 655 607 655 611 649 615 c 2
 609 650 l 2
 603 655 600 655 594 649 c 0
 542 581 163 112 110 54 c 0
 104 48 102 44 108 39 c 2xb580
680 298 m 0
 680 361 726 388 812 388 c 0
 887 388 917 355 917 310 c 0
 917 280 907 247 850 179 c 0
 822 145 757 66 757 66 c 1xb580
 877 66 l 1
 877 66 880 66 883 70 c 2
 883 70 888 92 889 95 c 0
 890 100 892 101 895 101 c 2
 895 101 909 101 914 101 c 0
 917 101 917 100 917 95 c 0x7540
 917 92 918 12 917 4 c 0
 916 0 915 0 912 0 c 2
 912 0 846 1 821 1 c 0xb540
 795 1 685 0 685 0 c 2
 681 0 680 1 680 4 c 2
 680 31 l 2
 680 35 680 36 683 39 c 2
 786 174 l 2
 838 248 843 286 843 305 c 0
 843 339 824 355 803 355 c 0
 769 355 754 337 754 303 c 0
 755 278 739 263 717 263 c 0
 690 263 680 277 680 298 c 0
197 659 m 2xbd80
 197 319 l 1
 197 319 196 317 201 314 c 2
 201 314 230 311 236 308 c 2
 236 308 240 307 240 303 c 2
 240 303 240 289 240 285 c 0
 240 282 239 280 234 280 c 2
 234 280 187 281 161 281 c 0xb380
 136 281 84 280 84 280 c 2
 80 280 79 282 79 285 c 0
 79 289 79 303 79 303 c 2
 79 307 83 308 83 308 c 1
 89 311 120 314 120 314 c 2
 125 317 124 319 124 319 c 1
 124 581 l 1
 124 581 123 585 117 585 c 2
 68 585 l 2
 65 585 63 585 63 588 c 2
 63 588 63 600 63 606 c 0
 63 609 64 611 68 614 c 0
 69 615 142 658 148 663 c 0
 151 666 168 665 174 665 c 0
 183 665 188 665 191 665 c 0
 196 665 197 662 197 659 c 2xbd80
EndSplineSet
EndChar

StartChar: threequarters
Encoding: 190 190 135
GlifName: threequarters
Width: 776
Flags: HMW
HStem: 0 27<534 535> 0 34<534 563> 0 145<534 535 671 674> 105 40<475 683> 281 46<132 152 112 194> 459 35<94 128 94 128> 477 9 618 40<137 156>
VStem: 185 75<551 585> 197 74<366 414 364 417> 568 71<39 261 261 261> 644 32<4 34>
LayerCount: 2
Back
Fore
SplineSet
157 5 m 2x2d60
 117 39 l 2
 111 44 111 48 117 54 c 0
 170 112 551 581 603 649 c 0
 609 655 611 655 617 650 c 2
 657 615 l 2
 663 611 663 607 658 601 c 0
 603 535 218 67 172 8 c 0
 167 2 162 1 157 5 c 2x2d60
95 459 m 0
 90 459 92 460 92 463 c 2
 92 490 l 2
 93 493 92 494 95 494 c 0x2da0
 158 494 185 522 185 565 c 0
 185 602 173 618 139 618 c 0
 116 618 92 603 70 577 c 1
 70 577 69 573 65 578 c 2
 65 578 49 591 46 595 c 0
 43 596 41 598 46 603 c 0
 77 640 114 658 159 658 c 0
 235 658 261 622 261 572 c 0x2ba0
 261 532 246 486 163 477 c 0
 158 476 151 486 159 486 c 0x2b60
 245 477 271 441 271 387 c 0
 271 341 236 281 148 281 c 0
 114 281 88 291 49 314 c 0
 44 318 43 318 44 321 c 0
 45 326 52 350 52 350 c 2
 53 351 54 352 55 352 c 0
 61 352 90 326 134 326 c 0
 170 326 197 346 197 387 c 0
 197 446 158 459 95 459 c 0
592 372 m 0
 595 373 611 375 617 375 c 0
 629 375 639 375 639 372 c 2x2d60
 639 39 l 1
 639 39 639 37 644 34 c 2x4d50
 644 34 668 30 674 27 c 1
 674 27 676 26 676 23 c 2x8d50
 676 23 676 9 676 5 c 0
 676 2 675 0 671 0 c 2
 671 0 630 1 604 1 c 0
 579 1 535 0 535 0 c 2
 531 0 532 2 532 5 c 0x2d50
 532 9 532 23 532 23 c 2
 532 26 534 27 534 27 c 1x8d60
 540 30 563 34 563 34 c 2
 568 37 568 39 568 39 c 1x4d60
 568 261 l 1
 568 261 569 269 563 265 c 2
 563 265 505 188 475 145 c 1
 533 144 639 144 684 145 c 0
 689 145 689 142 689 139 c 2x2d60
 688 108 l 2
 688 105 687 105 683 105 c 0
 634 106 485 106 431 105 c 1
 431 105 427 104 427 107 c 2
 427 107 427 136 427 142 c 0
 427 145 425 145 428 148 c 0x1d60
 431 152 586 367 592 372 c 0
EndSplineSet
EndChar

StartChar: circumflex
Encoding: 710 710 136
GlifName: circumflex
Width: 424
Flags: HMW
HStem: 615 151
VStem: 68 292
LayerCount: 2
Back
Fore
SplineSet
209 765 m 0
 213 768 217 768 221 765 c 0
 253 738 316 695 356 663 c 0
 361 659 363 656 360 652 c 2
 339 618 l 2
 336 615 334 615 329 618 c 2
 215 677 l 1
 101 618 l 2
 96 615 95 615 92 618 c 2
 70 652 l 2
 67 656 69 659 74 663 c 0
 114 695 177 738 209 765 c 0
EndSplineSet
EndChar

StartChar: divide
Encoding: 247 247 146
GlifName: divide
Width: 236
Flags: HMW
HStem: -10 221<98 148> 323 221<-86 148 98 148 98 323>
VStem: 31 185<57 107 426 476>
LayerCount: 2
Back
Fore
SplineSet
31 83 m 0
 31 133 73 174 123 174 c 0
 173 174 215 133 215 83 c 0
 215 33 173 -10 123 -10 c 0
 73 -10 31 33 31 83 c 0
31 452 m 0
 31 502 73 543 123 543 c 0
 173 543 215 502 215 452 c 0
 215 402 173 359 123 359 c 0
 73 359 31 402 31 452 c 0
-94 314 m 2
 -94 219 l 2
 -94 213 -91 212 -83 212 c 0
 -7 215 237 215 323 212 c 0
 329 212 332 213 332 219 c 2
 332 314 l 2
 332 320 332 323 323 323 c 0
 237 320 -6 320 -83 323 c 0
 -91 323 -94 320 -94 314 c 2
EndSplineSet
EndChar

StartChar: oslash
Encoding: 248 248 147
GlifName: oslash
Width: 581
Flags: HMW
HStem: -10 68 466 68 510 21G
VStem: 39 164 383 160
LayerCount: 2
Back
Fore
SplineSet
46 -8 m 2xd8
 12 30 l 2
 7 35 8 40 14 46 c 0
 170 194 430 433 525 525 c 0
 531 531 533 531 539 526 c 2
 577 488 l 2
 583 482 583 478 579 474 c 0xb8
 499 397 162 88 61 -5 c 0
 53 -13 50 -12 46 -8 c 2xd8
39 270 m 1xd8
 39 268 l 1
 45 454 134 540 299 534 c 0
 464 528 549 438 543 252 c 0
 537 67 445 -16 280 -10 c 0
 115 -4 33 84 39 270 c 1xd8
383 263 m 2
 383 265 l 2
 380 413 367 466 292 466 c 0
 224 466 202 410 203 262 c 0
 206 112 235 58 294 58 c 0
 362 58 386 115 383 263 c 2
EndSplineSet
EndChar

StartChar: AE
Encoding: 198 198 148
GlifName: A_E_
Width: 1043
Flags: HMW
HStem: 0 68<470 474> 0 83<471 563> 21 59<97 159 81 195> 41 41<519 563 563 695 519 563> 46 9<26 34> 59 9<463 470> 348 83<643 883 649 881> 490 6 671 79<680 901>
VStem: 246 12<0 13> 637 61 828 83<369 422>
LayerCount: 2
Back
Fore
SplineSet
243 218 m 4x20a0
 233 218 232 221 232 227 c 6
 232 292 l 6
 233 298 235 299 243 299 c 4
 363 296 452 296 545 299 c 4
 555 299 554 298 554 292 c 6x12b0
 554 227 l 6
 553 221 550 218 542 218 c 4
 441 221 357 221 243 218 c 4x20a0
97 81 m 1
 195 81 l 1
 195 81 191 74 203 70 c 2
 203 70 230 60 244 55 c 2
 244 55 258 50 258 46 c 2
 258 46 258 17 258 9 c 0
 258 3 255 0 246 0 c 2
 246 0 205 3 152 3 c 0
 99 3 37 0 37 0 c 2
 28 0 26 3 26 9 c 0
 26 17 26 46 26 46 c 2
 26 52 34 55 34 55 c 1
 48 60 83 68 83 68 c 2
 92 72 97 81 97 81 c 1
66 31 m 1
 505 752 l 2x0420
 508 757 571 752 610 752 c 0
 653 752 695 751 703 748 c 1x8020
 695 41 l 1x4020
 519 41 l 1
 519 729 l 1
 581 719 l 1
 159 21 l 1
 81 21 l 1
 66 31 l 1
648 348 m 0
 638 348 637 351 637 357 c 2
 637 422 l 2
 638 428 641 431 649 431 c 0
 769 428 790 428 883 431 c 0
 893 431 893 428 893 422 c 2
 892 357 l 2
 891 351 889 348 881 348 c 0x4020
 780 351 762 351 648 348 c 0
519 83 m 1
 563 83 l 2
 692 84 782 84 911 83 c 1
 911 83 919 80 923 86 c 2
 923 86 961 175 969 188 c 1x23f0
 969 188 973 197 979 194 c 2
 979 194 1014 188 1026 185 c 0
 1032 184 1035 181 1032 172 c 0x4040
 1031 169 1010 25 1006 8 c 0
 1003 -1 1001 0 996 0 c 0x0840
 939 0 913 3 763 3 c 0
 598 3 474 0 474 0 c 2
 468 0 463 0 463 9 c 0x2040
 463 17 463 59 463 59 c 2
 463 65 470 68 470 68 c 1
 484 73 519 83 519 83 c 1
563 671 m 2
 519 671 l 1
 518 690 517 691 517 701 c 2
 517 701 517 737 517 745 c 0
 517 754 523 754 529 754 c 2
 529 754 598 750 763 750 c 0
 913 750 929 754 986 754 c 0
 991 754 994 754 997 745 c 0
 1001 728 1021 584 1022 581 c 0
 1025 572 1021 569 1015 568 c 0
 1003 565 969 559 969 559 c 2
 963 556 959 564 959 564 c 1
 951 577 914 666 914 666 c 2
 910 672 901 671 901 671 c 1
 869 671 844 671 823 670 c 0
 802 669 778 668 750 668 c 0
 695 669 628 671 563 671 c 2
828 350 m 1
 828 428 l 1
 828 428 835 428 839 437 c 2
 839 437 848 476 853 490 c 1
 853 490 856 497 862 497 c 2
 862 497 897 497 905 497 c 0
 911 497 914 495 914 486 c 2
 914 486 911 448 911 395 c 0
 911 342 914 294 914 294 c 2
 914 285 911 283 905 283 c 0
 897 283 862 283 862 283 c 2
 856 283 853 290 853 290 c 1
 848 304 839 342 839 342 c 2
 835 351 828 350 828 350 c 1
EndSplineSet
EndChar

StartChar: plusminus
Encoding: 177 177 149
GlifName: plusminus
Width: 678
Flags: HMW
HStem: -1 111<137 546 141 546> 332 111<137 546 141 546>
VStem: 286 111<185 588>
LayerCount: 2
Back
Fore
SplineSet
130 341 m 2
 130 434 l 2
 130 440 133 443 141 443 c 0
 218 440 460 440 546 443 c 0
 555 443 556 440 556 434 c 2
 555 341 l 2
 555 335 552 332 546 332 c 0
 460 335 217 335 141 332 c 0
 133 332 130 335 130 341 c 2
388 173 m 2
 295 173 l 2
 289 173 286 177 286 185 c 0
 289 262 289 502 286 588 c 0
 286 597 289 599 295 599 c 2
 388 597 l 2
 394 597 397 594 397 588 c 0
 394 502 394 261 397 185 c 0
 397 177 394 173 388 173 c 2
130 8 m 2
 130 101 l 2
 130 107 133 110 141 110 c 0
 218 107 460 107 546 110 c 0
 555 110 556 107 556 101 c 2
 555 8 l 2
 555 2 552 -1 546 -1 c 0
 460 2 217 2 141 -1 c 0
 133 -1 130 2 130 8 c 2
EndSplineSet
EndChar

StartChar: perthousand
Encoding: 8240 8240 150
GlifName: perthousand
Width: 1103
Flags: HMW
HStem: 0 44<575 618 575 648 908 951> 280 44<157 200 157 228> 330 44<575 618 908 951> 610 44<157 200>
VStem: 36 83<425 514 425 516> 235 83<425 514> 455 83<145 234 145 236> 654 83<145 234> 787 83<145 234 145 236> 986 83<145 234>
LayerCount: 2
Back
Fore
SplineSet
157 5 m 2
 117 39 l 2
 111 44 111 48 117 54 c 0
 170 112 551 581 603 649 c 0
 609 655 611 655 617 650 c 2
 657 615 l 2
 663 611 663 607 658 601 c 0
 603 535 218 67 172 8 c 0
 167 2 162 1 157 5 c 2
735 191 m 0
 735 92 698 0 597 0 c 0
 494 0 455 92 455 191 c 0xdc40
 455 283 494 374 597 374 c 0
 698 374 735 283 735 191 c 0
654 191 m 0
 654 276 640 330 597 330 c 0
 554 330 537 276 537 191 c 0
 537 99 554 44 597 44 c 0
 640 44 654 99 654 191 c 0
317 471 m 0
 317 372 279 280 178 280 c 0xa0c0
 75 280 36 372 36 471 c 0
 36 563 75 654 178 654 c 0
 279 654 317 563 317 471 c 0
235 471 m 0
 235 556 221 610 178 610 c 0
 135 610 117 556 117 471 c 0xa0c0
 117 379 135 324 178 324 c 0xdc40
 221 324 235 379 235 471 c 0
1068 191 m 0
 1068 92 1030 0 929 0 c 0
 826 0 787 92 787 191 c 0
 787 283 826 374 929 374 c 0
 1030 374 1068 283 1068 191 c 0
986 191 m 0
 986 276 972 330 929 330 c 0
 886 330 868 276 868 191 c 0
 868 99 886 44 929 44 c 0
 972 44 986 99 986 191 c 0
EndSplineSet
EndChar

StartChar: twosuperior
Encoding: 178 178 151
GlifName: twosuperior
Width: 274
Flags: HMW
HStem: 397 62<360 385> 463 30<431 461> 734 32<339 364>
VStem: 239 70<685 701 685 710> 394 71<677 702> 431 34<463 463>
LayerCount: 2
Back
Fore
SplineSet
239 680 m 0xb4
 239 739 280 766 363 766 c 0
 435 766 465 735 465 692 c 0
 465 664 455 631 400 566 c 0
 373 532 314 459 314 459 c 1xb8
 426 459 l 1
 426 459 428 460 431 463 c 2
 431 463 436 483 437 486 c 0
 440 491 440 493 444 493 c 2
 444 493 456 493 461 493 c 0
 464 493 465 491 465 486 c 0x74
 465 483 466 409 465 401 c 0
 464 397 462 397 459 397 c 2
 459 397 397 397 372 397 c 0
 347 397 244 397 244 397 c 2
 240 397 239 398 239 401 c 2
 239 427 l 2
 239 431 240 431 243 434 c 2xb4
 339 563 l 2
 388 633 394 669 394 686 c 0xb8
 394 718 375 734 354 734 c 0
 324 734 308 716 308 685 c 0
 309 660 295 646 274 646 c 0
 249 646 239 661 239 680 c 0xb4
EndSplineSet
EndChar

StartChar: onesuperior
Encoding: 185 185 152
GlifName: onesuperior
Width: 251
Flags: HMW
HStem: 397 31<92 143> 685 74<43 159>
VStem: 95 68<434 679 679 679> 168 37<400 428>
LayerCount: 2
Back
Fore
SplineSet
165 754 m 2
 165 434 l 1
 165 434 164 431 168 428 c 2
 168 428 197 426 203 423 c 1
 203 423 205 422 205 419 c 2
 205 419 205 405 205 401 c 0
 205 398 204 397 200 397 c 2
 200 397 157 397 132 397 c 0xd0
 107 397 58 397 58 397 c 2
 54 397 53 398 53 401 c 0
 53 405 53 419 53 419 c 2
 53 422 55 423 55 423 c 1
 61 426 92 428 92 428 c 2
 97 431 95 434 95 434 c 1
 95 679 l 1
 95 679 96 685 90 685 c 2
 43 685 l 2
 40 685 37 685 37 688 c 2
 37 688 37 699 37 705 c 0
 37 708 39 709 43 712 c 0
 44 713 114 752 120 757 c 0
 123 758 137 759 143 759 c 0
 152 759 156 759 159 759 c 0
 164 759 165 757 165 754 c 2
EndSplineSet
EndChar

StartChar: multiply
Encoding: 215 215 153
GlifName: multiply
Width: 487
Flags: HMW
HStem: 84 378
VStem: 55 377
LayerCount: 2
Back
Fore
SplineSet
130 86 m 2
 63 154 l 2
 58 158 59 161 65 166 c 0
 119 220 288 392 346 457 c 0
 352 463 355 462 359 458 c 2
 426 392 l 2
 430 388 431 384 425 379 c 0
 364 318 197 144 145 89 c 0
 140 83 135 82 130 86 c 2
430 156 m 2
 366 89 l 2
 361 84 357 85 351 90 c 0
 297 145 124 314 59 372 c 0
 53 378 54 382 59 386 c 2
 125 452 l 2
 129 456 132 457 137 452 c 0
 199 389 371 222 428 170 c 0
 434 164 434 161 430 156 c 2
EndSplineSet
EndChar

StartChar: asciitilde
Encoding: 126 126 155
GlifName: asciitilde
Width: 597
Flags: HMW
HStem: 152 137<372 387 338 449> 226 132<192 215 141 241>
VStem: 39 112<141 172 141 215> 428 114<338 368>
LayerCount: 2
Back
Fore
SplineSet
428 368 m 1xb0
 543 368 l 1
 543 209 483 152 415 152 c 0xb0
 329 152 274 226 208 226 c 0
 176 226 151 203 151 141 c 1
 39 141 l 1
 39 291 103 357 177 357 c 0x70
 254 357 306 289 372 289 c 0
 403 289 428 309 428 368 c 1xb0
EndSplineSet
EndChar

StartChar: ordfeminine
Encoding: 170 170 162
GlifName: ordfeminine
Width: 367
Flags: HMW
HStem: 453 9 706 44<293 335>
VStem: 165 98<492 524 492 565> 175 93<650 680> 354 97<474 555 555 555 597 630 630 653 453 657>
LayerCount: 2
Back
Fore
SplineSet
443 458 m 2xe8
 465 458 467 485 468 508 c 0
 469 518 477 521 489 521 c 0
 499 521 506 516 506 508 c 0
 506 422 473 399 414 399 c 0
 380 399 352 414 352 444 c 0
 352 474 443 458 443 458 c 2xe8
305 455 m 0
 324 455 339 464 354 474 c 1
 354 555 l 1
 323 557 l 2
 275 560 263 536 263 508 c 0
 263 472 274 455 305 455 c 0
175 665 m 0xd8
 174 730 224 750 325 750 c 0
 428 750 452 706 452 653 c 2
 452 453 l 1
 430 447 409 441 354 428 c 1
 326 413 294 401 257 401 c 0
 199 401 165 437 165 512 c 0xe8
 165 619 300 605 354 597 c 1
 354 630 l 2
 354 683 359 706 311 706 c 0
 276 706 268 697 268 665 c 0
 267 639 256 626 219 626 c 0
 192 626 175 638 175 665 c 0xd8
EndSplineSet
EndChar

StartChar: copyright
Encoding: 169 169 164
GlifName: copyright
Width: 843
Flags: HMW
HStem: -15 68<360 533 360 539> 295 126<581 594> 686 68<338 484>
VStem: 40 84<262 466 252 479> 720 85<299 483>
LayerCount: 2
Back
Fore
SplineSet
423 -15 m 0
 189 -15 40 154 40 369 c 0
 40 588 210 755 423 755 c 0
 644 755 805 597 805 369 c 0
 805 154 655 -15 423 -15 c 0
422 52 m 0
 643 52 720 230 720 368 c 0
 720 598 545 686 422 686 c 0
 254 686 124 563 124 368 c 0
 124 134 299 52 422 52 c 0
418 123 m 0
 538 123 605 197 605 283 c 0
 605 291 600 295 587 295 c 0
 575 295 570 292 570 283 c 0
 570 213 513 173 427 173 c 0
 353 173 311 233 311 361 c 0
 311 489 345 546 413 546 c 0
 485 546 536 523 554 457 c 1
 554 457 554 445 557 426 c 1
 557 426 559 422 564 422 c 2
 564 422 594 421 600 422 c 0
 603 423 605 423 605 428 c 2
 605 428 603 468 603 505 c 0
 603 540 604 566 604 566 c 2
 605 571 602 573 599 573 c 0
 591 573 575 573 575 573 c 2
 571 573 569 569 569 569 c 1
 566 561 561 542 561 542 c 1
 533 569 491 597 412 597 c 0
 273 597 206 518 206 361 c 0
 206 204 270 123 418 123 c 0
EndSplineSet
EndChar

StartChar: numbersign
Encoding: 35 35 167
GlifName: numbersign
Width: 778
Flags: HMW
HStem: 0 21G<126 132 132 219 370 375 375 463> 255 101 448 98
VStem: 43 705
LayerCount: 2
Back
Fore
SplineSet
219 0 m 2
 132 0 l 2
 123 0 121 5 124 13 c 0
 149 89 298 694 315 779 c 0
 318 787 319 788 329 788 c 2
 417 788 l 2
 426 788 428 781 425 775 c 0
 400 692 253 98 232 8 c 0
 229 2 227 0 219 0 c 2
92 455 m 2
 101 539 l 2
 104 548 106 548 115 548 c 0
 387 544 432 545 737 551 c 0
 746 551 749 548 746 539 c 2
 726 454 l 2
 723 446 722 444 716 444 c 0
 430 449 361 450 102 444 c 0
 96 444 89 447 92 455 c 2
563 788 m 2
 652 788 l 2
 661 788 661 783 658 775 c 0
 633 699 494 94 477 9 c 0
 474 1 473 0 463 0 c 2
 375 0 l 2
 366 0 363 6 366 12 c 0
 394 118 536 705 550 779 c 0
 553 785 555 788 563 788 c 2
43 263 m 2
 63 347 l 2
 66 356 68 357 77 357 c 0
 329 357 417 353 689 359 c 0
 698 359 701 357 698 348 c 2
 677 262 l 2
 674 254 674 252 668 252 c 0
 396 258 329 258 54 252 c 0
 48 252 40 255 43 263 c 2
EndSplineSet
EndChar

StartChar: dollar
Encoding: 36 36 168
GlifName: dollar
Width: 656
Flags: HMW
HStem: 31 75<308 363 285 417> 65 197<114 120> 248 13 670 75<298 347 230 369> 703 9
VStem: 57 74<72 212 212 212 212 248 212 253> 72 156<565 617> 114 9<65 72> 116 6<257 263> 288 75 311 74 443 155<169 244> 512 75<564 564>
LayerCount: 2
Back
Fore
SplineSet
378 -22 m 2x9428
 319 -25 l 2
 313 -25 312 -21 311 -15 c 0
 310 44 291 737 288 803 c 0
 287 808 289 810 295 810 c 2
 355 813 l 2
 361 813 362 811 363 805 c 0x9250
 366 739 382 44 385 -13 c 0
 386 -19 383 -22 378 -22 c 2x9428
135 105 m 1
 135 105 128 84 123 72 c 1
 123 72 120 66 114 65 c 2x5148
 114 65 71 62 65 63 c 0
 59 62 56 64 57 72 c 2x5448
 57 72 57 128 57 174 c 0
 57 223 57 248 57 248 c 2xb448
 57 257 59 260 65 261 c 0xb0c8
 71 262 116 263 116 263 c 2
 122 263 123 257 123 257 c 1
 129 231 132 212 132 212 c 1
 154 132 239 106 332 106 c 0
 394 106 443 138 443 197 c 0xb450
 443 290 302 317 225 363 c 0
 119 428 72 485 72 564 c 0
 72 670 160 745 299 745 c 0
 394 745 437 723 508 671 c 1x9248
 508 671 519 690 523 703 c 1
 523 703 526 710 532 710 c 2
 532 710 575 712 581 712 c 0
 586 712 589 711 588 702 c 2x8c48
 588 702 587 648 587 600 c 0
 587 551 587 526 587 526 c 2
 587 517 584 515 579 515 c 0
 571 514 528 512 528 512 c 2
 520 512 519 517 519 517 c 1
 515 544 512 564 512 564 c 2x9448
 506 623 407 670 332 670 c 0
 264 670 228 647 228 594 c 0
 228 536 282 505 388 455 c 0
 545 381 597 329 597 230 c 0
 597 92 495 31 338 31 c 0
 280 31 196 50 135 105 c 1
EndSplineSet
EndChar

StartChar: registered
Encoding: 174 174 169
GlifName: registered
Width: 620
Flags: HMW
HStem: 276 45<274 388 274 392> 419 95<210 311 265 277> 507 21G<295 295> 548 105<293 311 265 323> 745 46<259 356>
VStem: 59 55<461 597 454 605> 192 18<409 409 403 685> 277 18 514 55<486 609>
LayerCount: 2
Back
Fore
SplineSet
315 276 m 0xaf80
 159 276 59 389 59 532 c 0
 59 679 173 790 315 790 c 0
 463 790 570 686 570 532 c 0
 570 387 470 276 315 276 c 0xaf80
315 321 m 0
 462 321 514 440 514 532 c 0
 514 686 398 745 315 745 c 0
 203 745 116 662 116 532 c 0
 116 376 232 321 315 321 c 0
210 419 m 1
 210 419 210 416 206 415 c 2
 206 415 197 412 192 409 c 2
 192 409 188 409 188 406 c 2
 188 406 188 394 188 391 c 0
 188 388 191 387 194 387 c 2
 194 387 222 388 243 388 c 0
 264 388 295 387 295 387 c 2
 299 387 299 388 299 391 c 0
 299 394 299 406 299 406 c 2
 299 409 297 409 297 409 c 2
 291 412 281 415 281 415 c 2
 277 416 277 419 277 419 c 1
 210 419 l 1
277 403 m 1
 277 681 l 1
 210 681 l 1
 210 403 l 1
 277 403 l 1
210 652 m 1
 247 653 282 653 305 653 c 0
 342 653 356 636 356 597 c 0
 356 558 338 548 311 548 c 0
 296 547 282 547 265 548 c 1
 265 515 l 1
 279 515 294 515 311 515 c 0
 373 515 415 548 415 594 c 0
 415 657 390 685 311 685 c 0
 289 685 264 684 228 684 c 0
 209 684 192 685 192 685 c 2
 189 685 188 685 188 681 c 0
 188 678 188 661 188 661 c 2
 188 658 191 657 191 657 c 2
 196 654 210 652 210 652 c 1
421 419 m 1
 409 416 375 416 372 415 c 2
 372 415 362 412 356 409 c 1
 356 409 354 406 354 403 c 2
 354 403 356 396 359 391 c 0
 360 388 361 387 364 387 c 2
 364 387 382 388 403 388 c 0
 424 388 443 387 443 387 c 2
 446 387 446 388 446 391 c 0
 446 394 446 406 446 406 c 2
 446 409 444 409 444 409 c 2
 439 412 425 415 425 415 c 2
 422 416 421 419 421 419 c 1
427 406 m 1
 357 547 l 1
 295 526 l 1x21
 355 401 l 1
 427 406 l 1
EndSplineSet
EndChar

StartChar: degree
Encoding: 176 176 170
GlifName: degree
Width: 485
Flags: HMW
HStem: 372 99<218 277 218 303> 690 101<210 261>
VStem: 34 105<539 614 539 640> 343 105<556 619>
LayerCount: 2
Back
Fore
SplineSet
240 372 m 0
 114 372 34 465 34 581 c 0
 34 701 125 790 240 790 c 0
 361 790 448 706 448 581 c 0
 448 464 366 372 240 372 c 0
239 471 m 0
 316 471 343 535 343 581 c 0
 343 660 282 690 239 690 c 0
 182 690 137 649 137 581 c 0
 137 500 196 471 239 471 c 0
EndSplineSet
EndChar

StartChar: cent
Encoding: 162 162 171
GlifName: cent
Width: 525
Flags: HMW
HStem: 116 86<262 338> 603 67<231 311>
VStem: 25 160<397 400 400 406 406 472 350 516> 221 75 243 74 348 146<483 511>
LayerCount: 2
Back
Fore
SplineSet
317 203 m 0xf4
 369 203 401 231 415 275 c 0
 418 281 418 284 422 284 c 0
 458 285 485 289 490 289 c 0
 493 289 494 286 493 280 c 0
 487 188 409 116 267 116 c 0
 101 116 25 225 25 397 c 2
 25 400 l 1
 25 406 l 2
 25 623 156 670 284 670 c 0
 450 670 494 580 494 486 c 0
 494 480 492 477 486 477 c 0
 482 477 405 480 355 477 c 0
 349 477 348 480 348 486 c 0
 348 535 349 603 274 603 c 0
 189 603 185 536 185 406 c 0
 185 292 209 203 317 203 c 0xf4
308 -17 m 2xec
 250 -21 l 2
 244 -21 244 -18 243 -12 c 0
 242 47 224 725 221 791 c 0
 220 796 222 799 228 799 c 2
 288 803 l 2
 294 803 294 800 295 794 c 0xf4
 298 728 313 49 316 -8 c 0
 317 -14 313 -17 308 -17 c 2xec
EndSplineSet
EndChar

StartChar: exclam
Encoding: 33 33 175
GlifName: exclam
Width: 353
Flags: HMW
HStem: 5 168<152 197>
VStem: 89 170<739 746>
LayerCount: 2
Back
Fore
SplineSet
92 89 m 0
 92 135 129 173 175 173 c 0
 221 173 259 135 259 89 c 0
 259 43 221 5 175 5 c 0
 129 5 92 43 92 89 c 0
105 757 m 2
 245 757 l 2
 257 757 259 752 259 739 c 0
 256 609 246 430 223 235 c 0
 222 221 219 219 209 219 c 2
 138 219 l 2
 126 219 124 222 123 234 c 0
 104 429 92 611 89 739 c 0
 89 752 93 757 105 757 c 2
EndSplineSet
EndChar

StartChar: Euro
Encoding: 8364 8364 176
GlifName: E_uro
Width: 548
Flags: HMW
HStem: -10 77<262 337> 259 75<-41 -9 -45 360 -41 -9 -45 -8> 382 75<-41 -9 -45 360 -41 -9 -45 -8> 655 77<246 329 183 338> 688 6
VStem: 26 145<281 443 252 446> 457 74 475 53
LayerCount: 2
Back
Fore
SplineSet
308 67 m 0xf6
 370 67 429 101 448 120 c 0
 452 124 452 126 453 132 c 0
 456 171 457 203 457 215 c 0
 457 223 460 226 466 226 c 0
 471 226 523 226 523 226 c 2
 528 226 532 223 532 215 c 0
 532 178 530 139 530 95 c 0
 530 89 529 89 526 86 c 0
 492 64 410 -10 265 -10 c 0
 84 -10 26 194 26 366 c 0
 26 526 84 732 283 732 c 0
 375 732 419 687 463 646 c 1xf6
 463 646 470 675 475 688 c 1
 475 688 479 695 485 695 c 2xed
 485 695 510 695 523 695 c 0
 527 695 530 693 529 685 c 2
 529 685 528 641 528 588 c 0xee
 528 529 532 472 532 472 c 2
 532 464 529 462 523 461 c 0
 515 460 467 461 467 461 c 2
 459 461 458 468 458 468 c 1
 454 496 450 515 450 515 c 1
 415 622 378 655 297 655 c 0
 196 655 170 516 170 366 c 0
 170 135 216 67 308 67 c 0xf6
369 388 m 0
 369 382 366 382 360 382 c 0
 301 383 25 382 -41 382 c 0
 -46 381 -49 384 -49 390 c 0
 -49 411 -50 429 -50 450 c 0
 -50 456 -49 457 -43 457 c 0
 23 457 302 454 359 455 c 0
 365 455 368 453 368 448 c 0
 368 427 369 409 369 388 c 0
369 266 m 0
 369 260 366 259 360 259 c 0
 301 260 25 259 -41 259 c 0
 -46 258 -49 261 -49 267 c 0
 -49 288 -50 305 -50 326 c 0
 -50 332 -49 334 -43 334 c 0
 23 334 302 332 359 333 c 0
 365 333 368 330 368 325 c 0
 368 304 369 287 369 266 c 0
EndSplineSet
EndChar

StartChar: cedilla
Encoding: 184 184 178
GlifName: cedilla
Width: 325
Flags: HMW
HStem: -197 36 -83 37
VStem: 108 55 172 59<-137 -115>
LayerCount: 2
Back
Fore
SplineSet
116 -79 m 0
 108 -78 107 -75 108 -67 c 2
 125 65 l 2
 126 71 129 73 137 72 c 2
 172 67 l 2
 178 66 180 63 179 55 c 0xf0
 169 -21 172 16 164 -45 c 1
 210 -51 231 -75 231 -120 c 0
 231 -182 187 -209 93 -194 c 0
 84 -193 82 -189 83 -183 c 0
 84 -175 84 -169 84 -169 c 2
 87 -159 92 -161 92 -161 c 1
 137 -167 172 -150 172 -123 c 0
 172 -106 169 -88 150 -83 c 0
 135 -80 128 -80 116 -79 c 0
EndSplineSet
EndChar

StartChar: parenleft
Encoding: 40 40 180
GlifName: parenleft
Width: 341
Flags: HMW
HStem: -145 935
VStem: 43 119<321 324 321 323 321 323 321 323 323 326 323 324 323 324 323 324 324 325 324 325 324 325 324 326 325 365 283 428 326 326 326 326 326 326>
LayerCount: 2
Back
Fore
SplineSet
43 323 m 1
 43 326 l 1
 43 326 l 1
 43 326 l 1
 43 326 l 1
 43 324 l 1
 43 325 l 1
 43 324 l 1
 43 325 l 2
 43 531 171 722 281 788 c 0
 289 793 291 793 294 788 c 2
 307 772 l 2
 311 767 311 762 306 757 c 0
 180 631 163 407 163 324 c 0
 163 241 180 16 306 -110 c 0
 311 -115 311 -118 307 -123 c 2
 294 -139 l 2
 291 -144 289 -146 281 -141 c 0
 171 -75 43 117 43 323 c 2
 43 324 l 1
 43 323 l 1
 43 324 l 1
 43 321 l 1
 43 323 l 1
 43 321 l 1
 43 323 l 1
EndSplineSet
EndChar

StartChar: parenright
Encoding: 41 41 181
GlifName: parenright
Width: 327
Flags: HMW
HStem: -145 935
VStem: 175 119<283 323 323 324 324 326 326 326 219 365>
LayerCount: 2
Back
Fore
SplineSet
294 326 m 1
 294 323 l 1
 294 321 l 1
 294 323 l 1
 294 321 l 1
 294 324 l 1
 294 323 l 1
 294 324 l 1
 294 323 l 2
 294 117 165 -75 55 -141 c 0
 47 -146 46 -144 43 -139 c 2
 30 -123 l 2
 26 -118 26 -115 31 -110 c 0
 157 16 175 241 175 324 c 0
 175 407 157 631 31 757 c 0
 26 762 26 767 30 772 c 2
 43 788 l 2
 46 793 47 793 55 788 c 0
 165 722 294 531 294 325 c 2
 294 324 l 1
 294 325 l 1
 294 324 l 1
 294 326 l 1
 294 326 l 1
 294 326 l 1
EndSplineSet
EndChar

StartChar: exclamdown
Encoding: 161 161 182
GlifName: exclamdown
Width: 320
Flags: HMW
HStem: 356 168<132 178>
VStem: 68 170<-217 -210>
LayerCount: 2
Back
Fore
SplineSet
71 440 m 0
 71 486 109 524 155 524 c 0
 201 524 239 486 239 440 c 0
 239 394 201 356 155 356 c 0
 109 356 71 394 71 440 c 0
225 -228 m 2
 84 -228 l 2
 72 -228 68 -223 68 -210 c 0
 71 -82 84 100 103 295 c 0
 104 307 105 310 117 310 c 2
 188 310 l 2
 198 310 202 308 203 294 c 0
 226 99 236 -80 239 -210 c 0
 239 -223 237 -228 225 -228 c 2
EndSplineSet
EndChar

StartChar: Eth
Encoding: 208 208 183
GlifName: E_th
Width: 767
Flags: HMW
HStem: 5 77 332 89<4 101> 674 80<305 326>
VStem: 101 170<86 333 83 333 421 668 668 668 668 668> 542 173<286 511>
LayerCount: 2
Back
Fore
SplineSet
101 421 m 1
 101 668 l 1
 101 668 l 1
 101 668 50 678 36 683 c 1
 36 683 28 686 28 692 c 2
 28 745 l 2
 28 754 34 754 40 754 c 2
 40 754 99 750 145 750 c 0
 237 750 277 754 332 754 c 0
 615 754 715 643 715 397 c 0
 715 175 622 3 332 3 c 0
 277 3 237 5 145 5 c 0
 99 5 40 3 40 3 c 2
 34 3 28 3 28 12 c 2
 28 63 l 2
 28 69 36 72 36 72 c 1
 50 77 101 86 101 86 c 1
 101 333 l 1
 51 333 33 332 8 332 c 0
 0 332 -3 335 -3 341 c 2
 -3 414 l 2
 -3 420 0 423 8 423 c 0
 33 422 51 421 101 421 c 1
326 674 m 2
 270 674 l 1
 270 421 l 1
 316 421 350 422 377 423 c 0
 386 423 387 420 387 414 c 2
 386 341 l 2
 386 335 383 332 377 332 c 0
 350 332 316 333 270 333 c 1
 270 83 l 1
 326 83 l 2
 495 83 542 143 542 395 c 0
 542 627 489 674 326 674 c 2
EndSplineSet
EndChar

StartChar: question
Encoding: 63 63 184
GlifName: question
Width: 532
Flags: HMW
HStem: 5 168<188 234> 685 83<234 250>
VStem: 46 88<568 606 568 645> 126 168<66 112> 157 101<228 276> 317 169<572 621>
LayerCount: 2
Back
Fore
SplineSet
126 89 m 0xd4
 126 135 166 173 212 173 c 0
 258 173 295 135 295 89 c 0
 295 43 258 5 212 5 c 0
 166 5 126 43 126 89 c 0xd4
46 572 m 0xe4
 46 720 165 768 302 768 c 0
 432 768 486 685 486 618 c 0
 486 524 448 465 365 419 c 0
 284 373 258 318 258 235 c 0
 258 221 254 219 244 219 c 2
 173 219 l 2
 161 219 157 222 157 234 c 0xec
 157 318 183 386 244 432 c 0
 318 487 317 534 317 588 c 0
 317 653 277 685 225 685 c 0
 179 685 135 644 135 569 c 0
 135 566 136 560 124 560 c 2
 124 560 63 560 55 560 c 0
 49 560 46 563 46 572 c 0xe4
EndSplineSet
EndChar

StartChar: ampersand
Encoding: 38 38 185
GlifName: ampersand
Width: 939
Flags: HMW
HStem: -15 89<347 458 347 485> -12 114<692 707 692 720> 338 15 372 45 706 62<328 372>
VStem: 66 157<175 262> 172 111<608 648 608 661> 428 81<597 653> 779 6<363 372>
LayerCount: 2
Back
Fore
SplineSet
654 338 m 2xad80
 652 338 l 1xad80
 652 338 655 347 643 351 c 2
 643 351 617 358 603 363 c 1
 603 363 595 366 595 372 c 2xbd80
 595 372 595 402 595 410 c 0
 595 416 597 419 606 419 c 2
 606 419 631 417 684 417 c 0xad80
 696 417 775 419 775 419 c 2
 784 419 787 416 787 410 c 0
 787 402 787 372 787 372 c 2
 787 367 779 363 779 363 c 1xbd80
 741 351 l 2
 731 347 726 338 726 338 c 1
 718 338 669 338 654 338 c 2xad80
667 -12 m 0x6b80
 525 -12 435 208 283 404 c 0
 244 454 172 535 172 612 c 0xab80
 172 707 247 768 352 768 c 0
 447 768 508 708 508 625 c 0
 508 566 497 513 403 427 c 0
 331 361 225 316 225 214 c 0
 225 138 300 74 392 74 c 0
 524 74 600 124 652 345 c 0
 658 372 726 338 726 338 c 1
 677 135 591 -15 379 -15 c 0
 162 -15 66 83 66 203 c 0xad80
 66 322 218 378 326 450 c 0
 401 500 428 570 428 625 c 0
 428 682 393 706 350 706 c 0
 306 706 283 670 283 625 c 0
 283 591 295 566 352 486 c 0
 413 401 593 102 692 103 c 0
 723 103 754 117 813 194 c 0
 819 200 828 198 849 186 c 0
 871 174 871 163 868 157 c 0
 825 47 773 -12 667 -12 c 0x6b80
EndSplineSet
EndChar

StartChar: asterisk
Encoding: 42 42 186
GlifName: asterisk
Width: 383
Flags: HMW
HStem: 501 329<139 194 141 194>
VStem: 135 63<505 507 505 524 822 825>
LayerCount: 2
Back
Fore
SplineSet
284 783 m 2
 315 739 l 2
 318 736 318 735 314 732 c 0
 282 709 250 689 205 663 c 1
 249 637 281 618 312 596 c 0
 317 593 317 591 316 588 c 2
 284 545 l 2
 281 542 279 542 276 545 c 0
 248 566 223 587 192 615 c 1
 196 572 198 541 199 507 c 0
 199 502 198 501 194 501 c 2
 141 501 l 2
 137 501 135 502 135 507 c 0
 135 541 138 572 143 615 c 1
 111 587 86 566 58 545 c 0
 55 542 53 542 50 545 c 2
 18 588 l 2
 17 591 17 593 22 596 c 0
 53 618 84 637 129 663 c 1
 83 689 53 709 21 732 c 0
 17 735 16 736 19 739 c 2
 50 783 l 2
 53 786 55 785 58 782 c 0
 85 761 109 739 143 711 c 1
 138 754 135 787 135 822 c 0
 135 827 137 828 141 828 c 2
 194 828 l 2
 198 828 199 827 199 822 c 0
 198 787 197 755 192 712 c 1
 224 740 248 761 276 782 c 0
 279 785 281 786 284 783 c 2
EndSplineSet
EndChar

StartChar: less
Encoding: 60 60 187
GlifName: less
Width: 516
Flags: HMW
HStem: 46 596
VStem: 57 385
LayerCount: 2
Back
Fore
SplineSet
59 338 m 0
 54 343 56 346 62 352 c 0
 117 405 298 575 357 637 c 0
 363 643 368 643 372 639 c 2
 436 572 l 2
 441 568 441 565 436 560 c 0
 390 516 280 417 208 343 c 1
 280 271 391 172 437 128 c 0
 442 123 442 120 437 116 c 2
 372 49 l 2
 368 45 365 44 359 50 c 0
 264 151 154 244 59 338 c 0
EndSplineSet
EndChar

StartChar: greater
Encoding: 62 62 188
GlifName: greater
Width: 530
Flags: HMW
HStem: 46 596
VStem: 55 385
LayerCount: 2
Back
Fore
SplineSet
437 338 m 0
 342 244 233 151 138 50 c 0
 132 44 129 45 125 49 c 2
 59 116 l 2
 54 120 54 123 59 128 c 0
 105 172 217 271 289 343 c 1
 217 417 107 516 61 560 c 0
 56 565 56 568 61 572 c 2
 126 639 l 2
 130 643 133 643 139 637 c 0
 198 575 380 405 435 352 c 0
 441 346 442 343 437 338 c 0
EndSplineSet
EndChar

StartChar: guillemotleft
Encoding: 171 171 189
GlifName: guillemotleft
Width: 767
Flags: HMW
HStem: 46 596
VStem: 57 637
LayerCount: 2
Back
Fore
SplineSet
59 338 m 0
 54 343 56 346 62 352 c 0
 117 405 298 575 357 637 c 0
 363 643 368 643 372 639 c 2
 436 572 l 2
 441 568 441 565 436 560 c 0
 390 516 280 417 208 343 c 1
 280 271 391 172 437 128 c 0
 442 123 442 120 437 116 c 2
 372 49 l 2
 368 45 365 44 359 50 c 0
 264 151 154 244 59 338 c 0
314 338 m 0
 309 343 309 346 315 352 c 0
 370 405 553 575 612 637 c 0
 618 643 621 643 625 639 c 2
 689 572 l 2
 694 568 694 565 689 560 c 0
 643 516 533 417 461 343 c 1
 533 271 644 172 690 128 c 0
 695 123 695 120 690 116 c 2
 625 49 l 2
 621 45 618 44 612 50 c 0
 517 151 409 244 314 338 c 0
EndSplineSet
EndChar

StartChar: guillemotright
Encoding: 187 187 190
GlifName: guillemotright
Width: 754
Flags: HMW
HStem: 46 596
VStem: 55 637
LayerCount: 2
Back
Fore
SplineSet
690 338 m 0
 595 244 486 151 391 50 c 0
 385 44 382 45 378 49 c 2
 314 116 l 2
 309 120 309 123 314 128 c 0
 360 172 470 271 542 343 c 1
 470 417 360 516 314 560 c 0
 309 565 309 568 314 572 c 2
 379 639 l 2
 383 643 386 643 392 637 c 0
 451 575 633 405 688 352 c 0
 694 346 695 343 690 338 c 0
437 338 m 0
 342 244 233 151 138 50 c 0
 132 44 129 45 125 49 c 2
 59 116 l 2
 54 120 54 123 59 128 c 0
 105 172 217 271 289 343 c 1
 217 417 107 516 61 560 c 0
 56 565 56 568 61 572 c 2
 126 639 l 2
 130 643 133 643 139 637 c 0
 198 575 380 405 435 352 c 0
 441 346 442 343 437 338 c 0
EndSplineSet
EndChar

StartChar: questiondown
Encoding: 191 191 191
GlifName: questiondown
Width: 520
Flags: HMW
HStem: 311 214<272 333 286 333 286 348> 357 168<286 333>
VStem: 204 182<-76 -37 -76 -31> 226 168<418 465>
LayerCount: 2
Back
Fore
SplineSet
394 441 m 0x50
 394 395 356 357 310 357 c 0
 264 357 226 395 226 441 c 0
 226 487 264 525 310 525 c 0
 356 525 394 487 394 441 c 0x50
474 -41 m 0
 474 -32 471 -30 465 -30 c 0
 457 -30 397 -30 397 -30 c 2
 385 -30 386 -36 386 -39 c 0
 386 -114 343 -155 297 -155 c 0
 245 -155 204 -123 204 -58 c 0
 204 -4 203 43 277 98 c 0x60
 338 144 363 211 363 295 c 0
 363 307 360 311 348 311 c 2
 277 311 l 2
 267 311 263 309 263 295 c 0x90
 263 212 237 157 156 111 c 0
 73 65 35 6 35 -88 c 0
 35 -155 89 -237 219 -237 c 0
 356 -237 474 -189 474 -41 c 0
EndSplineSet
EndChar

StartChar: fraction
Encoding: 8260 8260 192
GlifName: fraction
Width: 247
Flags: HMW
HStem: 1 21G<31 31>
VStem: -55 363
LayerCount: 2
Back
Fore
SplineSet
31 1 m 2
 -49 28 l 2
 -57 31 -58 35 -54 43 c 0
 -22 117 178 683 205 766 c 0
 208 774 212 775 218 772 c 2
 299 743 l 2
 305 740 308 738 305 730 c 0
 274 650 67 80 44 8 c 0
 41 2 37 -2 31 1 c 2
EndSplineSet
EndChar

StartChar: underscore
Encoding: 95 95 193
GlifName: underscore
Width: 598
Flags: HMW
HStem: -197 83<535 587 535 587>
VStem: 6 587<-186 -126 -191 -123 -191 -117>
LayerCount: 2
Back
Fore
SplineSet
6 -186 m 2
 6 -123 l 2
 6 -115 9 -114 17 -114 c 0
 98 -114 488 -115 585 -115 c 0
 591 -115 594 -118 594 -126 c 2
 594 -188 l 2
 594 -194 591 -197 583 -197 c 0
 469 -197 120 -196 17 -196 c 0
 9 -196 6 -192 6 -186 c 2
EndSplineSet
EndChar

StartChar: endash
Encoding: 8211 8211 194
GlifName: endash
Width: 729
Flags: HMW
HStem: 213 111<77 215 77 644>
VStem: 67 587<222 317 315 317 315 319>
LayerCount: 2
Back
Fore
SplineSet
67 222 m 2
 67 315 l 2
 67 321 69 324 77 324 c 0
 318 324 345 324 644 324 c 0
 653 324 654 321 654 315 c 2
 653 222 l 2
 653 216 650 213 644 213 c 0
 329 213 352 213 77 213 c 0
 69 213 67 216 67 222 c 2
EndSplineSet
EndChar

StartChar: emdash
Encoding: 8212 8212 195
GlifName: emdash
Width: 832
Flags: HMW
HStem: 213 111<86 225 86 755>
VStem: 76 689<222 317 315 317 315 319>
LayerCount: 2
Back
Fore
SplineSet
76 222 m 2
 76 315 l 2
 76 321 78 324 86 324 c 0
 327 324 456 324 755 324 c 0
 764 324 765 321 765 315 c 2
 764 222 l 2
 764 216 761 213 755 213 c 0
 440 213 361 213 86 213 c 0
 78 213 76 216 76 222 c 2
EndSplineSet
EndChar

StartChar: Oslash
Encoding: 216 216 196
GlifName: O_slash
Width: 815
Flags: HMW
HStem: -12 83<360 477 360 533> 681 83<360 477>
VStem: 84 170<275 483 275 507> 585 170<275 483>
LayerCount: 2
Back
Fore
SplineSet
66 -8 m 2
 31 28 l 2
 26 33 28 39 34 45 c 0
 184 199 652 669 745 763 c 0
 750 769 753 769 759 764 c 2
 797 726 l 2
 805 720 804 716 800 712 c 0
 723 633 179 91 81 -4 c 0
 73 -13 70 -12 66 -8 c 2
419 681 m 0
 302 681 254 587 254 379 c 0
 254 171 302 71 419 71 c 0
 536 71 585 171 585 379 c 0
 585 587 536 681 419 681 c 0
419 -12 m 0
 191 -12 84 121 84 378 c 0
 84 636 191 764 419 764 c 0
 647 764 754 636 754 378 c 0
 754 121 647 -12 419 -12 c 0
EndSplineSet
EndChar

StartChar: braceleft
Encoding: 123 123 197
GlifName: braceleft
Width: 496
Flags: HMW
HStem: -173 974<228 312>
VStem: 166 71
LayerCount: 2
Back
Fore
SplineSet
204 314 m 1
 274 251 275 172 254 111 c 0
 213 -9 251 -92 306 -101 c 0
 318 -104 320 -106 320 -111 c 2
 320 -166 l 2
 320 -171 319 -173 306 -173 c 0
 152 -173 120 -10 141 67 c 0
 190 222 160 261 105 275 c 0
 93 279 94 280 94 289 c 2
 94 289 93 339 94 339 c 1
 94 348 93 350 105 354 c 0
 160 368 190 406 141 561 c 0
 120 638 152 801 306 801 c 0
 319 801 320 800 320 795 c 2
 320 739 l 2
 320 734 318 732 306 729 c 0
 251 720 213 637 254 517 c 0
 275 456 274 377 204 314 c 1
EndSplineSet
EndChar

StartChar: braceright
Encoding: 125 125 198
GlifName: braceright
Width: 496
Flags: HMW
HStem: -173 974<101 185>
VStem: 175 71
LayerCount: 2
Back
Fore
SplineSet
209 314 m 1
 139 377 138 456 159 517 c 0
 200 637 162 720 107 729 c 0
 95 732 93 734 93 739 c 2
 93 795 l 2
 93 800 94 801 107 801 c 0
 261 801 293 638 272 561 c 0
 223 406 253 368 308 354 c 0
 320 350 319 348 319 339 c 1
 320 339 319 289 319 289 c 2
 319 280 320 279 308 275 c 0
 253 261 223 222 272 67 c 0
 293 -10 261 -173 107 -173 c 0
 94 -173 93 -171 93 -166 c 2
 93 -111 l 2
 93 -106 95 -104 107 -101 c 0
 162 -92 200 -9 159 111 c 0
 138 172 139 251 209 314 c 1
EndSplineSet
EndChar

StartChar: oe
Encoding: 339 339 199
GlifName: oe
Width: 910
Flags: HMW
HStem: -15 68 -15 92<648 708> 244 65 472 67<609 663>
VStem: 41 164<261 261> 385 174<266 308 267 308> 714 148<307 312 307 335 249 374>
LayerCount: 2
Back
Fore
SplineSet
688 76 m 0x7e
 740 76 772 104 786 148 c 0
 789 154 790 157 794 157 c 0
 830 158 856 163 861 163 c 0
 864 163 866 160 865 154 c 0
 859 62 779 -15 637 -15 c 0x7e
 561 -15 507 7 470 43 c 1
 427 4 368 -15 292 -15 c 0xbe
 127 -15 41 75 41 261 c 0
 41 447 127 539 292 539 c 0
 366 539 424 520 467 483 c 1
 508 519 566 539 649 539 c 0
 813 539 861 452 861 335 c 2
 861 249 l 1
 563 240 l 1
 573 110 608 76 688 76 c 0x7e
385 266 m 1
 385 267 l 1x7e
 379 415 361 475 286 471 c 0
 211 468 199 407 205 259 c 0
 211 109 228 49 303 53 c 0xbe
 378 56 391 118 385 266 c 1
559 308 m 1
 714 312 l 1
 714 307 l 2
 714 441 687 472 637 472 c 0
 579 472 559 440 559 326 c 2
 559 308 l 1
EndSplineSet
EndChar

StartChar: n
Encoding: 110 110 200
GlifName: n
Width: 634
Flags: HMW
HStem: 445 85
LayerCount: 2
Back
Fore
SplineSet
230 495 m 1
 230 6 l 1
 80 6 l 1
 80 495 l 1
 230 495 l 1
230 383 m 1
 188 421 l 1
 188 421 300 539 419 539 c 0
 531 539 560 472 560 366 c 0
 560 265 560 15 560 15 c 1
 410 15 l 1
 410 345 l 2
 410 402 411 435 346 435 c 0
 279 435 230 383 230 383 c 1
230 515 m 2
 230 452 l 1
 80 452 l 1
 80 452 50 461 36 466 c 1
 36 466 28 469 28 475 c 2
 28 475 28 507 28 515 c 0
 28 524 34 524 40 524 c 2
 40 524 79 521 125 521 c 0
 155 521 219 524 219 524 c 2
 225 524 230 524 230 515 c 2
230 81 m 1
 230 81 228 74 237 70 c 2
 237 70 258 60 272 55 c 1
 272 55 279 52 279 46 c 2
 279 46 279 17 279 9 c 0
 279 3 277 0 268 0 c 2
 268 0 207 3 154 3 c 0
 101 3 40 0 40 0 c 2
 31 0 28 3 28 9 c 0
 28 17 28 46 28 46 c 2
 28 52 36 55 36 55 c 1
 50 60 72 70 72 70 c 2
 81 74 80 81 80 81 c 1
 88 81 215 81 230 81 c 1
560 81 m 1
 560 81 559 74 568 70 c 2
 568 70 589 60 603 55 c 1
 603 55 609 52 609 46 c 2
 609 46 609 17 609 9 c 0
 609 3 606 0 597 0 c 2
 597 0 537 3 484 3 c 0
 431 3 370 0 370 0 c 2
 361 0 359 3 359 9 c 0
 359 17 359 46 359 46 c 2
 359 52 366 55 366 55 c 1
 380 60 403 70 403 70 c 2
 412 74 410 81 410 81 c 1
 418 81 545 81 560 81 c 1
EndSplineSet
EndChar

StartChar: e
Encoding: 101 101 201
GlifName: e
Width: 522
Flags: HMW
HStem: -10 86 241 68 461 72<268.795 268.795>
VStem: 111.795 68 339.795 142<308 312>
LayerCount: 2
Back
Fore
SplineSet
302.794921875 77 m 0
 348.794921875 74 383.794921875 99 404.794921875 145 c 0
 407.794921875 151 408.794921875 160 411.794921875 166 c 0
 416.794921875 184 428.794921875 188 453.794921875 182 c 0
 474.794921875 176 478.794921875 169 478.794921875 157 c 0
 477.794921875 154 477.794921875 153 476.794921875 147 c 0
 461.794921875 55 391.794921875 -15 250.794921875 -10 c 0
 56.794921875 -5 9.794921875 135 15.794921875 290 c 0
 20.794921875 436 82.794921875 539 268.794921875 533 c 0
 431.794921875 528 485.794921875 436 481.794921875 308 c 2
 478.794921875 246 l 1
 327.794921875 243 111.794921875 241 111.794921875 241 c 1
 112.794921875 308 l 1
 339.794921875 312 l 1
 343.794921875 426 322.794921875 460 268.794921875 461 c 0
 210.794921875 464 186.794921875 437 182.794921875 323 c 0
 176.794921875 120 207.794921875 80 302.794921875 77 c 0
EndSplineSet
EndChar

StartChar: p
Encoding: 112 112 202
GlifName: p
Width: 598
Flags: HMW
HStem: -261 81<22 217 67 263> -254 75<67 217 67 217> -213 9<15 23> -9 68<267 326 267 399> 452 43<67 217 67 217> 452 72<28 217 28 67> 452 85<206 206 206 217> 455 77<259 321> 477 46<15 28>
VStem: 67 150<-254 494 -179 -179 452 452 494 494> 263 6 397 165<175 308>
LayerCount: 2
Back
Fore
SplineSet
67 -179 m 1x5870
 217 -179 l 1
 217 -179 216 -186 225 -190 c 2
 225 -190 249 -199 263 -204 c 1x9470
 263 -204 270 -207 270 -213 c 2
 270 -213 270 -244 270 -252 c 0x3470
 270 -258 268 -261 259 -261 c 2
 259 -261 194 -258 141 -258 c 0x5470
 88 -258 27 -261 27 -261 c 2
 18 -261 15 -258 15 -252 c 0x9470
 15 -244 15 -213 15 -213 c 2
 15 -207 23 -204 23 -204 c 1
 37 -199 59 -190 59 -190 c 2
 68 -186 67 -179 67 -179 c 1x5870
67 494 m 1x3470
 217 494 l 1
 217 -254 l 1x5270
 67 -254 l 1
 67 494 l 1x3470
217 528 m 2
 217 452 l 1
 67 452 l 1
 67 452 37 461 23 466 c 0x9470
 18 469 15 469 15 477 c 2x90f0
 15 477 15 507 15 515 c 0
 15 521 18 527 28 524 c 2
 28 524 55 516 112 521 c 0x9470
 142 524 206 537 206 537 c 2
 214 540 217 537 217 528 c 2
330 534 m 0x9170
 518 534 563 412 563 249 c 0
 563 102 496 -9 301 -9 c 0
 178 -9 72 93 72 148 c 0
 72 178 83 193 135 196 c 0
 187 199 206 185 206 159 c 0
 206 91 236 59 299 59 c 0
 353 59 397 90 397 218 c 0
 397 399 365 455 277 455 c 0
 172 455 190 344 169 292 c 0
 166 284 166 274 163 268 c 0
 157 238 95 250 95 276 c 0
 95 279 83 296 84 302 c 0
 97 394 188 534 330 534 c 0x9170
EndSplineSet
EndChar

StartChar: dotlessi
Encoding: 305 305 203
GlifName: dotlessi
Width: 329
VWidth: 0
Flags: HW
HStem: 0 21G<45 50 280 284> 6 75<90 240> 452 41<90 240> 505 21G<46 50 228 232>
VStem: 39 201<6 9 46 55 466 521> 90 150<6 493>
LayerCount: 2
Back
Fore
SplineSet
240 493 m 1x78
 240 412 l 1x74
 240 6 l 1x78
 90 6 l 1
 90 493 l 1x74
 240 493 l 1x78
90 81 m 1
 105 81 232 81 240 81 c 1x74
 240 81 239 74 248 70 c 2
 248 70 270 60 284 55 c 1
 284 55 292 52 292 46 c 2
 292 46 292 17 292 9 c 0
 292 3 289 0 280 0 c 2
 280 0 219 3 166 3 c 0
 113 3 50 0 50 0 c 2
 41 0 39 3 39 9 c 0
 39 17 39 46 39 46 c 2xb8
 39 52 46 55 46 55 c 1
 60 60 83 70 83 70 c 2
 92 74 90 81 90 81 c 1
240 515 m 2x38
 240 452 l 1
 90 452 l 1x34
 90 452 60 461 46 466 c 1
 46 466 39 469 39 475 c 2
 39 475 39 507 39 515 c 0
 39 524 44 524 50 524 c 2
 50 524 89 521 135 521 c 0
 165 521 228 524 228 524 c 2
 234 524 240 524 240 515 c 2x38
EndSplineSet
EndChar

